# Blender v2.80 (sub 75) OBJ File: 'MCOTMC_April2022_ContractorBuilder_Source.blend'
# www.blender.org
mtllib character_builder_armLeft.mtl
o character_builder_armLeft_Cube.233
v 0.091407 0.727740 -0.000000
v 0.234473 0.677212 -0.000000
v 0.331595 0.589901 -0.000000
v 0.398678 0.491548 -0.000000
v 0.233857 0.677212 -0.003489
v 0.177753 0.677212 -0.045293
v 0.188301 0.694110 -0.037657
v 0.214370 0.677212 -0.033049
v 0.327670 0.589901 -0.022251
v 0.272079 0.589901 -0.064054
v 0.308334 0.589901 -0.051810
v 0.392468 0.491548 -0.035209
v 0.337600 0.491548 -0.077013
v 0.373343 0.491548 -0.064769
v 0.401918 0.156901 -0.045053
v 0.398201 0.199326 -0.088876
v 0.451697 0.198781 -0.047054
v 0.397125 0.169439 -0.075341
v 0.424688 0.174717 -0.070273
v 0.432325 0.199053 -0.076756
v 0.396882 0.183174 -0.085022
v 0.428569 0.183357 -0.073969
v 0.446307 0.182671 -0.046384
v 0.434953 0.169054 -0.045768
v 0.459997 0.198781 -0.000000
v 0.409865 0.156901 -0.000000
v 0.454026 0.182754 -0.000000
v 0.442402 0.169167 -0.000000
v 0.177753 0.677212 0.045293
v 0.233858 0.677212 0.003489
v 0.188301 0.694110 0.037657
v 0.214370 0.677212 0.033049
v 0.272079 0.589901 0.064054
v 0.327670 0.589901 0.022250
v 0.308333 0.589901 0.051810
v 0.337600 0.491548 0.077013
v 0.392468 0.491548 0.035209
v 0.373343 0.491548 0.064769
v 0.401918 0.156901 0.045052
v 0.451697 0.198781 0.047054
v 0.398201 0.199326 0.088876
v 0.434953 0.169054 0.045768
v 0.424688 0.174717 0.070273
v 0.432325 0.199053 0.076756
v 0.446307 0.182671 0.046384
v 0.428569 0.183357 0.073969
v 0.396882 0.183174 0.085022
v 0.397125 0.169439 0.075341
v 0.105597 0.719915 -0.025997
v 0.088710 0.726236 -0.016182
v 0.096710 0.722828 -0.023748
v 0.090529 0.725142 -0.020156
v 0.177422 0.677212 -0.045293
v 0.169036 0.677212 -0.037765
v 0.173229 0.677212 -0.044285
v 0.170160 0.677212 -0.041529
v 0.247220 0.589901 -0.064054
v 0.239054 0.589901 -0.056513
v 0.243137 0.589901 -0.063044
v 0.240148 0.589901 -0.060284
v 0.295405 0.491548 -0.077013
v 0.287416 0.491548 -0.069446
v 0.291410 0.491548 -0.075999
v 0.288486 0.491548 -0.073230
v 0.331857 0.163963 -0.000000
v 0.341014 0.156901 -0.000000
v 0.333703 0.160432 -0.000000
v 0.337054 0.157847 -0.000000
v 0.088710 0.726236 0.016182
v 0.105597 0.719915 0.025997
v 0.090529 0.725142 0.020155
v 0.096710 0.722828 0.023748
v 0.169036 0.677212 0.037765
v 0.177422 0.677212 0.045293
v 0.170160 0.677212 0.041529
v 0.173229 0.677212 0.044285
v 0.239054 0.589901 0.056513
v 0.247220 0.589901 0.064054
v 0.240148 0.589901 0.060284
v 0.243137 0.589901 0.063044
v 0.287416 0.491548 0.069446
v 0.295405 0.491548 0.077013
v 0.288486 0.491548 0.073230
v 0.291410 0.491548 0.075999
v 0.331688 0.199326 -0.081066
v 0.339292 0.199326 -0.088876
v 0.332707 0.199326 -0.084971
v 0.335490 0.199326 -0.087829
v 0.330993 0.164110 -0.054013
v 0.339616 0.156901 -0.045053
v 0.332569 0.160505 -0.049533
v 0.335725 0.157867 -0.046253
v 0.337690 0.183100 -0.085107
v 0.330149 0.183090 -0.077154
v 0.333919 0.183095 -0.084046
v 0.331159 0.183092 -0.081134
v 0.337193 0.169339 -0.075456
v 0.329694 0.169327 -0.067293
v 0.333444 0.169333 -0.074368
v 0.330699 0.169328 -0.071380
v 0.330993 0.164110 0.054013
v 0.339616 0.156901 0.045052
v 0.332569 0.160505 0.049533
v 0.335725 0.157867 0.046253
v 0.339292 0.199326 0.088876
v 0.331688 0.199326 0.081066
v 0.335490 0.199326 0.087829
v 0.332707 0.199326 0.084971
v 0.337193 0.169339 0.075456
v 0.329694 0.169327 0.067293
v 0.333444 0.169333 0.074368
v 0.330699 0.169328 0.071380
v 0.337690 0.183100 0.085107
v 0.330149 0.183090 0.077154
v 0.333919 0.183095 0.084046
v 0.331159 0.183092 0.081134
v 0.332261 0.358795 0.105822
v 0.465406 0.223227 -0.000000
v 0.322082 0.357079 0.102724
v 0.456819 0.223534 -0.048716
v 0.403144 0.225453 -0.090519
v 0.309273 0.354919 0.082260
v 0.438020 0.224208 -0.078281
v 0.312630 0.355485 0.093244
v 0.309273 0.354919 -0.082260
v 0.312630 0.355485 -0.093244
v 0.403144 0.225453 0.090519
v 0.456819 0.223534 0.048715
v 0.332261 0.358795 -0.105822
v 0.322082 0.357079 -0.102724
v 0.438020 0.224208 0.078281
v 0.466184 0.381378 -0.000000
v 0.457266 0.379874 0.051939
v 0.342398 0.227626 -0.090519
v 0.334714 0.227901 -0.082818
v 0.434938 0.376109 0.088101
v 0.338556 0.227764 -0.089487
v 0.390517 0.368618 0.105798
v 0.335743 0.227864 -0.086668
v 0.390517 0.368618 -0.105798
v 0.334714 0.227901 0.082818
v 0.342398 0.227626 0.090519
v 0.335743 0.227864 0.086668
v 0.457266 0.379874 -0.051939
v 0.338556 0.227764 0.089487
v 0.434938 0.376109 -0.088101
v 0.450433 0.367216 -0.000000
v 0.297912 0.480638 0.096944
v 0.442595 0.366022 -0.045697
v 0.287020 0.480638 0.093348
v 0.277841 0.480638 0.083641
v 0.389990 0.357950 -0.087498
v 0.274810 0.480638 0.073209
v 0.424217 0.363203 -0.075257
v 0.274810 0.480638 -0.073209
v 0.389990 0.357950 0.087498
v 0.277841 0.480638 -0.083641
v 0.287020 0.480638 -0.093348
v 0.442595 0.366022 0.045697
v 0.297912 0.480638 -0.096944
v 0.423284 0.480638 -0.000000
v 0.424217 0.363203 0.075257
v 0.335111 0.349600 -0.087498
v 0.415614 0.480638 0.043265
v 0.391890 0.480638 0.079935
v 0.327526 0.348435 -0.079874
v 0.331317 0.349017 -0.086476
v 0.345909 0.480638 0.097049
v 0.328541 0.348591 -0.083686
v 0.327526 0.348435 0.079874
v 0.345909 0.480638 -0.097049
v 0.335111 0.349600 0.087498
v 0.391890 0.480638 -0.079935
v 0.328541 0.348591 0.083686
v 0.415614 0.480638 -0.043265
v 0.331317 0.349017 0.086476
vt 0.458333 0.666744
vt 0.458333 0.585579
vt 0.458333 0.585538
vt 0.458333 0.666667
vt 0.500000 0.674987
vt 0.500000 0.750000
vt 0.485527 0.750000
vt 0.481035 0.674987
vt 0.538028 0.585536
vt 0.461972 0.585536
vt 0.462354 0.666667
vt 0.537646 0.666667
vt 0.458334 0.906935
vt 0.458333 0.833333
vt 0.458333 0.833333
vt 0.458333 0.862459
vt 0.500000 0.833333
vt 0.496791 0.833333
vt 0.541667 0.585532
vt 0.541667 0.666667
vt 0.541667 0.669098
vt 0.541667 0.587198
vt 0.518966 0.674987
vt 0.514474 0.750000
vt 0.537558 0.674987
vt 0.462442 0.674987
vt 0.463239 0.750000
vt 0.536761 0.750000
vt 0.465259 0.833333
vt 0.534741 0.833333
vt 0.541667 0.674987
vt 0.541667 0.674078
vt 0.521753 0.579148
vt 0.541667 0.582986
vt 0.521700 0.585506
vt 0.460870 0.671846
vt 0.460353 0.666406
vt 0.541667 0.666744
vt 0.541667 0.585579
vt 0.539844 0.585395
vt 0.539647 0.666406
vt 0.458333 0.750000
vt 0.458333 0.672125
vt 0.458333 0.674987
vt 0.458333 0.750000
vt 0.500000 0.916667
vt 0.471242 0.916667
vt 0.464598 0.914721
vt 0.458864 0.912298
vt 0.541667 0.833333
vt 0.541667 0.906935
vt 0.541667 0.862459
vt 0.541667 0.833333
vt 0.503210 0.833333
vt 0.458333 0.835734
vt 0.458333 0.841529
vt 0.541667 0.753358
vt 0.541667 0.750000
vt 0.541667 0.833333
vt 0.519464 0.666667
vt 0.500000 0.666667
vt 0.500000 0.585503
vt 0.480537 0.666667
vt 0.478300 0.585506
vt 0.458333 0.753358
vt 0.458333 0.833333
vt 0.458333 0.674078
vt 0.458333 0.669098
vt 0.541664 0.581377
vt 0.541562 0.581533
vt 0.541667 0.585538
vt 0.460156 0.585395
vt 0.460205 0.582013
vt 0.458438 0.581533
vt 0.458333 0.579172
vt 0.458333 0.582986
vt 0.458333 0.587198
vt 0.458333 0.585532
vt 0.541667 0.579172
vt 0.532059 0.840013
vt 0.541667 0.672125
vt 0.541667 0.750000
vt 0.541137 0.912298
vt 0.535402 0.914721
vt 0.528758 0.916667
vt 0.541667 0.833758
vt 0.538153 0.832650
vt 0.541667 0.750148
vt 0.539192 0.749582
vt 0.540941 0.671974
vt 0.539130 0.671846
vt 0.541667 0.666667
vt 0.461955 0.581351
vt 0.461847 0.832650
vt 0.458333 0.833758
vt 0.460809 0.749582
vt 0.458333 0.750148
vt 0.459059 0.671974
vt 0.458333 0.666667
vt 0.478247 0.579148
vt 0.500000 0.579145
vt 0.539795 0.582013
vt 0.538045 0.581351
vt 0.458336 0.581377
vt 0.545932 0.856140
vt 0.478547 0.416667
vt 0.500000 0.416667
vt 0.500000 0.416667
vt 0.478546 0.416667
vt 0.541667 0.497871
vt 0.541667 0.451570
vt 0.541667 0.453807
vt 0.541667 0.498181
vt 0.522063 0.453330
vt 0.522424 0.498183
vt 0.500000 0.498184
vt 0.500000 0.453330
vt 0.477576 0.498183
vt 0.477937 0.453330
vt 0.458333 0.497871
vt 0.458333 0.451570
vt 0.538006 0.453807
vt 0.537768 0.439503
vt 0.462232 0.439503
vt 0.461995 0.453807
vt 0.541667 0.437599
vt 0.541667 0.439573
vt 0.541667 0.416667
vt 0.539364 0.420977
vt 0.522604 0.416667
vt 0.521454 0.416667
vt 0.522103 0.438838
vt 0.477396 0.416667
vt 0.460636 0.420977
vt 0.458333 0.416667
vt 0.458333 0.439573
vt 0.458333 0.437599
vt 0.458333 0.453807
vt 0.477897 0.438838
vt 0.458333 0.453807
vt 0.458333 0.439510
vt 0.458333 0.416667
vt 0.537152 0.416667
vt 0.462848 0.416667
vt 0.541667 0.416667
vt 0.521454 0.416667
vt 0.500000 0.416667
vt 0.458333 0.498181
vt 0.541667 0.453807
vt 0.541667 0.498180
vt 0.500000 0.438845
vt 0.458333 0.498180
vt 0.528394 0.416667
vt 0.500000 0.416667
vt 0.471606 0.416667
vt 0.541667 0.439510
vt 0.541667 0.453690
vt 0.541667 0.498171
vt 0.539831 0.453902
vt 0.539893 0.498197
vt 0.538122 0.498180
vt 0.461879 0.498180
vt 0.460169 0.453902
vt 0.460107 0.498197
vt 0.458333 0.453690
vt 0.458333 0.498171
vt 0.541667 0.438985
vt 0.539706 0.439574
vt 0.541355 0.416239
vt 0.539372 0.416696
vt 0.522194 0.416667
vt 0.524864 0.416667
vt 0.458645 0.416238
vt 0.477806 0.416667
vt 0.460628 0.416696
vt 0.475136 0.416667
vt 0.458333 0.438985
vt 0.460294 0.439574
vt 0.500000 0.416667
vt 0.500000 0.416667
vn -0.5537 -0.0934 0.8274
vn -0.5020 -0.0766 0.8615
vn -0.1455 0.0327 0.9888
vn -0.1827 0.0217 0.9829
vn 0.6217 0.7833 0.0000
vn 0.7584 0.6518 -0.0000
vn 0.7142 0.6397 0.2842
vn 0.5820 0.7812 0.2259
vn -0.9560 -0.2518 -0.1507
vn -0.9560 -0.2518 0.1507
vn -0.9581 -0.2535 0.1334
vn -0.9581 -0.2535 -0.1334
vn -0.2141 0.0795 0.9736
vn -0.1075 0.2155 0.9706
vn 0.0868 0.3219 0.9428
vn 0.1688 0.3164 0.9335
vn 0.5203 0.8540 0.0000
vn 0.5178 0.8347 0.1874
vn 0.1890 0.1513 -0.9703
vn 0.1288 0.1276 -0.9834
vn 0.4677 0.6188 -0.6311
vn 0.6047 0.3068 -0.7350
vn 0.5820 0.7812 -0.2259
vn 0.7142 0.6397 -0.2842
vn -0.8957 -0.4218 -0.1410
vn -0.8957 -0.4218 0.1410
vn -0.8443 -0.5213 0.1241
vn -0.8443 -0.5213 -0.1241
vn -0.6604 -0.7474 0.0728
vn -0.6604 -0.7474 -0.0728
vn 0.1469 0.6476 -0.7477
vn 0.4096 0.7623 -0.5010
vn 0.0882 0.8866 -0.4540
vn 0.6277 -0.7546 -0.1912
vn 0.4529 -0.7960 -0.4016
vn 0.4665 -0.7935 -0.3908
vn 0.6281 -0.7545 -0.1903
vn -0.5335 0.7966 0.2842
vn -0.6382 0.7654 0.0828
vn -0.6352 0.7664 0.0959
vn -0.5092 0.8016 0.3133
vn -0.5537 -0.0934 -0.8274
vn -0.5020 -0.0766 -0.8615
vn -0.8327 -0.1924 -0.5193
vn -0.8554 -0.2016 -0.4771
vn -0.1136 0.1048 0.9880
vn -0.0864 0.0884 0.9923
vn 0.1469 0.6476 0.7477
vn 0.1573 0.3070 0.9386
vn 0.3187 0.9479 -0.0000
vn 0.3185 0.9474 0.0311
vn 0.3646 0.9267 0.0906
vn -0.1075 0.2155 -0.9706
vn -0.2141 0.0795 -0.9736
vn 0.1688 0.3164 -0.9335
vn 0.0868 0.3219 -0.9428
vn 0.5178 0.8347 -0.1874
vn 0.4637 0.6319 0.6210
vn 0.5038 0.5376 -0.6761
vn 0.1573 0.3070 -0.9386
vn 0.4637 0.6319 -0.6210
vn 0.8575 0.3834 -0.3430
vn 0.6839 0.6752 -0.2764
vn 0.7299 0.6835 0.0000
vn 0.9185 0.3955 0.0000
vn 0.6839 0.6752 0.2764
vn 0.8575 0.3834 0.3430
vn 0.5038 0.5376 0.6761
vn 0.4097 0.7623 0.5010
vn 0.4677 0.6188 0.6311
vn 0.0751 -0.8820 -0.4653
vn -0.0938 -0.9125 -0.3982
vn -0.0842 -0.9113 -0.4031
vn 0.0798 -0.8810 -0.4664
vn -0.8554 -0.2016 0.4771
vn -0.8327 -0.1924 0.5193
vn -0.2593 -0.9352 0.2411
vn -0.0938 -0.9125 0.3982
vn -0.0842 -0.9113 0.4031
vn -0.2562 -0.9348 0.2460
vn 0.2330 -0.8401 0.4898
vn 0.4529 -0.7960 0.4016
vn 0.4665 -0.7935 0.3908
vn 0.2270 -0.8421 0.4893
vn 0.2330 -0.8401 -0.4898
vn 0.2270 -0.8421 -0.4893
vn 0.3646 0.9267 -0.0906
vn -0.0864 0.0884 -0.9923
vn -0.1136 0.1048 -0.9880
vn 0.3185 0.9474 -0.0311
vn -0.4280 -0.1797 -0.8857
vn -0.2307 0.0507 -0.9717
vn -0.5342 -0.6489 -0.5418
vn -0.6479 -0.6424 -0.4094
vn -0.5403 -0.8294 -0.1420
vn -0.5302 -0.8474 -0.0280
vn -0.4515 -0.1246 -0.8835
vn -0.7659 -0.4043 -0.4999
vn -0.4104 -0.0818 -0.9082
vn -0.7788 -0.3109 -0.5449
vn 0.6047 0.3068 0.7350
vn -0.1827 0.0217 -0.9829
vn -0.1455 0.0327 -0.9888
vn -0.3273 -0.9423 0.0698
vn -0.3273 -0.9423 0.0696
vn -0.5302 -0.8474 0.0280
vn -0.6479 -0.6424 0.4094
vn -0.5403 -0.8294 0.1420
vn -0.4280 -0.1797 0.8857
vn -0.5342 -0.6489 0.5419
vn -0.2307 0.0507 0.9717
vn -0.7659 -0.4043 0.4999
vn -0.4515 -0.1246 0.8835
vn -0.7788 -0.3109 0.5449
vn -0.4104 -0.0818 0.9082
vn 0.1890 0.1513 0.9703
vn 0.1288 0.1276 0.9834
vn 0.6277 -0.7546 0.1912
vn 0.6669 -0.7451 0.0000
vn 0.6281 -0.7545 0.1903
vn -0.5283 -0.8491 0.0000
vn -0.0868 0.8681 -0.4887
vn -0.0636 0.8713 -0.4865
vn -0.6382 0.7654 -0.0828
vn -0.6352 0.7664 -0.0959
vn -0.5335 0.7966 -0.2842
vn -0.3062 0.8387 -0.4504
vn -0.2632 0.8459 -0.4638
vn -0.5092 0.8016 -0.3133
vn -0.2593 -0.9352 -0.2411
vn -0.3273 -0.9423 -0.0698
vn -0.3273 -0.9423 -0.0696
vn -0.2562 -0.9348 -0.2460
vn -0.0868 0.8681 0.4887
vn -0.3062 0.8387 0.4504
vn -0.2632 0.8459 0.4638
vn -0.0636 0.8713 0.4865
vn 0.0882 0.8866 0.4540
vn 0.0751 -0.8820 0.4653
vn 0.0798 -0.8810 0.4664
vn -0.0946 -0.9809 0.1701
vn -0.1173 -0.9931 0.0000
vn 0.1959 -0.9806 0.0000
vn 0.1566 -0.9669 0.2014
vn 0.6350 -0.0503 -0.7709
vn 0.5947 -0.2251 -0.7718
vn 0.1580 -0.1639 -0.9737
vn 0.1810 -0.0283 -0.9831
vn 0.8985 -0.2652 -0.3497
vn 0.9307 -0.0580 -0.3611
vn 0.9984 -0.0562 0.0000
vn 0.9616 -0.2743 0.0000
vn 0.9307 -0.0580 0.3611
vn 0.8985 -0.2652 0.3497
vn 0.6350 -0.0503 0.7709
vn 0.5947 -0.2251 0.7718
vn -0.9879 0.0782 -0.1338
vn -0.9904 -0.0094 -0.1379
vn -0.9904 -0.0094 0.1379
vn -0.9879 0.0782 0.1338
vn 0.5577 -0.4156 -0.7185
vn 0.1459 -0.3978 -0.9058
vn 0.1359 -0.7666 -0.6276
vn 0.4324 -0.6974 -0.5715
vn 0.5532 -0.7931 -0.2550
vn 0.1566 -0.9669 -0.2014
vn 0.8264 -0.4646 -0.3181
vn 0.5532 -0.7931 0.2550
vn 0.4324 -0.6974 0.5715
vn 0.1359 -0.7666 0.6276
vn 0.1459 -0.3978 0.9058
vn 0.5577 -0.4156 0.7185
vn 0.1580 -0.1639 0.9737
vn 0.8264 -0.4646 0.3181
vn -0.1327 -0.1286 0.9828
vn -0.1271 -0.3923 0.9110
vn -0.0931 -0.7665 0.6355
vn -0.9492 -0.2940 -0.1124
vn -0.9492 -0.2940 0.1124
vn -0.0931 -0.7665 -0.6355
vn -0.0946 -0.9809 -0.1701
vn 0.5912 -0.8065 0.0000
vn 0.1730 0.0398 -0.9841
vn 0.6292 0.0796 -0.7732
vn 0.1810 -0.0283 0.9831
vn -0.1327 -0.1286 -0.9828
vn -0.1251 -0.0142 -0.9920
vn 0.8708 -0.4916 0.0000
vn 0.9298 0.1004 -0.3542
vn -0.1251 -0.0142 0.9920
vn -0.8901 -0.4501 -0.0718
vn -0.9310 -0.3650 0.0000
vn -0.8901 -0.4501 0.0718
vn 0.6292 0.0796 0.7732
vn 0.1730 0.0398 0.9841
vn -0.1271 -0.3923 -0.9110
vn -0.5026 -0.0738 -0.8614
vn -0.4895 -0.0028 -0.8720
vn -0.8652 0.0117 -0.5013
vn -0.8609 0.0113 -0.5087
vn -0.9908 0.0203 -0.1340
vn -0.9908 0.0203 0.1340
vn -0.8652 0.0116 0.5013
vn -0.8609 0.0113 0.5087
vn -0.5026 -0.0738 0.8614
vn -0.4895 -0.0028 0.8720
vn -0.4865 -0.3256 -0.8107
vn -0.8536 -0.1780 -0.4896
vn -0.3887 -0.7111 -0.5858
vn -0.7459 -0.5535 -0.3706
vn -0.3719 -0.9156 -0.1529
vn -0.6880 -0.7119 -0.1411
vn -0.3887 -0.7111 0.5858
vn -0.3719 -0.9156 0.1529
vn -0.7458 -0.5535 0.3706
vn -0.6880 -0.7119 0.1411
vn -0.4865 -0.3256 0.8107
vn -0.8536 -0.1780 0.4896
vn -0.4417 -0.8972 -0.0000
vn -0.7867 -0.6173 0.0000
vn 0.9298 0.1004 0.3542
vn 0.9947 0.1032 0.0000
vn -0.4913 -0.0077 -0.8710
vn -0.1246 0.0166 -0.9921
vn -0.8635 -0.0391 -0.5028
vn -0.9900 -0.0559 -0.1292
vn -0.8635 -0.0391 0.5028
vn -0.9900 -0.0559 0.1292
vn -0.4913 -0.0077 0.8710
vn -0.1246 0.0166 0.9921
usemtl White
s 2
f 150/1/1 119/2/2 117/3/3 148/4/4
s 4
f 4/5/5 3/6/6 34/7/7 37/8/8
s 5
f 125/9/9 122/10/10 153/11/11 155/12/12
s 6
f 70/13/13 74/14/14 29/15/15 31/16/16
s 7
f 3/6/6 2/17/17 30/18/18 34/7/7
s 9
f 140/19/19 171/20/20 173/21/21 146/22/22
s 10
f 12/23/23 9/24/24 3/6/6 4/5/5
s 11
f 62/25/25 81/26/26 77/27/27 58/28/28
s 12
f 58/28/28 77/27/27 73/29/29 54/30/30
s 13
f 13/31/31 14/32/32 173/21/21 171/20/33
s 14
f 149/33/34 154/34/35 146/22/36 144/35/37
s 15
f 83/36/38 81/26/39 153/11/40 151/37/41
s 16
f 158/38/42 130/39/43 126/40/44 157/41/45
s 18
f 78/42/46 82/43/47 36/44/48 33/45/49
s 19
f 74/14/14 78/42/46 33/45/49 29/15/15
s 20
f 2/17/17 1/46/50 69/47/51 71/48/51 72/49/51 70/13/51 31/16/52 30/18/18
s 22
f 157/41/45 126/40/44 125/9/9 155/12/12
s 24
f 53/50/53 49/51/54 7/52/55 6/53/56
s 25
f 9/24/24 5/54/57 2/17/17 3/6/6
s 30
f 29/15/15 32/55/58 31/16/16
s 32
f 32/55/58 30/56/18 31/16/52
s 39
f 11/57/59 10/58/60 6/53/56 8/59/61
s 42
f 9/24/24 11/57/59 8/59/61 5/54/57
s 45
f 12/23/23 14/32/32 11/57/59 9/24/24
s 46
f 14/32/32 13/31/31 10/58/60 11/57/59
s 47
f 144/35/62 175/60/63 161/61/64 132/62/65
s 50
f 132/62/65 161/61/64 164/63/66 133/64/67
s 54
f 35/65/68 34/7/7 30/18/18 32/66/58
s 55
f 37/8/8 38/67/69 165/68/70 164/63/66
s 56
f 163/69/71 167/70/72 130/39/73 129/71/74
s 57
f 33/45/49 35/65/68 32/66/58 29/15/15
s 60
f 36/44/48 38/67/69 35/65/68 33/45/49
s 61
f 38/67/69 37/8/8 34/7/7 35/65/68
s 63
f 14/32/32 12/23/23 175/60/63 173/21/21
s 65
f 151/37/75 124/72/76 119/2/2 150/1/1
s 66
f 174/73/77 176/74/78 119/2/79 124/72/80
s 67
f 156/75/81 162/76/82 136/77/83 138/78/84
s 68
f 4/5/5 37/8/8 164/63/66 161/61/64
s 70
f 154/34/35 152/79/85 140/19/86 146/22/36
s 74
f 5/54/57 8/80/61 7/52/87
s 75
f 153/11/11 122/10/10 124/72/76 151/37/75
s 80
f 61/81/88 57/82/89 10/58/60 13/31/31
s 81
f 57/82/89 53/50/53 6/53/56 10/58/60
s 82
f 5/54/57 7/52/87 49/51/90 51/83/90 52/84/90 50/85/90 1/46/50 2/17/17
s 83
f 49/51/54 53/50/53 55/86/91 51/83/92
s 84
f 51/83/93 55/86/91 56/87/94 52/84/95
s 85
f 52/84/95 56/87/94 54/30/30 50/85/96
s 86
f 53/50/53 57/82/89 59/88/97 55/86/91
s 87
f 55/86/91 59/88/97 60/89/98 56/87/94
s 88
f 56/87/94 60/89/98 58/28/28 54/30/30
s 89
f 57/82/89 61/81/88 63/90/99 59/88/97
s 90
f 59/88/97 63/90/99 64/91/100 60/89/98
s 91
f 60/89/98 64/91/100 62/25/25 58/28/28
s 92
f 136/77/101 133/64/67 164/63/66 165/68/70
s 93
f 160/92/102 129/71/103 130/39/43 158/38/42
s 94
f 170/93/104 174/73/77 124/72/80 122/10/105
s 98
f 69/47/106 73/29/29 75/94/107 71/48/108
s 99
f 71/48/108 75/94/107 76/95/109 72/49/110
s 100
f 72/49/111 76/95/109 74/14/14 70/13/13
s 101
f 73/29/29 77/27/27 79/96/112 75/94/107
s 102
f 75/94/107 79/96/112 80/97/113 76/95/109
s 103
f 76/95/109 80/97/113 78/42/46 74/14/14
s 104
f 77/27/27 81/26/26 83/36/114 79/96/112
s 105
f 79/96/112 83/36/114 84/98/115 80/97/113
s 106
f 80/97/113 84/98/115 82/43/47 78/42/46
s 107
f 148/4/4 117/3/3 138/78/116 168/99/117
s 128
f 159/100/118 147/101/119 132/62/119 133/64/120
s 129
f 129/71/103 160/92/102 171/20/20 140/19/19
s 134
f 12/23/23 4/5/5 161/61/64 175/60/63
s 139
f 54/30/30 73/29/29 69/47/106 1/46/121 50/85/96
s 140
f 136/77/101 165/68/70 168/99/117 138/78/116
s 141
f 61/81/122 13/31/31 171/20/33 160/92/123
s 142
f 147/101/119 149/33/34 144/35/37 132/62/119
s 143
f 81/26/39 62/25/124 155/12/125 153/11/40
s 144
f 152/79/85 163/69/71 129/71/74 140/19/86
s 145
f 64/91/126 63/90/127 158/38/128 157/41/129
s 146
f 169/102/130 166/103/131 125/9/132 126/40/133
s 147
f 82/43/134 84/98/135 150/1/136 148/4/137
s 148
f 166/103/131 170/93/104 122/10/105 125/9/132
s 149
f 63/90/127 61/81/122 160/92/123 158/38/128
s 150
f 162/76/82 159/100/118 133/64/120 136/77/83
s 151
f 36/44/48 82/43/134 148/4/137 168/99/138
s 152
f 84/98/135 83/36/38 151/37/41 150/1/136
s 153
f 167/70/72 169/102/130 126/40/133 130/39/73
s 154
f 172/104/139 156/75/81 138/78/84 117/3/140
s 155
f 36/44/48 168/99/138 165/68/70 38/67/69
s 168
f 144/35/62 146/22/22 173/21/21 175/60/63
s 169
f 62/25/124 64/91/126 157/41/129 155/12/125
s 170
f 176/74/78 172/104/139 117/3/140 119/2/79
s 171
f 8/80/61 6/105/56 7/52/55
usemtl PinkLight
s 1
f 102/106/141 66/107/142 26/108/143 39/109/144
s 3
f 123/110/145 20/111/146 16/112/147 121/113/148
s 8
f 17/114/149 120/115/150 118/116/151 25/117/152
s 17
f 25/117/152 118/116/151 128/118/153 40/119/154
s 21
f 40/119/154 128/118/153 131/120/155 44/121/156
s 23
f 85/122/157 94/123/158 114/124/159 106/125/160
s 26
f 16/112/147 20/111/146 22/126/161 21/127/162
s 27
f 18/128/163 19/129/164 24/130/165 15/131/166
s 28
f 23/132/167 22/126/161 20/111/146 17/114/149
s 29
f 21/127/162 22/126/161 19/129/164 18/128/163
s 31
f 24/130/165 19/129/164 22/126/161 23/132/167
s 33
f 42/133/168 43/134/169 48/135/170 39/109/144
s 34
f 47/136/171 46/137/172 44/121/156 41/138/173
s 35
f 40/119/154 44/121/156 46/137/172 45/139/174
s 36
f 45/139/174 46/137/172 43/134/169 42/133/168
s 37
f 41/138/173 105/140/175 113/141/176 47/136/171
s 38
f 48/135/170 43/134/169 46/137/172 47/136/171
s 40
f 47/136/171 113/141/176 109/142/177 48/135/170
s 41
f 94/123/158 98/143/178 110/144/179 114/124/159
s 43
f 102/106/141 39/109/144 48/135/170 109/142/177
s 44
f 97/145/180 18/128/163 15/131/166 90/146/181
s 48
f 15/131/166 24/130/165 28/147/182 26/108/143
s 49
f 17/114/149 20/111/146 123/110/145 120/115/150
s 51
f 123/110/145 121/113/148 152/79/183 154/34/184
s 52
f 41/138/173 44/121/156 131/120/155 127/148/185
s 53
f 86/149/186 134/150/187 121/113/148 16/112/147
s 58
f 28/147/182 24/130/165 23/132/167 27/151/188
s 59
f 27/151/188 23/132/167 17/114/149 25/117/152
s 62
f 26/108/143 28/147/182 42/133/168 39/109/144
s 64
f 120/115/150 123/110/145 154/34/184 149/33/189
s 69
f 142/152/190 105/140/175 41/138/173 127/148/185
s 71
f 42/133/168 28/147/182 27/151/188 45/139/174
s 72
f 45/139/174 27/151/188 25/117/152 40/119/154
s 73
f 98/143/178 89/153/191 65/154/192 101/155/193 110/144/179
s 76
f 127/148/185 131/120/155 162/76/194 156/75/195
s 77
f 21/127/162 93/156/196 86/149/186 16/112/147
s 78
f 18/128/163 97/145/180 93/156/196 21/127/162
s 79
f 66/107/142 90/146/181 15/131/166 26/108/143
s 95
f 88/157/197 137/158/198 134/150/187 86/149/186
s 96
f 87/159/199 139/160/200 137/158/198 88/157/197
s 97
f 135/161/201 85/122/157 106/125/160 141/162/202
s 108
f 108/163/203 143/164/204 141/162/202 106/125/160
s 109
f 107/165/205 145/166/206 143/164/204 108/163/203
s 110
f 86/149/186 93/156/196 95/167/207 88/157/197
s 111
f 88/157/197 95/167/207 96/168/208 87/159/199
s 112
f 87/159/199 96/168/208 94/123/158 85/122/157
s 113
f 93/156/196 97/145/180 99/169/209 95/167/207
s 114
f 95/167/207 99/169/209 100/170/210 96/168/208
s 115
f 96/168/208 100/170/210 98/143/178 94/123/158
s 116
f 97/145/180 90/146/181 92/171/211 99/169/209
s 117
f 99/169/209 92/171/211 91/172/212 100/170/210
s 118
f 100/170/210 91/172/212 89/153/191 98/143/178
s 119
f 102/106/141 109/142/177 111/173/213 104/174/214
s 120
f 104/174/214 111/173/213 112/175/215 103/176/216
s 121
f 103/176/216 112/175/215 110/144/179 101/155/193
s 122
f 109/142/177 113/141/176 115/177/217 111/173/213
s 123
f 111/173/213 115/177/217 116/178/218 112/175/215
s 124
f 112/175/215 116/178/218 114/124/159 110/144/179
s 125
f 113/141/176 105/140/175 107/165/205 115/177/217
s 126
f 115/177/217 107/165/205 108/163/203 116/178/218
s 127
f 116/178/218 108/163/203 106/125/160 114/124/159
s 130
f 85/122/157 135/161/201 139/160/200 87/159/199
s 131
f 90/146/181 66/107/142 68/179/219 92/171/211
s 132
f 92/171/211 68/179/219 67/180/220 91/172/212
s 133
f 91/172/212 67/180/220 65/154/192 89/153/191
s 135
f 105/140/175 142/152/190 145/166/206 107/165/205
s 136
f 66/107/142 102/106/141 104/174/214 68/179/219
s 137
f 68/179/219 104/174/214 103/176/216 67/180/220
s 138
f 67/180/220 103/176/216 101/155/193 65/154/192
s 156
f 131/120/155 128/118/153 159/100/221 162/76/194
s 157
f 118/116/151 120/115/150 149/33/189 147/101/222
s 158
f 128/118/153 118/116/151 147/101/222 159/100/221
s 159
f 134/150/187 137/158/198 167/70/223 163/69/224
s 160
f 137/158/198 139/160/200 169/102/225 167/70/223
s 161
f 139/160/200 135/161/201 166/103/226 169/102/225
s 162
f 141/162/202 143/164/204 174/73/227 170/93/228
s 163
f 143/164/204 145/166/206 176/74/229 174/73/227
s 164
f 145/166/206 142/152/190 172/104/230 176/74/229
s 165
f 135/161/201 141/162/202 170/93/228 166/103/226
s 166
f 121/113/148 134/150/187 163/69/224 152/79/183
s 167
f 142/152/190 127/148/185 156/75/195 172/104/230
