# Blender v2.80 (sub 75) OBJ File: 'MCOTMC_July2022_Goblin_Source.blend'
# www.blender.org
mtllib coin.mtl
o coin_Cylinder.109
v 0.000000 -0.017439 0.000003
v 0.000000 0.017441 -0.000003
v 0.000000 -0.000015 -0.098011
v 0.069304 -0.000011 -0.069304
v 0.098011 0.000001 0.000000
v 0.069304 0.000012 0.069304
v 0.000000 0.000016 0.098011
v -0.069304 0.000012 0.069304
v -0.098011 0.000001 0.000000
v -0.069304 -0.000011 -0.069304
v 0.058814 0.029137 -0.058818
v 0.000000 0.029133 -0.083179
v 0.083175 0.029147 -0.000005
v 0.058814 0.029156 0.058809
v 0.000000 0.029160 0.083170
v -0.058813 0.029156 0.058809
v -0.083174 0.029147 -0.000005
v -0.058813 0.029137 -0.058818
v 0.000000 -0.029159 -0.083170
v 0.058814 -0.029155 -0.058808
v 0.083175 -0.029145 0.000005
v 0.058814 -0.029136 0.058818
v 0.000000 -0.029132 0.083179
v -0.058813 -0.029136 0.058818
v -0.083174 -0.029145 0.000005
v -0.058813 -0.029155 -0.058808
vt 1.000000 0.750000
vt 1.000000 1.000000
vt 0.875000 1.000000
vt 0.875000 0.750000
vt 0.750000 1.000000
vt 0.750000 0.750000
vt 0.625000 1.000000
vt 0.625000 0.750000
vt 0.500000 1.000000
vt 0.500000 0.750000
vt 0.375000 1.000000
vt 0.375000 0.750000
vt 0.250000 1.000000
vt 0.250000 0.750000
vt 0.125000 1.000000
vt 0.125000 0.750000
vt 0.000000 1.000000
vt 0.000000 0.750000
vt 0.125000 0.500000
vt 0.000000 0.500000
vt 0.250000 0.500000
vt 0.375000 0.500000
vt 0.500000 0.500000
vt 0.625000 0.500000
vt 0.750000 0.500000
vt 0.875000 0.500000
vt 1.000000 0.500000
vt 0.387395 0.387395
vt 0.419706 0.419706
vt 0.250000 0.490000
vt 0.444307 0.250000
vt 0.490000 0.250000
vt 0.387395 0.112605
vt 0.419706 0.080294
vt 0.250000 0.055694
vt 0.250000 0.010000
vt 0.112605 0.112605
vt 0.080294 0.080294
vt 0.055694 0.250000
vt 0.010000 0.250000
vt 0.112605 0.387395
vt 0.080294 0.419706
vt 0.250000 0.444307
vt 0.750000 0.472093
vt 0.750000 0.490000
vt 0.919706 0.419706
vt 0.907043 0.407043
vt 0.990000 0.250000
vt 0.972093 0.250000
vt 0.919706 0.080294
vt 0.907043 0.092957
vt 0.750000 0.010000
vt 0.750000 0.027907
vt 0.580294 0.080294
vt 0.592957 0.092957
vt 0.510000 0.250000
vt 0.527907 0.250000
vt 0.580294 0.419706
vt 0.592957 0.407043
vn -0.0000 0.4535 -0.8913
vn 0.6302 0.4535 -0.6302
vn 0.8912 0.4536 -0.0001
vn 0.6302 0.4537 0.6301
vn 0.0000 0.4538 0.8911
vn -0.6302 0.4537 0.6301
vn -0.8912 0.4536 -0.0001
vn -0.6302 0.4535 -0.6302
vn -0.6302 -0.4537 -0.6301
vn -0.0000 -0.4538 -0.8911
vn -0.8912 -0.4536 0.0001
vn -0.6302 -0.4535 0.6302
vn 0.0000 -0.4535 0.8913
vn 0.6302 -0.4535 0.6302
vn 0.8912 -0.4536 0.0001
vn 0.6302 -0.4537 -0.6301
vn 0.0000 1.0000 -0.0002
vn -0.0985 0.9903 0.0984
vn 0.0000 0.9903 0.1392
vn -0.1394 0.9902 -0.0002
vn -0.0985 0.9902 -0.0987
vn 0.0000 0.9902 -0.1395
vn 0.0985 0.9902 -0.0987
vn 0.1394 0.9902 -0.0002
vn 0.0985 0.9903 0.0984
vn 0.0000 -1.0000 0.0002
vn -0.0000 -0.9902 0.1395
vn -0.0985 -0.9902 0.0987
vn -0.1394 -0.9902 0.0002
vn -0.0985 -0.9903 -0.0984
vn 0.0000 -0.9903 -0.1392
vn 0.0985 -0.9903 -0.0984
vn 0.1394 -0.9902 0.0002
vn 0.0985 -0.9902 0.0987
usemtl Gold
s 1
f 3/1/1 12/2/1 11/3/2 4/4/2
s 2
f 4/4/2 11/3/2 13/5/3 5/6/3
s 3
f 5/6/3 13/5/3 14/7/4 6/8/4
s 4
f 6/8/4 14/7/4 15/9/5 7/10/5
s 5
f 7/10/5 15/9/5 16/11/6 8/12/6
s 6
f 8/12/6 16/11/6 17/13/7 9/14/7
s 7
f 9/14/7 17/13/7 18/15/8 10/16/8
s 8
f 10/16/8 18/15/8 12/17/1 3/18/1
s 9
f 26/19/9 10/16/9 3/18/10 19/20/10
s 10
f 25/21/11 9/14/11 10/16/9 26/19/9
s 11
f 24/22/12 8/12/12 9/14/11 25/21/11
s 12
f 23/23/13 7/10/13 8/12/12 24/22/12
s 13
f 22/24/14 6/8/14 7/10/13 23/23/13
s 14
f 21/25/15 5/6/15 6/8/14 22/24/14
s 15
f 20/26/16 4/4/16 5/6/15 21/25/15
s 16
f 19/27/10 3/1/10 4/4/16 20/26/16
s 17
f 2/28/17 11/29/18 12/30/19
s 18
f 2/31/17 13/32/20 11/29/18
s 19
f 2/33/17 14/34/21 13/32/20
s 20
f 2/35/17 15/36/22 14/34/21
s 21
f 2/37/17 16/38/23 15/36/22
s 22
f 2/39/17 17/40/24 16/38/23
s 23
f 2/41/17 18/42/25 17/40/24
s 24
f 2/43/17 12/30/19 18/42/25
s 25
f 1/44/26 19/45/27 20/46/28
s 26
f 1/47/26 20/46/28 21/48/29
s 27
f 1/49/26 21/48/29 22/50/30
s 28
f 1/51/26 22/50/30 23/52/31
s 29
f 1/53/26 23/52/31 24/54/32
s 30
f 1/55/26 24/54/32 25/56/33
s 31
f 1/57/26 25/56/33 26/58/34
s 32
f 1/59/26 26/58/34 19/45/27
