# Blender v2.80 (sub 75) OBJ File: 'MCOTMC_June2022_PoliceAndRobber_Source.blend'
# www.blender.org
mtllib sack.mtl
o sack_Cylinder.046
v 0.025013 0.226922 0.018744
v -0.086755 0.111998 0.098780
v -0.160999 0.011371 0.140715
v -0.220333 -0.045712 0.155425
v -0.252099 -0.107472 0.142307
v -0.189246 -0.263834 0.090200
v -0.111020 0.105331 0.044269
v -0.196726 0.030626 0.057714
v -0.255431 -0.011018 0.058219
v -0.286221 -0.075387 0.043652
v -0.273178 -0.172800 0.040209
v -0.214146 -0.257718 0.032213
v -0.066561 -0.318250 -0.004074
v -0.112751 0.101143 -0.016381
v -0.197805 0.047516 -0.034040
v -0.250466 0.014407 -0.048541
v -0.281662 -0.055057 -0.064104
v -0.273864 -0.168221 -0.052841
v -0.215744 -0.257935 -0.031154
v -0.090575 0.100022 -0.073425
v -0.161643 0.058937 -0.120681
v -0.204926 0.028635 -0.148774
v -0.238031 -0.049007 -0.165222
v -0.240680 -0.174152 -0.139621
v -0.193918 -0.264386 -0.090243
v -0.047645 0.102173 -0.116956
v -0.094950 0.062930 -0.186985
v -0.126962 0.029354 -0.226431
v -0.162226 -0.058378 -0.244157
v -0.178689 -0.189745 -0.207012
v -0.151935 -0.276119 -0.136175
v 0.008774 0.106866 -0.139309
v -0.009305 0.056054 -0.222846
v -0.029405 0.011681 -0.270533
v -0.067077 -0.083894 -0.288503
v -0.097345 -0.212908 -0.244782
v -0.096259 -0.291348 -0.161929
v 0.068965 0.113687 -0.137774
v 0.080260 0.037166 -0.223477
v 0.071256 -0.025613 -0.274372
v 0.033149 -0.123852 -0.292066
v -0.008881 -0.240325 -0.247242
v -0.035173 -0.307830 -0.163694
v 0.123549 0.121247 -0.113723
v 0.161772 0.009085 -0.190721
v 0.161531 -0.076935 -0.238225
v 0.123566 -0.172157 -0.254356
v 0.073378 -0.267842 -0.214062
v 0.021984 -0.323035 -0.141121
v 0.164563 0.128592 -0.071464
v 0.222915 -0.022782 -0.129400
v 0.227433 -0.131827 -0.166780
v 0.190087 -0.219830 -0.180669
v 0.136934 -0.290952 -0.150197
v 0.066620 -0.334630 -0.097628
v 0.186379 0.134210 -0.017171
v 0.255115 -0.051355 -0.047920
v 0.258453 -0.178468 -0.069981
v 0.223082 -0.257441 -0.082267
v 0.172356 -0.305947 -0.065344
v 0.091900 -0.340857 -0.039737
v 0.185953 0.137556 0.041295
v 0.253177 -0.070401 0.042278
v 0.250593 -0.207510 0.037376
v 0.217931 -0.278465 0.025749
v 0.174016 -0.310710 0.027862
v 0.093883 -0.340749 0.023791
v 0.163371 0.138367 0.095331
v 0.217423 -0.076274 0.127564
v 0.205316 -0.214748 0.138733
v 0.175582 -0.280926 0.126644
v 0.141341 -0.304483 0.115299
v 0.072171 -0.334300 0.083249
v 0.122066 0.136617 0.136853
v 0.153663 -0.069286 0.194323
v 0.129937 -0.201092 0.217971
v 0.101607 -0.265399 0.205447
v 0.079074 -0.288227 0.183381
v 0.030031 -0.322485 0.129485
v 0.068315 0.132523 0.159706
v 0.071750 -0.053085 0.231962
v 0.035757 -0.170675 0.262827
v 0.007048 -0.234478 0.250271
v -0.003195 -0.264493 0.221397
v -0.026069 -0.307117 0.155365
v 0.010086 0.126559 0.160605
v -0.016091 -0.032076 0.234768
v -0.063454 -0.129928 0.266672
v -0.093692 -0.193012 0.254309
v -0.092560 -0.236973 0.223539
v -0.087485 -0.290565 0.156930
v -0.044226 0.119428 0.139367
v -0.097449 -0.009929 0.202679
v -0.153159 -0.086301 0.228980
v -0.184715 -0.148245 0.216502
v -0.175209 -0.209877 0.189775
v -0.144787 -0.275366 0.134012
v -0.238631 -0.187318 0.125440
v -0.061539 0.353631 0.073107
v -0.085044 0.330836 -0.005139
v -0.047791 0.346744 -0.079663
v 0.032535 0.334162 -0.103828
v 0.104742 0.358335 -0.066460
v 0.130671 0.347227 0.013533
v 0.090994 0.365221 0.086310
v 0.013093 0.343901 0.112221
v -0.030293 0.346097 0.047817
v -0.045366 0.334964 -0.001755
v -0.021612 0.341749 -0.048641
v 0.028872 0.337064 -0.064067
v 0.074696 0.349067 -0.040305
v 0.090835 0.345313 0.010034
v 0.066017 0.353415 0.056154
v 0.016598 0.343212 0.072346
v 0.027243 0.277117 0.007386
v -0.044235 0.242045 0.002535
v -0.017992 0.241333 -0.047713
v 0.035983 0.244314 -0.064795
v 0.086072 0.249241 -0.038705
v 0.102936 0.253227 0.015274
v 0.076695 0.253938 0.065522
v 0.022719 0.250958 0.082604
v -0.027372 0.246031 0.056514
v -0.038454 0.159681 0.040877
v -0.032210 0.152191 -0.021043
v 0.015547 0.155565 -0.061504
v 0.076838 0.167828 -0.056806
v 0.115763 0.181796 -0.009700
v 0.109517 0.189286 0.052220
v 0.061760 0.185912 0.092682
v 0.000469 0.173649 0.087983
v -0.057526 0.206042 0.003282
v -0.025255 0.205167 -0.058511
v 0.041121 0.208833 -0.079518
v 0.102721 0.214892 -0.047434
v 0.123458 0.219795 0.018947
v 0.091187 0.220669 0.080740
v 0.024809 0.217004 0.101747
v -0.036789 0.210945 0.069663
vt 0.250000 0.625000
vt 0.125000 0.625000
vt 0.125000 0.585516
vt 0.250000 0.585516
vt 0.375000 0.625000
vt 0.375000 0.585516
vt 0.875000 0.625000
vt 0.750000 0.625000
vt 0.750000 0.585516
vt 0.875000 0.585516
vt 0.562500 0.500000
vt 0.625000 0.585516
vt 0.500000 0.585516
vt 0.937500 0.500000
vt 1.000000 0.585516
vt 0.625000 0.625000
vt 0.500000 0.625000
vt 0.812500 0.500000
vt 1.000000 0.625000
vt 0.000000 0.585516
vt 0.437500 0.500000
vt 0.187500 0.500000
vt 0.312500 0.500000
vt 0.687500 0.500000
vt 0.062500 0.500000
vt 0.625000 0.187500
vt 0.687500 0.187500
vt 0.687500 0.312500
vt 0.625000 0.312500
vt 0.687500 0.812500
vt 0.750000 0.812500
vt 0.687500 0.937500
vt 0.687500 0.687500
vt 0.750000 0.687500
vt 0.687500 0.437500
vt 0.625000 0.437500
vt 1.000000 1.000000
vt 0.875000 1.000000
vt 0.875000 1.000000
vt 0.687500 0.562500
vt 0.750000 0.562500
vt 0.750000 0.437500
vt 0.625000 0.562500
vt 0.562500 0.812500
vt 0.625000 0.812500
vt 0.562500 0.937500
vt 0.562500 0.562500
vt 0.625000 0.687500
vt 0.562500 0.687500
vt 0.750000 1.000000
vt 0.750000 1.000000
vt 0.750000 0.187500
vt 0.750000 0.312500
vt 0.687500 0.062500
vt 0.562500 0.312500
vt 0.562500 0.437500
vt 0.625000 0.062500
vt 0.562500 0.187500
vt 0.500000 0.437500
vt 0.500000 0.562500
vt 0.500000 0.812500
vt 0.500000 0.937500
vt 0.500000 0.312500
vt 0.500000 0.687500
vt 0.562500 0.062500
vt 0.500000 0.187500
vt 0.437500 0.812500
vt 0.437500 0.937500
vt 0.437500 0.312500
vt 0.437500 0.437500
vt 0.437500 0.562500
vt 0.437500 0.687500
vt 0.500000 0.062500
vt 0.437500 0.187500
vt 0.375000 0.812500
vt 0.375000 0.937500
vt 0.375000 0.562500
vt 0.375000 0.687500
vt 0.375000 0.437500
vt 0.375000 0.312500
vt 0.437500 0.062500
vt 0.375000 0.187500
vt 0.312500 0.562500
vt 0.312500 0.687500
vt 0.312500 0.437500
vt 0.312500 0.812500
vt 0.312500 0.937500
vt 0.312500 0.312500
vt 0.375000 0.062500
vt 0.312500 0.187500
vt 0.250000 0.562500
vt 0.250000 0.687500
vt 0.250000 0.437500
vt 0.250000 0.812500
vt 0.250000 0.937500
vt 0.250000 0.312500
vt 0.312500 0.062500
vt 0.250000 0.187500
vt 0.187500 0.562500
vt 0.187500 0.687500
vt 0.187500 0.437500
vt 0.187500 0.812500
vt 0.187500 0.937500
vt 0.187500 0.312500
vt 0.250000 0.062500
vt 0.187500 0.187500
vt 0.125000 0.437500
vt 0.125000 0.562500
vt 0.125000 0.687500
vt 0.125000 0.812500
vt 0.125000 0.937500
vt 0.125000 0.312500
vt 0.187500 0.062500
vt 0.125000 0.187500
vt 0.062500 0.562500
vt 0.062500 0.687500
vt 0.062500 0.437500
vt 0.062500 0.812500
vt 0.062500 0.937500
vt 0.062500 0.312500
vt 0.000000 0.562500
vt 1.000000 0.687500
vt 0.062500 0.187500
vt 0.000000 0.437500
vt 1.000000 0.562500
vt 0.000000 0.812500
vt 1.000000 0.937500
vt 0.125000 0.062500
vt 0.000000 0.687500
vt 1.000000 0.812500
vt 0.000000 0.312500
vt 1.000000 0.437500
vt 0.937500 0.562500
vt 0.937500 0.687500
vt 0.000000 0.187500
vt 1.000000 0.312500
vt 0.937500 0.812500
vt 0.937500 0.937500
vt 0.062500 0.062500
vt 1.000000 0.187500
vt 0.937500 0.437500
vt 0.937500 0.312500
vt 0.000000 0.062500
vt 0.937500 0.187500
vt 0.875000 0.812500
vt 0.875000 0.937500
vt 0.875000 0.437500
vt 0.875000 0.562500
vt 0.875000 0.687500
vt 0.875000 0.312500
vt 0.937500 0.062500
vt 0.875000 0.187500
vt 0.812500 0.437500
vt 0.812500 0.562500
vt 0.812500 0.812500
vt 0.812500 0.937500
vt 0.812500 0.687500
vt 0.812500 0.312500
vt 0.875000 0.062500
vt 0.812500 0.187500
vt 0.812500 0.062500
vt 1.000000 1.000000
vt 0.875000 1.000000
vt 0.000000 0.625000
vt 0.750000 1.000000
vt 0.625000 1.000000
vt 0.750000 0.062500
vt 0.625000 1.000000
vt 0.500000 1.000000
vt 0.500000 1.000000
vt 0.375000 1.000000
vt 0.375000 1.000000
vt 0.250000 1.000000
vt 0.250000 1.000000
vt 0.125000 1.000000
vt 0.125000 1.000000
vt 0.000000 1.000000
vt 0.000000 1.000000
vt 0.500000 1.000000
vt 0.375000 1.000000
vt 0.250000 1.000000
vt 0.000000 1.000000
vt 0.125000 1.000000
vt 0.750000 0.937500
vt 0.625000 0.937500
vt 0.625000 1.000000
vn 0.6296 0.1658 0.7590
vn -0.0986 0.1149 0.9885
vn -0.0960 0.1750 0.9799
vn 0.6260 0.2146 0.7497
vn 0.9844 0.1567 0.0803
vn 0.9753 0.2062 0.0793
vn -0.9957 -0.0242 -0.0897
vn -0.6438 -0.0309 -0.7646
vn -0.6425 0.0166 -0.7661
vn -0.9953 0.0284 -0.0929
vn 0.4726 -0.2559 -0.8433
vn 0.0805 0.0696 -0.9943
vn 0.7504 0.1503 -0.6436
vn -0.9003 -0.3064 0.3093
vn -0.7695 0.0972 0.6312
vn 0.0806 0.0172 -0.9966
vn 0.7558 0.0966 -0.6477
vn -0.8291 -0.3617 -0.4263
vn -0.7711 0.0380 0.6356
vn 0.9477 -0.1578 -0.2775
vn 0.3082 -0.1211 0.9436
vn 0.8802 -0.1018 0.4636
vn -0.2631 -0.3405 -0.9027
vn -0.4307 -0.2063 0.8786
vn -0.6469 -0.7587 -0.0764
vn -0.6392 -0.7640 0.0884
vn -0.9264 -0.3521 0.1334
vn -0.9307 -0.3208 -0.1756
vn -0.6422 0.7508 0.1543
vn -0.5866 0.6999 0.4076
vn -0.1091 0.9939 -0.0166
vn -0.5915 0.7615 0.2652
vn -0.5367 0.6486 0.5396
vn -0.9749 0.1320 0.1792
vn -0.9640 0.1832 -0.1927
vn 0.2302 0.9271 -0.2957
vn -0.0713 0.9961 -0.0513
vn 0.2347 0.9718 -0.0227
vn -0.7623 0.5849 0.2770
vn -0.6567 0.4674 0.5918
vn -0.8553 0.0263 0.5175
vn -0.7562 0.6510 -0.0656
vn -0.4728 0.8377 -0.2733
vn -0.5913 0.8024 -0.0806
vn -0.6374 0.6609 -0.3962
vn -0.5445 0.8387 0.0045
vn -0.4337 0.8723 -0.2258
vn 0.1813 0.9516 0.2481
vn -0.5709 -0.7867 0.2348
vn -0.8086 -0.4247 0.4073
vn -0.2603 -0.9655 0.0089
vn -0.8191 -0.3326 -0.4675
vn -0.8222 0.1775 -0.5408
vn -0.5914 -0.7720 -0.2329
vn -0.5680 0.1171 -0.8147
vn -0.4055 0.6136 -0.6775
vn -0.3118 0.8471 -0.4303
vn -0.6099 -0.3839 -0.6933
vn -0.2646 0.8594 -0.4375
vn -0.4809 -0.8018 -0.3548
vn -0.1066 0.8240 -0.5565
vn -0.3371 -0.4664 -0.8178
vn -0.2362 0.0092 -0.9717
vn -0.0731 0.5008 -0.8625
vn -0.0150 0.7840 -0.6206
vn -0.3339 -0.8430 -0.4217
vn 0.1422 0.7744 -0.6165
vn 0.2923 0.3328 -0.8966
vn 0.2966 0.6445 -0.7048
vn 0.1174 -0.1321 -0.9843
vn -0.0458 -0.5673 -0.8222
vn -0.1747 -0.8891 -0.4231
vn 0.6160 0.1447 -0.7743
vn 0.6053 0.4769 -0.6372
vn 0.4332 -0.2878 -0.8541
vn 0.4035 0.7183 -0.5667
vn 0.2181 -0.6729 -0.7068
vn -0.0290 -0.9327 -0.3595
vn 0.8520 -0.0319 -0.5226
vn 0.8454 0.3220 -0.4261
vn 0.6673 -0.4385 -0.6020
vn 0.6243 0.6727 -0.3972
vn 0.4129 -0.7675 -0.4904
vn 0.0800 -0.9667 -0.2429
vn 0.9689 -0.1678 -0.1818
vn 0.9719 0.2032 -0.1192
vn 0.7867 -0.5576 -0.2648
vn 0.7563 0.6396 -0.1372
vn 0.5072 -0.8357 -0.2104
vn 0.1362 -0.9862 -0.0938
vn 0.7737 -0.6247 0.1056
vn 0.9516 -0.2389 0.1936
vn 0.9655 0.1348 0.2228
vn 0.7699 0.6177 0.1602
vn 0.4880 -0.8688 0.0834
vn 0.1335 -0.9890 0.0640
vn 0.8042 -0.2381 0.5445
vn 0.8319 0.1234 0.5411
vn 0.6284 -0.6332 0.4519
vn 0.6622 0.6058 0.4409
vn 0.3669 -0.8640 0.3448
vn 0.5480 -0.1728 0.8184
vn 0.5921 0.1661 0.7885
vn 0.0752 -0.9753 0.2076
vn 0.3712 -0.5802 0.7249
vn 0.4495 0.6040 0.6581
vn 0.1723 -0.8211 0.5441
vn 0.2191 -0.0503 0.9744
vn 0.2779 0.2546 0.9263
vn -0.0284 -0.9475 0.3184
vn 0.1640 0.6123 0.7735
vn 0.0437 -0.4663 0.8835
vn -0.0700 -0.7437 0.6649
vn -0.1634 -0.9093 0.3827
vn -0.1436 0.6304 0.7629
vn -0.3043 -0.3065 0.9019
vn -0.1307 0.1180 0.9844
vn -0.0600 0.3771 0.9242
vn -0.3382 -0.6407 0.6893
vn -0.3124 -0.8657 0.3912
vn -0.6212 -0.1287 0.7730
vn -0.4404 0.3041 0.8447
vn -0.4115 0.6590 0.6296
vn -0.3525 0.5151 0.7813
vn -0.5992 -0.5278 0.6020
vn -0.4554 -0.8226 0.3404
vn -0.7025 -0.3400 0.6252
vn -0.8742 -0.3491 0.3376
vn -0.5825 -0.4001 -0.7075
vn -0.2968 -0.3705 -0.8801
vn -0.0951 0.9625 0.2542
vn -0.3617 0.9104 0.2011
vn -0.3704 0.9258 -0.0751
vn -0.3127 0.8859 -0.3427
vn -0.0406 0.9351 -0.3519
vn -0.8028 -0.3848 -0.4554
vn 0.4950 -0.3103 -0.8116
vn 0.7482 -0.2990 -0.5923
vn 0.9173 -0.2541 -0.3065
vn -0.1717 0.9700 -0.1719
vn -0.0934 0.9942 -0.0532
vn 0.0511 0.9870 -0.1526
vn -0.0692 0.9949 -0.0736
vn 0.0310 0.9970 0.0706
vn -0.0490 0.9976 -0.0494
vn -0.1918 0.9801 0.0513
vn -0.0732 0.9969 -0.0291
vn 0.8460 -0.2184 0.4865
vn 0.6282 -0.2389 0.7404
vn -0.4518 -0.2928 0.8427
vn 0.3399 -0.2327 0.9112
usemtl Black
s 4
f 121/1/1 122/2/2 138/3/3 137/4/4
s 13
f 120/5/5 121/1/1 137/4/4 136/6/6
s 104
f 116/7/7 117/8/8 133/9/9 132/10/10
s 110
f 127/11/11 134/12/12 135/13/13
s 111
f 124/14/14 139/15/15 132/10/10
s 113
f 118/16/16 119/17/17 135/13/13 134/12/12
s 132
f 125/18/18 132/10/10 133/9/9
s 134
f 122/2/2 123/19/19 139/20/15 138/3/3
s 136
f 123/19/19 116/7/7 132/10/10 139/20/15
s 139
f 117/8/8 118/16/16 134/12/12 133/9/9
s 140
f 128/21/20 135/13/13 136/6/6
s 144
f 130/22/21 137/4/4 138/3/3
s 145
f 129/23/22 136/6/6 137/4/4
s 146
f 126/24/23 133/9/9 134/12/12
s 147
f 130/22/21 138/3/3 131/25/24
s 148
f 129/23/22 137/4/4 130/22/21
s 149
f 136/6/6 129/23/22 128/21/20
s 150
f 135/13/13 128/21/20 127/11/11
s 151
f 134/12/12 127/11/11 126/24/23
s 152
f 133/9/9 126/24/23 125/18/18
s 154
f 132/10/10 125/18/18 124/14/14
s 155
f 139/15/15 124/14/14 131/25/24
s 156
f 131/25/24 138/3/3 139/20/15
s 159
f 119/17/17 120/5/5 136/6/6 135/13/13
usemtl Beige
s 1
f 19/26/25 12/27/26 11/28/27 18/29/28
s 2
f 7/30/29 2/31/30 1/32/31
s 3
f 8/33/32 3/34/33 2/31/30 7/30/29
s 5
f 18/29/28 11/28/27 10/35/34 17/36/35
s 6
f 107/37/36 115/38/37 108/39/38
s 7
f 9/40/39 4/41/40 3/34/33 8/33/32
s 8
f 10/35/34 5/42/41 4/41/40 9/40/39
s 9
f 17/36/35 10/35/34 9/40/39 16/43/42
s 10
f 20/44/43 14/45/44 1/46/31
s 11
f 22/47/45 16/43/42 15/48/46 21/49/47
s 12
f 108/39/38 115/50/37 109/51/48
s 14
f 12/27/26 6/52/49 98/53/50 11/28/27
s 15
f 13/54/51 12/27/26 19/26/25
s 16
f 24/55/52 18/29/28 17/36/35 23/56/53
s 17
f 13/57/51 19/26/25 25/58/54
s 18
f 21/49/47 15/48/46 14/45/44 20/44/43
s 19
f 25/58/54 19/26/25 18/29/28 24/55/52
s 20
f 29/59/55 23/56/53 22/47/45 28/60/56
s 21
f 26/61/57 20/44/43 1/62/31
s 22
f 30/63/58 24/55/52 23/56/53 29/59/55
s 23
f 28/60/56 22/47/45 21/49/47 27/64/59
s 24
f 13/65/51 25/58/54 31/66/60
s 25
f 27/64/59 21/49/47 20/44/43 26/61/57
s 26
f 32/67/61 26/61/57 1/68/31
s 27
f 36/69/62 30/63/58 29/59/55 35/70/63
s 28
f 34/71/64 28/60/56 27/64/59 33/72/65
s 29
f 35/70/63 29/59/55 28/60/56 34/71/64
s 30
f 31/66/60 25/58/54 24/55/52 30/63/58
s 31
f 13/73/51 31/66/60 37/74/66
s 32
f 33/72/65 27/64/59 26/61/57 32/67/61
s 33
f 38/75/67 32/67/61 1/76/31
s 34
f 40/77/68 34/71/64 33/72/65 39/78/69
s 35
f 37/74/66 31/66/60 30/63/58 36/69/62
s 36
f 41/79/70 35/70/63 34/71/64 40/77/68
s 37
f 42/80/71 36/69/62 35/70/63 41/79/70
s 38
f 39/78/69 33/72/65 32/67/61 38/75/67
s 39
f 13/81/51 37/74/66 43/82/72
s 40
f 46/83/73 40/77/68 39/78/69 45/84/74
s 41
f 43/82/72 37/74/66 36/69/62 42/80/71
s 42
f 47/85/75 41/79/70 40/77/68 46/83/73
s 43
f 44/86/76 38/75/67 1/87/31
s 44
f 48/88/77 42/80/71 41/79/70 47/85/75
s 45
f 45/84/74 39/78/69 38/75/67 44/86/76
s 46
f 13/89/51 43/82/72 49/90/78
s 47
f 52/91/79 46/83/73 45/84/74 51/92/80
s 48
f 49/90/78 43/82/72 42/80/71 48/88/77
s 49
f 53/93/81 47/85/75 46/83/73 52/91/79
s 50
f 50/94/82 44/86/76 1/95/31
s 51
f 51/92/80 45/84/74 44/86/76 50/94/82
s 52
f 54/96/83 48/88/77 47/85/75 53/93/81
s 53
f 13/97/51 49/90/78 55/98/84
s 54
f 58/99/85 52/91/79 51/92/80 57/100/86
s 55
f 59/101/87 53/93/81 52/91/79 58/99/85
s 56
f 55/98/84 49/90/78 48/88/77 54/96/83
s 57
f 56/102/88 50/94/82 1/103/31
s 58
f 57/100/86 51/92/80 50/94/82 56/102/88
s 59
f 60/104/89 54/96/83 53/93/81 59/101/87
s 60
f 13/105/51 55/98/84 61/106/90
s 61
f 61/106/90 55/98/84 54/96/83 60/104/89
s 62
f 65/107/91 59/101/87 58/99/85 64/108/92
s 63
f 64/108/92 58/99/85 57/100/86 63/109/93
s 64
f 62/110/94 56/102/88 1/111/31
s 65
f 63/109/93 57/100/86 56/102/88 62/110/94
s 66
f 66/112/95 60/104/89 59/101/87 65/107/91
s 67
f 13/113/51 61/106/90 67/114/96
s 68
f 70/115/97 64/108/92 63/109/93 69/116/98
s 69
f 67/114/96 61/106/90 60/104/89 66/112/95
s 70
f 71/117/99 65/107/91 64/108/92 70/115/97
s 71
f 68/118/100 62/110/94 1/119/31
s 72
f 69/116/98 63/109/93 62/110/94 68/118/100
s 73
f 72/120/101 66/112/95 65/107/91 71/117/99
s 74
f 76/121/102 70/115/97 69/116/98 75/122/103
s 75
f 73/123/104 67/114/96 66/112/95 72/120/101
s 76
f 77/124/105 71/117/99 70/115/97 76/125/102
s 77
f 74/126/106 68/118/100 1/127/31
s 78
f 13/128/51 67/114/96 73/123/104
s 79
f 75/129/103 69/116/98 68/118/100 74/130/106
s 80
f 78/131/107 72/120/101 71/117/99 77/132/105
s 81
f 82/133/108 76/121/102 75/122/103 81/134/109
s 82
f 79/135/110 73/123/104 72/120/101 78/136/107
s 83
f 80/137/111 74/126/106 1/138/31
s 84
f 13/139/51 73/123/104 79/140/110
s 85
f 83/141/112 77/124/105 76/125/102 82/133/108
s 86
f 81/134/109 75/129/103 74/130/106 80/137/111
s 87
f 84/142/113 78/131/107 77/132/105 83/141/112
s 88
f 13/143/51 79/140/110 85/144/114
s 89
f 85/144/114 79/135/110 78/136/107 84/142/113
s 90
f 86/145/115 80/137/111 1/146/31
s 91
f 89/147/116 83/141/112 82/133/108 88/148/117
s 92
f 88/148/117 82/133/108 81/134/109 87/149/118
s 93
f 87/149/118 81/134/109 80/137/111 86/145/115
s 94
f 90/150/119 84/142/113 83/141/112 89/147/116
s 95
f 13/151/51 85/144/114 91/152/120
s 96
f 91/152/120 85/144/114 84/142/113 90/150/119
s 97
f 95/153/121 89/147/116 88/148/117 94/154/122
s 98
f 92/155/123 86/145/115 1/156/31
s 99
f 94/154/122 88/148/117 87/149/118 93/157/124
s 100
f 96/158/125 90/150/119 89/147/116 95/153/121
s 101
f 13/159/51 91/152/120 97/160/126
s 102
f 93/157/124 87/149/118 86/145/115 92/155/123
s 103
f 97/160/126 91/152/120 90/150/119 96/158/125
s 105
f 98/53/50 96/158/125 95/153/121 5/42/41
s 106
f 13/161/51 97/160/126 6/52/49
s 107
f 6/52/49 97/160/126 96/158/125 98/53/50
s 108
f 99/162/127 100/163/128 116/7/7 123/164/19
s 109
f 101/165/129 102/166/130 118/16/16 117/8/8
s 112
f 13/167/51 6/52/49 12/27/26
s 114
f 23/56/53 17/36/35 16/43/42 22/47/45
s 115
f 94/154/122 4/41/40 5/42/41 95/153/121
s 116
f 11/28/27 98/53/50 5/42/41 10/35/34
s 117
f 110/168/131 115/169/37 111/170/132
s 118
f 111/170/132 115/171/37 112/172/133
s 119
f 112/172/133 115/173/37 113/174/134
s 120
f 113/174/134 115/175/37 114/176/135
s 121
f 114/176/135 115/177/37 107/178/36
s 122
f 100/163/136 101/165/129 117/8/8 116/7/7
s 123
f 102/166/137 103/179/138 119/17/17 118/16/16
s 124
f 103/179/138 104/180/139 120/5/5 119/17/17
s 125
f 113/174/134 105/181/140 104/180/141 112/172/133
s 126
f 107/37/36 99/182/142 106/183/143 114/176/135
s 127
f 109/51/48 101/165/144 100/163/145 108/39/38
s 128
f 112/172/133 104/180/141 103/179/146 111/170/132
s 129
f 114/176/135 106/183/143 105/181/140 113/174/134
s 130
f 108/39/38 100/163/145 99/182/142 107/37/36
s 131
f 111/170/132 103/179/146 102/166/147 110/168/131
s 133
f 110/168/131 102/166/147 101/165/144 109/51/48
s 135
f 104/180/148 105/181/149 121/1/1 120/5/5
s 137
f 106/183/150 99/162/127 123/164/19 122/2/2
s 138
f 105/181/149 106/183/151 122/2/2 121/1/1
s 141
f 15/48/46 8/33/32 7/30/29 14/45/44
s 142
f 1/184/31 2/31/30 92/155/123
s 143
f 93/157/124 3/34/33 4/41/40 94/154/122
s 153
f 14/45/44 7/30/29 1/185/31
s 157
f 16/43/42 9/40/39 8/33/32 15/48/46
s 158
f 109/51/48 115/186/37 110/168/131
s 160
f 92/155/123 2/31/30 3/34/33 93/157/124
