{
    "asset" : {
        "generator" : "Khronos glTF Blender I/O v0.9.36",
        "version" : "2.0"
    },
    "scene" : 0,
    "scenes" : [
        {
            "extras" : {
                "blenderkitUI" : {
                    "assetbar_on" : 0,
                    "turn_off" : 0
                },
                "uuid" : "39675ea5-ac78-43f1-8ca1-c067ec9d0145",
                "FBXBundleSettings" : {
                    "path" : "//Mechpilot Export\\fbx\\",
                    "mode_bundle" : 1,
                    "recent" : "{\"selection\": [\"battery\", \"fuel_canisterA\", \"fuel_canisterB\", \"liquid_canister\"], \"bundles\": [\"battery\", \"fuel_canisterA\", \"fuel_canisterB\", \"liquid_canister\"]}"
                }
            },
            "name" : "Scene",
            "nodes" : [
                3
            ]
        }
    ],
    "nodes" : [
        {
            "extras" : {},
            "mesh" : 0,
            "name" : "character_mechpilot_armLeft",
            "translation" : [
                0.20404052734375,
                0.6335563659667969,
                0
            ]
        },
        {
            "extras" : {},
            "mesh" : 1,
            "name" : "character_mechpilot_armRight",
            "translation" : [
                -0.20404052734375,
                0.6335563659667969,
                0
            ]
        },
        {
            "mesh" : 2,
            "name" : "character_mechpilot_head",
            "translation" : [
                0,
                0.7045373916625977,
                0
            ]
        },
        {
            "children" : [
                0,
                1,
                2
            ],
            "extras" : {},
            "mesh" : 3,
            "name" : "character_mechpilot_body"
        }
    ],
    "materials" : [
        {
            "name" : "Yellow",
            "pbrMetallicRoughness" : {
                "baseColorFactor" : [
                    1,
                    0.5052202939987183,
                    0.017695415765047073,
                    1
                ],
                "metallicFactor" : 0,
                "roughnessFactor" : 0.4000000059604645
            }
        },
        {
            "name" : "SkinColor_C",
            "pbrMetallicRoughness" : {
                "baseColorFactor" : [
                    1,
                    0.6008569002151489,
                    0.28965646028518677,
                    1
                ],
                "metallicFactor" : 0,
                "roughnessFactor" : 0.5
            }
        },
        {
            "name" : "Black",
            "pbrMetallicRoughness" : {
                "baseColorFactor" : [
                    0.019794002175331116,
                    0.03207586705684662,
                    0.037408243864774704,
                    1
                ],
                "metallicFactor" : 0,
                "roughnessFactor" : 0.5
            }
        },
        {
            "doubleSided" : true,
            "name" : "Mud",
            "pbrMetallicRoughness" : {
                "baseColorFactor" : [
                    0.3102657198905945,
                    0.2763698697090149,
                    0.23911909759044647,
                    1
                ],
                "metallicFactor" : 0,
                "roughnessFactor" : 0.4000000059604645
            }
        },
        {
            "name" : "Metal",
            "pbrMetallicRoughness" : {
                "baseColorFactor" : [
                    0.40126433968544006,
                    0.47849249839782715,
                    0.5173344612121582,
                    1
                ],
                "metallicFactor" : 0.20000000298023224,
                "roughnessFactor" : 0.30000001192092896
            }
        }
    ],
    "meshes" : [
        {
            "name" : "Cube.708",
            "primitives" : [
                {
                    "attributes" : {
                        "POSITION" : 0,
                        "NORMAL" : 1,
                        "TEXCOORD_0" : 2
                    },
                    "indices" : 3,
                    "material" : 0
                },
                {
                    "attributes" : {
                        "POSITION" : 4,
                        "NORMAL" : 5,
                        "TEXCOORD_0" : 6
                    },
                    "indices" : 7,
                    "material" : 1
                }
            ]
        },
        {
            "name" : "Cube.709",
            "primitives" : [
                {
                    "attributes" : {
                        "POSITION" : 8,
                        "NORMAL" : 9,
                        "TEXCOORD_0" : 10
                    },
                    "indices" : 11,
                    "material" : 0
                },
                {
                    "attributes" : {
                        "POSITION" : 12,
                        "NORMAL" : 13,
                        "TEXCOORD_0" : 14
                    },
                    "indices" : 15,
                    "material" : 1
                }
            ]
        },
        {
            "name" : "Cube.707",
            "primitives" : [
                {
                    "attributes" : {
                        "POSITION" : 16,
                        "NORMAL" : 17,
                        "TEXCOORD_0" : 18
                    },
                    "indices" : 19,
                    "material" : 2
                },
                {
                    "attributes" : {
                        "POSITION" : 20,
                        "NORMAL" : 21,
                        "TEXCOORD_0" : 22
                    },
                    "indices" : 23,
                    "material" : 1
                }
            ]
        },
        {
            "name" : "Cube.710",
            "primitives" : [
                {
                    "attributes" : {
                        "POSITION" : 24,
                        "NORMAL" : 25,
                        "TEXCOORD_0" : 26
                    },
                    "indices" : 27,
                    "material" : 3
                },
                {
                    "attributes" : {
                        "POSITION" : 28,
                        "NORMAL" : 29,
                        "TEXCOORD_0" : 30
                    },
                    "indices" : 31,
                    "material" : 0
                },
                {
                    "attributes" : {
                        "POSITION" : 32,
                        "NORMAL" : 33,
                        "TEXCOORD_0" : 34
                    },
                    "indices" : 35,
                    "material" : 4
                },
                {
                    "attributes" : {
                        "POSITION" : 36,
                        "NORMAL" : 37,
                        "TEXCOORD_0" : 38
                    },
                    "indices" : 39,
                    "material" : 1
                },
                {
                    "attributes" : {
                        "POSITION" : 40,
                        "NORMAL" : 41,
                        "TEXCOORD_0" : 42
                    },
                    "indices" : 43,
                    "material" : 2
                },
                {
                    "attributes" : {
                        "POSITION" : 44,
                        "NORMAL" : 45,
                        "TEXCOORD_0" : 46
                    },
                    "indices" : 47,
                    "material" : 0
                }
            ]
        }
    ],
    "accessors" : [
        {
            "bufferView" : 0,
            "componentType" : 5126,
            "count" : 178,
            "max" : [
                0.2621387243270874,
                0.09418356418609619,
                0.10582227259874344
            ],
            "min" : [
                -0.11533478647470474,
                -0.28512105345726013,
                -0.10582230240106583
            ],
            "type" : "VEC3"
        },
        {
            "bufferView" : 1,
            "componentType" : 5126,
            "count" : 178,
            "type" : "VEC3"
        },
        {
            "bufferView" : 2,
            "componentType" : 5126,
            "count" : 178,
            "type" : "VEC2"
        },
        {
            "bufferView" : 3,
            "componentType" : 5123,
            "count" : 555,
            "type" : "SCALAR"
        },
        {
            "bufferView" : 4,
            "componentType" : 5126,
            "count" : 113,
            "max" : [
                0.2613615393638611,
                -0.2663407623767853,
                0.0905192568898201
            ],
            "min" : [
                0.12348072230815887,
                -0.47665560245513916,
                -0.09051919728517532
            ],
            "type" : "VEC3"
        },
        {
            "bufferView" : 5,
            "componentType" : 5126,
            "count" : 113,
            "type" : "VEC3"
        },
        {
            "bufferView" : 6,
            "componentType" : 5126,
            "count" : 113,
            "type" : "VEC2"
        },
        {
            "bufferView" : 7,
            "componentType" : 5123,
            "count" : 489,
            "type" : "SCALAR"
        },
        {
            "bufferView" : 8,
            "componentType" : 5126,
            "count" : 178,
            "max" : [
                0.11533478647470474,
                0.09418356418609619,
                0.10582227259874344
            ],
            "min" : [
                -0.2621387243270874,
                -0.28512105345726013,
                -0.10582230240106583
            ],
            "type" : "VEC3"
        },
        {
            "bufferView" : 9,
            "componentType" : 5126,
            "count" : 178,
            "type" : "VEC3"
        },
        {
            "bufferView" : 10,
            "componentType" : 5126,
            "count" : 178,
            "type" : "VEC2"
        },
        {
            "bufferView" : 11,
            "componentType" : 5123,
            "count" : 555,
            "type" : "SCALAR"
        },
        {
            "bufferView" : 12,
            "componentType" : 5126,
            "count" : 113,
            "max" : [
                -0.12348072230815887,
                -0.2663407623767853,
                0.0905192568898201
            ],
            "min" : [
                -0.2613615393638611,
                -0.47665560245513916,
                -0.09051919728517532
            ],
            "type" : "VEC3"
        },
        {
            "bufferView" : 13,
            "componentType" : 5126,
            "count" : 113,
            "type" : "VEC3"
        },
        {
            "bufferView" : 14,
            "componentType" : 5126,
            "count" : 113,
            "type" : "VEC2"
        },
        {
            "bufferView" : 15,
            "componentType" : 5123,
            "count" : 489,
            "type" : "SCALAR"
        },
        {
            "bufferView" : 16,
            "componentType" : 5126,
            "count" : 1127,
            "max" : [
                0.6018468141555786,
                1.1496188640594482,
                0.5418456196784973
            ],
            "min" : [
                -0.6018468141555786,
                -0.10039305686950684,
                -0.5507819652557373
            ],
            "type" : "VEC3"
        },
        {
            "bufferView" : 17,
            "componentType" : 5126,
            "count" : 1127,
            "type" : "VEC3"
        },
        {
            "bufferView" : 18,
            "componentType" : 5126,
            "count" : 1127,
            "type" : "VEC2"
        },
        {
            "bufferView" : 19,
            "componentType" : 5123,
            "count" : 4620,
            "type" : "SCALAR"
        },
        {
            "bufferView" : 20,
            "componentType" : 5126,
            "count" : 714,
            "max" : [
                0.5877276062965393,
                0.9703007936477661,
                0.5794005393981934
            ],
            "min" : [
                -0.5877274870872498,
                0,
                -0.49049949645996094
            ],
            "type" : "VEC3"
        },
        {
            "bufferView" : 21,
            "componentType" : 5126,
            "count" : 714,
            "type" : "VEC3"
        },
        {
            "bufferView" : 22,
            "componentType" : 5126,
            "count" : 714,
            "type" : "VEC2"
        },
        {
            "bufferView" : 23,
            "componentType" : 5123,
            "count" : 2904,
            "type" : "SCALAR"
        },
        {
            "bufferView" : 24,
            "componentType" : 5126,
            "count" : 534,
            "max" : [
                0.3453267812728882,
                0.7255613207817078,
                0.3940548598766327
            ],
            "min" : [
                -0.3453267812728882,
                5.4467288457260565e-09,
                -0.3660235106945038
            ],
            "type" : "VEC3"
        },
        {
            "bufferView" : 25,
            "componentType" : 5126,
            "count" : 534,
            "type" : "VEC3"
        },
        {
            "bufferView" : 26,
            "componentType" : 5126,
            "count" : 534,
            "type" : "VEC2"
        },
        {
            "bufferView" : 27,
            "componentType" : 5123,
            "count" : 1500,
            "type" : "SCALAR"
        },
        {
            "bufferView" : 28,
            "componentType" : 5126,
            "count" : 169,
            "max" : [
                0.31810495257377625,
                0.6894232630729675,
                0.33807381987571716
            ],
            "min" : [
                -0.31810498237609863,
                0.3467210531234741,
                -0.33807381987571716
            ],
            "type" : "VEC3"
        },
        {
            "bufferView" : 29,
            "componentType" : 5126,
            "count" : 169,
            "type" : "VEC3"
        },
        {
            "bufferView" : 30,
            "componentType" : 5126,
            "count" : 169,
            "type" : "VEC2"
        },
        {
            "bufferView" : 31,
            "componentType" : 5123,
            "count" : 366,
            "type" : "SCALAR"
        },
        {
            "bufferView" : 32,
            "componentType" : 5126,
            "count" : 136,
            "max" : [
                0.30159854888916016,
                0.6310333609580994,
                0.31133711338043213
            ],
            "min" : [
                -0.30159854888916016,
                0.28917035460472107,
                0.1908857822418213
            ],
            "type" : "VEC3"
        },
        {
            "bufferView" : 33,
            "componentType" : 5126,
            "count" : 136,
            "type" : "VEC3"
        },
        {
            "bufferView" : 34,
            "componentType" : 5126,
            "count" : 136,
            "type" : "VEC2"
        },
        {
            "bufferView" : 35,
            "componentType" : 5123,
            "count" : 351,
            "type" : "SCALAR"
        },
        {
            "bufferView" : 36,
            "componentType" : 5126,
            "count" : 51,
            "max" : [
                0.09140753000974655,
                0.7255613207817078,
                0.21428754925727844
            ],
            "min" : [
                -0.09140753000974655,
                0.6244809031486511,
                -0.17499983310699463
            ],
            "type" : "VEC3"
        },
        {
            "bufferView" : 37,
            "componentType" : 5126,
            "count" : 51,
            "type" : "VEC3"
        },
        {
            "bufferView" : 38,
            "componentType" : 5126,
            "count" : 51,
            "type" : "VEC2"
        },
        {
            "bufferView" : 39,
            "componentType" : 5123,
            "count" : 138,
            "type" : "SCALAR"
        },
        {
            "bufferView" : 40,
            "componentType" : 5126,
            "count" : 22,
            "max" : [
                0.24655549228191376,
                0.6310333609580994,
                0.28966784477233887
            ],
            "min" : [
                0.12669704854488373,
                0.5094907879829407,
                0.20357570052146912
            ],
            "type" : "VEC3"
        },
        {
            "bufferView" : 41,
            "componentType" : 5126,
            "count" : 22,
            "type" : "VEC3"
        },
        {
            "bufferView" : 42,
            "componentType" : 5126,
            "count" : 22,
            "type" : "VEC2"
        },
        {
            "bufferView" : 43,
            "componentType" : 5123,
            "count" : 60,
            "type" : "SCALAR"
        },
        {
            "bufferView" : 44,
            "componentType" : 5126,
            "count" : 16,
            "max" : [
                0.23969435691833496,
                0.6236116290092468,
                0.28918373584747314
            ],
            "min" : [
                0.14289385080337524,
                0.5254485607147217,
                0.21957141160964966
            ],
            "type" : "VEC3"
        },
        {
            "bufferView" : 45,
            "componentType" : 5126,
            "count" : 16,
            "type" : "VEC3"
        },
        {
            "bufferView" : 46,
            "componentType" : 5126,
            "count" : 16,
            "type" : "VEC2"
        },
        {
            "bufferView" : 47,
            "componentType" : 5123,
            "count" : 21,
            "type" : "SCALAR"
        }
    ],
    "bufferViews" : [
        {
            "buffer" : 0,
            "byteLength" : 2136,
            "byteOffset" : 0
        },
        {
            "buffer" : 0,
            "byteLength" : 2136,
            "byteOffset" : 2136
        },
        {
            "buffer" : 0,
            "byteLength" : 1424,
            "byteOffset" : 4272
        },
        {
            "buffer" : 0,
            "byteLength" : 1110,
            "byteOffset" : 5696
        },
        {
            "buffer" : 0,
            "byteLength" : 1356,
            "byteOffset" : 6808
        },
        {
            "buffer" : 0,
            "byteLength" : 1356,
            "byteOffset" : 8164
        },
        {
            "buffer" : 0,
            "byteLength" : 904,
            "byteOffset" : 9520
        },
        {
            "buffer" : 0,
            "byteLength" : 978,
            "byteOffset" : 10424
        },
        {
            "buffer" : 0,
            "byteLength" : 2136,
            "byteOffset" : 11404
        },
        {
            "buffer" : 0,
            "byteLength" : 2136,
            "byteOffset" : 13540
        },
        {
            "buffer" : 0,
            "byteLength" : 1424,
            "byteOffset" : 15676
        },
        {
            "buffer" : 0,
            "byteLength" : 1110,
            "byteOffset" : 17100
        },
        {
            "buffer" : 0,
            "byteLength" : 1356,
            "byteOffset" : 18212
        },
        {
            "buffer" : 0,
            "byteLength" : 1356,
            "byteOffset" : 19568
        },
        {
            "buffer" : 0,
            "byteLength" : 904,
            "byteOffset" : 20924
        },
        {
            "buffer" : 0,
            "byteLength" : 978,
            "byteOffset" : 21828
        },
        {
            "buffer" : 0,
            "byteLength" : 13524,
            "byteOffset" : 22808
        },
        {
            "buffer" : 0,
            "byteLength" : 13524,
            "byteOffset" : 36332
        },
        {
            "buffer" : 0,
            "byteLength" : 9016,
            "byteOffset" : 49856
        },
        {
            "buffer" : 0,
            "byteLength" : 9240,
            "byteOffset" : 58872
        },
        {
            "buffer" : 0,
            "byteLength" : 8568,
            "byteOffset" : 68112
        },
        {
            "buffer" : 0,
            "byteLength" : 8568,
            "byteOffset" : 76680
        },
        {
            "buffer" : 0,
            "byteLength" : 5712,
            "byteOffset" : 85248
        },
        {
            "buffer" : 0,
            "byteLength" : 5808,
            "byteOffset" : 90960
        },
        {
            "buffer" : 0,
            "byteLength" : 6408,
            "byteOffset" : 96768
        },
        {
            "buffer" : 0,
            "byteLength" : 6408,
            "byteOffset" : 103176
        },
        {
            "buffer" : 0,
            "byteLength" : 4272,
            "byteOffset" : 109584
        },
        {
            "buffer" : 0,
            "byteLength" : 3000,
            "byteOffset" : 113856
        },
        {
            "buffer" : 0,
            "byteLength" : 2028,
            "byteOffset" : 116856
        },
        {
            "buffer" : 0,
            "byteLength" : 2028,
            "byteOffset" : 118884
        },
        {
            "buffer" : 0,
            "byteLength" : 1352,
            "byteOffset" : 120912
        },
        {
            "buffer" : 0,
            "byteLength" : 732,
            "byteOffset" : 122264
        },
        {
            "buffer" : 0,
            "byteLength" : 1632,
            "byteOffset" : 122996
        },
        {
            "buffer" : 0,
            "byteLength" : 1632,
            "byteOffset" : 124628
        },
        {
            "buffer" : 0,
            "byteLength" : 1088,
            "byteOffset" : 126260
        },
        {
            "buffer" : 0,
            "byteLength" : 702,
            "byteOffset" : 127348
        },
        {
            "buffer" : 0,
            "byteLength" : 612,
            "byteOffset" : 128052
        },
        {
            "buffer" : 0,
            "byteLength" : 612,
            "byteOffset" : 128664
        },
        {
            "buffer" : 0,
            "byteLength" : 408,
            "byteOffset" : 129276
        },
        {
            "buffer" : 0,
            "byteLength" : 276,
            "byteOffset" : 129684
        },
        {
            "buffer" : 0,
            "byteLength" : 264,
            "byteOffset" : 129960
        },
        {
            "buffer" : 0,
            "byteLength" : 264,
            "byteOffset" : 130224
        },
        {
            "buffer" : 0,
            "byteLength" : 176,
            "byteOffset" : 130488
        },
        {
            "buffer" : 0,
            "byteLength" : 120,
            "byteOffset" : 130664
        },
        {
            "buffer" : 0,
            "byteLength" : 192,
            "byteOffset" : 130784
        },
        {
            "buffer" : 0,
            "byteLength" : 192,
            "byteOffset" : 130976
        },
        {
            "buffer" : 0,
            "byteLength" : 128,
            "byteOffset" : 131168
        },
        {
            "buffer" : 0,
            "byteLength" : 42,
            "byteOffset" : 131296
        }
    ],
    "buffers" : [
        {
            "byteLength" : 131340,
            "uri" : "data:application/octet-stream;base64,"
        }
    ]
}
