# Blender v2.80 (sub 75) OBJ File: 'MCOTMC_December2021_Samurai_Source.blend'
# www.blender.org
mtllib katana.mtl
o katana_Cube.123
v -0.011342 -0.188671 -0.019654
v 0.011342 -0.188671 -0.019654
v 0.011342 -0.188671 0.019636
v -0.011342 -0.188671 0.019636
v -0.020023 -0.215801 -0.041396
v 0.020023 -0.215801 -0.041396
v 0.020023 -0.215801 0.041379
v -0.020023 -0.215801 0.041379
v 0.000000 -0.236764 -0.000009
v -0.019521 -0.188671 -0.011279
v -0.015814 0.135267 -0.031819
v 0.015814 0.135267 -0.031819
v 0.019521 -0.188671 -0.011279
v 0.019521 -0.188671 0.011262
v 0.015814 0.135267 0.031801
v -0.015814 0.135267 0.031802
v -0.019521 -0.188671 0.011262
v -0.034513 -0.215801 -0.023788
v 0.034513 -0.215801 -0.023788
v 0.034513 -0.215801 0.023771
v -0.034513 -0.215801 0.023771
v -0.019104 -0.226048 0.033081
v -0.019104 -0.226048 -0.033098
v 0.019104 -0.226048 -0.033099
v 0.019104 -0.226048 0.033081
v 0.032035 -0.226048 0.018487
v 0.032035 -0.226048 -0.018504
v -0.032035 -0.226048 -0.018504
v -0.032035 -0.226048 0.018487
v -0.027390 0.135267 0.018357
v 0.027390 0.135267 0.018357
v 0.027390 0.135267 -0.018374
v -0.027390 0.135267 -0.018374
v -0.000000 0.157742 0.051435
v -0.000000 1.288687 -0.054482
v 0.011662 0.158863 -0.049741
v -0.011663 0.158863 -0.049741
v -0.011663 1.076652 -0.051338
v 0.011662 1.076652 -0.051338
v -0.000000 1.076822 0.050336
v -0.000000 1.228032 -0.004472
v -0.000000 1.196390 0.016376
v -0.000000 1.156800 0.034153
v -0.000000 1.115408 0.046070
v 0.011662 0.158314 0.000770
v -0.011663 0.158314 0.000770
v -0.005831 1.076737 -0.000501
v 0.005831 1.076737 -0.000501
v -0.000000 0.162650 -0.000008
v -0.044669 0.135267 0.089849
v -0.077370 0.135267 0.051871
v 0.044669 0.135267 0.089848
v 0.077370 0.135267 0.051871
v 0.077370 0.135267 -0.051885
v 0.044669 0.135267 -0.089863
v -0.044669 0.135267 -0.089863
v -0.077370 0.135267 -0.051885
v -0.044669 0.162650 0.089849
v -0.077370 0.162650 0.051871
v 0.044669 0.162650 0.089848
v 0.077370 0.162650 0.051871
v 0.077370 0.162650 -0.051885
v 0.044669 0.162650 -0.089863
v -0.044669 0.162650 -0.089863
v -0.077370 0.162650 -0.051885
v 0.085384 0.148958 0.057245
v 0.085384 0.148958 -0.057259
v 0.049296 0.148958 0.099156
v -0.085384 0.148958 -0.057259
v -0.085384 0.148958 0.057245
v 0.049296 0.148958 -0.099170
v -0.049296 0.148958 -0.099170
v -0.049296 0.148958 0.099157
v -0.014830 -0.039680 0.029136
v -0.014830 0.045707 0.029136
v 0.014830 -0.125067 0.029136
v 0.014830 -0.039680 0.029136
v 0.014830 0.045707 0.029136
v 0.025686 -0.146414 0.016818
v 0.025686 -0.103721 0.016818
v 0.025686 -0.061027 0.016818
v 0.025686 -0.018333 0.016818
v 0.025686 0.024360 0.016818
v 0.025686 0.067054 0.016818
v 0.029659 -0.146414 -0.000009
v 0.029659 -0.103721 -0.000009
v 0.029659 -0.061027 -0.000009
v 0.029659 -0.018333 -0.000009
v 0.029659 0.024360 -0.000009
v 0.029659 0.067054 -0.000009
v 0.025686 -0.146414 -0.016836
v 0.025686 -0.103721 -0.016836
v 0.025686 -0.061027 -0.016836
v 0.025686 -0.018333 -0.016836
v 0.025686 0.024360 -0.016836
v 0.025686 0.067054 -0.016836
v 0.014830 -0.125067 -0.029154
v 0.014830 -0.039680 -0.029154
v 0.014830 0.045707 -0.029154
v -0.014830 -0.125067 0.029136
v -0.025686 0.067054 0.016818
v -0.025686 0.024360 0.016818
v -0.025686 -0.018333 0.016818
v -0.025686 -0.061027 0.016818
v -0.025686 -0.103721 0.016818
v -0.025686 -0.146414 0.016818
v -0.029659 0.067054 -0.000009
v -0.029659 0.024360 -0.000009
v -0.029659 -0.018333 -0.000009
v -0.029659 -0.061027 -0.000009
v -0.029659 -0.103721 -0.000009
v -0.029659 -0.146414 -0.000009
v -0.025686 0.067054 -0.016836
v -0.025686 0.024360 -0.016836
v -0.025686 -0.018333 -0.016836
v -0.025686 -0.061027 -0.016836
v -0.025686 -0.103721 -0.016836
v -0.025686 -0.146414 -0.016836
v -0.014830 0.045707 -0.029154
v -0.014830 -0.039680 -0.029154
v -0.014830 -0.125067 -0.029154
v 0.017234 -0.196596 -0.037347
v 0.031314 -0.196772 -0.021497
v 0.031314 0.139494 -0.021498
v 0.017234 0.139318 -0.037347
v 0.036377 -0.196732 -0.000009
v 0.036377 0.139454 -0.000009
v 0.031314 -0.196772 0.021480
v 0.031314 0.139494 0.021480
v 0.032799 0.024360 0.023513
v 0.032799 -0.018333 0.023513
v 0.017234 -0.196596 0.037329
v 0.017234 0.139318 0.037329
v -0.017234 -0.196596 0.037329
v -0.017234 0.139318 0.037329
v -0.031314 -0.196772 0.021480
v -0.031314 0.139494 0.021480
v 0.032799 -0.061027 -0.023530
v 0.032799 -0.103721 -0.023530
v -0.036377 -0.196732 -0.000009
v -0.036377 0.139454 -0.000009
v 0.032799 0.067054 -0.023530
v -0.031314 -0.196772 -0.021497
v -0.031314 0.139494 -0.021497
v -0.017234 -0.196596 -0.037347
v -0.017234 0.139318 -0.037347
v 0.016799 -0.125067 -0.040210
v 0.032799 -0.146414 -0.023530
v 0.038471 -0.146414 -0.000009
v 0.032799 -0.061027 0.023513
v 0.032799 -0.103721 0.023513
v 0.032799 -0.146414 0.023513
v 0.032799 0.067054 0.023513
v 0.016799 -0.125067 0.040193
v 0.038471 -0.061027 -0.000009
v 0.038471 -0.103721 -0.000009
v 0.038471 0.024360 -0.000009
v 0.038471 -0.018333 -0.000009
v 0.038471 0.067054 -0.000009
v -0.032799 -0.146414 0.023513
v 0.032799 0.024360 -0.023530
v 0.032799 -0.018333 -0.023530
v -0.038471 -0.146414 -0.000009
v -0.032799 -0.146414 -0.023530
v -0.016799 -0.039680 -0.040210
v 0.016799 -0.039680 -0.040210
v 0.016799 0.045707 -0.040210
v -0.032799 -0.061027 -0.023530
v -0.016799 -0.125067 -0.040210
v -0.016799 -0.125067 0.040193
v -0.016799 0.045707 -0.040210
v -0.032799 -0.103721 -0.023530
v -0.032799 0.024360 -0.023530
v -0.032799 -0.018333 -0.023530
v -0.032799 0.067054 -0.023530
v -0.038471 -0.061027 -0.000009
v -0.038471 -0.103721 -0.000009
v -0.038471 0.024360 -0.000009
v -0.038471 -0.018333 -0.000009
v -0.038471 0.067054 -0.000009
v -0.032799 -0.061027 0.023513
v -0.032799 -0.103721 0.023513
v -0.032799 0.024360 0.023513
v -0.032799 -0.018333 0.023513
v -0.032799 0.067054 0.023513
v 0.016799 0.045707 0.040193
v -0.016799 -0.039680 0.040193
v 0.016799 -0.039680 0.040193
v -0.016799 0.045707 0.040193
vt 0.500000 0.000000
vt 0.625000 0.250000
vt 0.500000 0.250000
vt 0.605769 0.500000
vt 0.625000 0.500000
vt 0.605769 0.625000
vt 0.605955 0.875000
vt 0.625000 0.879754
vt 0.625000 1.000000
vt 0.855769 0.500000
vt 0.875000 0.750000
vt 0.855769 0.750000
vt 0.605769 1.000000
vt 0.375000 1.000000
vt 0.375000 0.875000
vt 0.605769 0.750000
vt 0.375000 0.750000
vt 0.375000 0.625000
vt 0.375000 0.500000
vt 0.375000 0.000000
vt 0.375000 0.250000
vt 0.625000 0.620246
vt 0.625000 0.500000
vt 0.625000 0.750000
vt 0.614348 0.740123
vt 0.621544 0.711996
vt 0.624294 0.669901
vt 0.624294 0.830099
vt 0.621544 0.788004
vt 0.614348 0.759877
vt 0.606510 0.750000
vt 0.666667 1.000000
vt 0.833333 1.000000
vt 0.833333 1.000000
vt 0.666667 1.000000
vt 0.916667 0.750000
vt 0.833333 0.750000
vt 0.833333 1.000000
vt 0.916667 1.000000
vt 0.916667 1.000000
vt 0.083333 1.000000
vt 0.083333 1.000000
vt 0.416667 0.750000
vt 0.333333 0.750000
vt 0.333333 1.000000
vt 0.416667 1.000000
vt 0.666667 0.750000
vt 0.666667 1.000000
vt 0.916667 1.000000
vt 0.083333 1.000000
vt 0.166667 1.000000
vt 0.166667 1.000000
vt 0.583333 1.000000
vt 0.583333 1.000000
vt 0.416667 1.000000
vt 0.333333 1.000000
vt 0.333333 1.000000
vt 0.333333 1.000000
vt 0.416667 1.000000
vt 0.166667 0.750000
vt 0.166667 1.000000
vt 0.666667 1.000000
vt 0.833333 1.000000
vt 0.083333 1.000000
vt 0.416667 1.000000
vt 0.583333 1.000000
vt 0.583333 0.750000
vt 0.166667 1.000000
vt 0.583333 1.000000
vt 0.916667 1.000000
vt 0.083333 0.750000
vt 0.916667 0.750000
vt 0.833333 0.750000
vt 0.000000 0.000000
vt 0.000000 0.000000
vt 0.000000 0.000000
vt 0.666667 0.750000
vt 0.000000 0.000000
vt 0.166667 0.750000
vt 0.083333 0.750000
vt 0.000000 0.000000
vt 0.583333 0.750000
vt 0.000000 0.000000
vt 0.416667 0.750000
vt 0.583333 0.750000
vt 0.583333 0.750000
vt 0.416667 0.750000
vt 0.333333 0.750000
vt 0.333333 0.750000
vt 0.916667 0.750000
vt 0.083333 0.750000
vt 0.083333 0.750000
vt 0.916667 0.750000
vt 0.666667 0.750000
vt 0.833333 0.750000
vt 0.833333 0.750000
vt 0.666667 0.750000
vt 0.166667 0.750000
vt 0.166667 0.750000
vt 0.000000 0.000000
vt 0.333333 0.750000
vt 0.416667 0.750000
vt 0.000000 0.000000
vt 0.000000 0.000000
vt 0.583333 0.687500
vt 0.666667 0.750000
vt 0.666667 0.750000
vt 0.583333 0.687500
vt 0.250000 0.687500
vt 0.166667 0.687500
vt 0.166667 0.687500
vt 0.250000 0.687500
vt 0.833333 0.812500
vt 0.750000 0.812500
vt 0.750000 0.812500
vt 0.833333 0.812500
vt 0.916667 0.750000
vt 0.833333 0.687500
vt 0.833333 0.687500
vt 0.916667 0.750000
vt 0.333333 0.875000
vt 0.416667 0.875000
vt 0.416667 0.875000
vt 0.333333 0.875000
vt 0.166667 0.625000
vt 0.250000 0.625000
vt 0.250000 0.625000
vt 0.166667 0.625000
vt 0.750000 0.750000
vt 0.833333 0.750000
vt 0.833333 0.750000
vt 0.750000 0.750000
vt 0.083333 0.687500
vt 0.083333 0.687500
vt 0.666667 0.812500
vt 0.583333 0.812500
vt 0.583333 0.812500
vt 0.666667 0.812500
vt 0.250000 0.562500
vt 0.166667 0.562500
vt 0.166667 0.562500
vt 0.250000 0.562500
vt 0.916667 0.875000
vt 0.916667 0.875000
vt 0.333333 0.750000
vt 0.416667 0.750000
vt 0.416667 0.750000
vt 0.333333 0.750000
vt 0.250000 0.875000
vt 0.250000 0.875000
vt 0.666667 0.875000
vt 0.666667 0.875000
vt 0.666667 0.687500
vt 0.666667 0.687500
vt 0.166667 0.812500
vt 0.083333 0.812500
vt 0.083333 0.812500
vt 0.166667 0.812500
vt 0.333333 0.812500
vt 0.250000 0.812500
vt 0.250000 0.812500
vt 0.333333 0.812500
vt 0.833333 0.562500
vt 0.750000 0.562500
vt 0.750000 0.562500
vt 0.833333 0.562500
vt 0.166667 0.875000
vt 0.166667 0.875000
vt 0.416667 0.625000
vt 0.333333 0.562500
vt 0.333333 0.562500
vt 0.416667 0.625000
vt 0.250000 0.750000
vt 0.250000 0.750000
vt 0.750000 0.625000
vt 0.833333 0.625000
vt 0.833333 0.625000
vt 0.750000 0.625000
vt 0.833333 0.875000
vt 0.833333 0.875000
vt 0.666667 0.562500
vt 0.583333 0.562500
vt 0.583333 0.562500
vt 0.666667 0.562500
vt 0.333333 0.687500
vt 0.333333 0.687500
vt 0.750000 0.687500
vt 0.750000 0.687500
vt 0.166667 0.750000
vt 0.166667 0.750000
vt 0.750000 0.875000
vt 0.750000 0.875000
vt 0.333333 0.625000
vt 0.333333 0.625000
vt 0.916667 0.625000
vt 0.916667 0.625000
vt 0.083333 0.562500
vt 0.083333 0.562500
vt 0.666667 0.625000
vt 0.666667 0.625000
vt 0.833333 0.500000
vt 0.750000 0.500000
vt 0.583333 0.625000
vt 0.370000 0.457846
vt 0.130000 0.457846
vt 0.042154 0.370000
vt 0.010000 0.250000
vt 0.042154 0.130000
vt 0.130000 0.042154
vt 0.370000 0.042154
vt 0.457846 0.130000
vt 0.490000 0.250000
vt 0.457846 0.370000
vt 0.333333 0.500000
vt 0.250000 0.500000
vt 0.870000 0.457846
vt 0.957846 0.370000
vt 0.990000 0.250000
vt 0.957846 0.130000
vt 0.870000 0.042154
vt 0.630000 0.042154
vt 0.542154 0.130000
vt 0.510000 0.250000
vt 0.542154 0.370000
vt 0.630000 0.457846
vt 0.916667 0.687500
vt 0.583333 0.875000
vt 0.583333 1.000000
vt 0.416667 1.000000
vt 0.083333 0.875000
vt 0.083333 1.000000
vt 0.916667 1.000000
vt 0.166667 1.000000
vt 0.416667 0.687500
vt 0.416667 0.812500
vt 0.250000 1.000000
vt 0.416667 0.500000
vt 0.416667 0.562500
vt 0.583333 0.750000
vt 0.333333 1.000000
vt 0.916667 0.812500
vt 0.666667 0.500000
vt 0.583333 0.500000
vt 0.666667 1.000000
vt 0.750000 1.000000
vt 0.833333 1.000000
vt 0.916667 0.500000
vt 0.916667 0.562500
vt 0.166667 0.500000
vt 0.083333 0.500000
vt 0.083333 0.625000
vt 0.083333 0.750000
vn 0.0000 -0.9999 -0.0111
vn 0.0000 -0.9999 -0.0113
vn 0.9959 0.0298 0.0857
vn 0.9964 0.0455 0.0711
vn 0.9939 0.0211 0.1078
vn -0.9939 0.0211 0.1078
vn -0.9979 0.0398 0.0505
vn -0.9964 0.0455 0.0711
vn -0.0000 -0.0082 -1.0000
vn -0.0000 -0.0148 -0.9999
vn -0.9959 0.0298 0.0857
vn -0.9983 0.0033 0.0575
vn -0.9934 0.0033 0.1143
vn 0.9897 0.0078 0.1429
vn 0.9855 0.0033 0.1699
vn 0.9934 0.0033 0.1143
vn -0.9855 0.0033 0.1699
vn -0.9897 0.0078 0.1429
vn 0.9983 0.0033 0.0575
vn 0.0000 -0.9999 -0.0109
vn 0.9979 0.0398 0.0505
vn -0.0000 -0.0017 -1.0000
vn 0.9942 0.0235 0.1050
vn 0.9956 0.0351 0.0865
vn 0.9971 0.0394 0.0648
vn -0.9971 0.0394 0.0648
vn -0.9956 0.0351 0.0865
vn -0.9942 0.0235 0.1050
vn 0.0713 -0.8684 -0.4907
vn -0.0713 -0.8684 -0.4907
vn -0.0000 -0.6293 -0.7771
vn -0.7409 -0.0341 -0.6708
vn -0.4890 0.4656 -0.7376
vn -0.9002 0.3005 -0.3153
vn -0.7555 0.5744 -0.3152
vn -0.7555 0.5744 0.3152
vn -0.9002 0.3005 0.3153
vn 0.7409 -0.0341 0.6708
vn 0.4890 0.4656 0.7376
vn 0.9002 0.3005 0.3153
vn 0.0000 -0.0375 -0.9993
vn -0.9720 -0.2350 0.0000
vn -0.2596 -0.9598 0.1064
vn -0.0000 -1.0000 0.0000
vn -0.0713 -0.8684 0.4907
vn 0.2596 -0.9598 -0.1064
vn 0.2596 -0.9598 0.1064
vn 0.0713 -0.8684 0.4907
vn 0.3107 0.6473 0.6961
vn 0.7555 0.5744 0.3152
vn -0.3107 0.6473 -0.6961
vn 0.0000 -0.0375 0.9993
vn 0.4890 0.4656 -0.7376
vn 0.3107 0.6473 -0.6961
vn -0.2596 -0.9598 -0.1064
vn 0.6655 -0.4858 0.5667
vn 0.9997 -0.0243 0.0000
vn 0.9002 0.3005 -0.3153
vn 0.0000 -0.6293 0.7771
vn -0.4890 0.4656 0.7376
vn -0.3107 0.6473 0.6961
vn 0.6655 -0.4858 -0.5667
vn -0.6655 -0.4858 -0.5667
vn 0.9720 -0.2350 0.0000
vn 0.7555 0.5744 -0.3152
vn -0.6655 -0.4858 0.5667
vn -0.7409 -0.0341 0.6708
vn 0.7409 -0.0341 -0.6708
vn -0.9997 -0.0243 0.0000
vn -0.0000 1.0000 -0.0000
vn 0.7644 0.5675 0.3059
vn 0.7644 0.5675 -0.3059
vn 0.7857 0.5617 -0.2594
vn 0.7856 0.5617 0.2594
vn 0.6209 0.5733 0.5346
vn -0.7644 0.5675 -0.3059
vn -0.7644 0.5675 0.3059
vn -0.7857 0.5617 0.2594
vn -0.7857 0.5617 -0.2594
vn 0.0000 0.5622 -0.8270
vn 0.6209 0.5733 -0.5346
vn 0.0000 0.5622 0.8270
vn -0.6209 0.5733 0.5346
vn -0.6209 0.5733 -0.5346
vn -0.6209 -0.5733 -0.5346
vn -0.7857 -0.5617 -0.2594
vn -0.7644 -0.5675 -0.3059
vn -0.7857 -0.5617 0.2594
vn -0.6209 -0.5733 0.5346
vn -0.7644 -0.5675 0.3059
vn 0.0000 -0.5622 0.8270
vn 0.7857 -0.5617 -0.2594
vn 0.6209 -0.5733 -0.5346
vn 0.7644 -0.5675 -0.3059
vn 0.0000 -0.5622 -0.8270
vn 0.6209 -0.5733 0.5346
vn 0.7856 -0.5617 0.2594
vn 0.7644 -0.5675 0.3059
vn 0.6718 -0.6561 -0.3438
vn 0.6718 0.6561 0.3438
vn -0.6718 -0.6561 -0.3438
vn -0.6718 0.6561 0.3438
vn 0.6718 0.6561 -0.3438
vn 0.6718 -0.6561 0.3438
vn -0.6718 -0.6561 0.3438
vn -0.6718 0.6561 -0.3438
vn 0.8797 -0.0380 -0.4740
vn 0.8501 -0.0373 -0.5253
vn 0.9992 -0.0403 -0.0000
vn 0.8513 0.0000 -0.5247
vn 1.0000 0.0000 -0.0000
vn 0.8513 0.0000 0.5247
vn 0.7217 0.0000 0.6922
vn -0.8797 -0.0380 0.4740
vn -0.8501 -0.0373 0.5253
vn -0.9992 -0.0403 0.0000
vn 0.7217 0.0000 -0.6922
vn 0.0000 0.0153 0.9999
vn 0.0000 0.0306 0.9995
vn -0.8513 0.0000 0.5247
vn -1.0000 0.0000 0.0000
vn -0.0000 0.0153 -0.9999
vn -0.0000 0.0306 -0.9995
vn -0.8523 0.0267 -0.5224
vn -0.8805 0.0270 -0.4732
vn -0.7257 0.0249 -0.6875
vn -0.7217 0.0000 0.6922
vn -0.9996 0.0280 0.0000
vn -0.7225 -0.0340 0.6906
vn -0.8523 0.0267 0.5224
vn -0.8805 0.0270 0.4732
vn 0.8797 -0.0380 0.4740
vn 0.8501 -0.0373 0.5253
vn 0.7225 -0.0340 0.6906
vn -0.7257 0.0249 0.6875
vn 0.8523 0.0267 0.5224
vn 0.8805 0.0270 0.4732
vn 0.7257 0.0249 0.6875
vn 0.9996 0.0280 -0.0000
vn 0.8523 0.0267 -0.5224
vn 0.8805 0.0270 -0.4732
vn 0.7225 -0.0340 -0.6906
vn -0.8501 -0.0373 -0.5253
vn -0.8797 -0.0380 -0.4740
vn -0.8513 0.0000 -0.5247
vn -0.7225 -0.0340 -0.6906
vn -0.7217 0.0000 -0.6922
vn 0.0000 -0.0400 -0.9992
vn -0.0000 -0.0200 -0.9998
vn -0.0000 0.0000 -1.0000
vn 0.0000 -0.0400 0.9992
vn 0.0000 -0.0200 0.9998
vn 0.0000 0.0000 1.0000
vn 0.7257 0.0249 -0.6875
vn 0.9306 0.0000 0.3659
vn 0.7502 0.0000 0.6612
vn 0.7502 0.0000 -0.6612
vn 0.9306 0.0000 -0.3659
vn -0.7502 0.0000 0.6612
vn -0.9306 0.0000 0.3659
vn -0.9306 0.0000 -0.3659
vn -0.7502 0.0000 -0.6612
usemtl Metal
s 32
f 45/1/1 34/2/2 46/3/1
s 33
f 39/4/3 35/5/4 48/6/5
s 34
f 47/7/6 41/8/7 35/9/8
s 35
f 38/10/9 35/11/10 39/12/9
s 37
f 47/7/6 38/13/11 37/14/12 46/15/13
s 38
f 48/6/5 40/16/14 34/17/15 45/18/16
s 39
f 34/17/17 40/16/18 47/7/6 46/15/13
s 40
f 36/19/19 39/4/3 48/6/5 45/18/16
s 41
f 36/20/20 45/1/1 46/3/1 37/21/20
s 42
f 47/7/6 35/9/8 38/13/11
s 43
f 48/6/5 35/5/4 41/22/21
s 68
f 37/23/22 38/10/9 39/12/9 36/24/22
s 87
f 40/16/14 48/6/5 44/25/23
s 88
f 44/25/23 48/6/5 43/26/24
s 89
f 43/26/24 48/6/5 42/27/25
s 90
f 42/27/25 48/6/5 41/22/21
s 91
f 47/7/6 42/28/26 41/8/7
s 92
f 47/7/6 43/29/27 42/28/26
s 93
f 44/30/28 43/29/27 47/7/6
s 94
f 40/31/18 44/30/28 47/7/6
usemtl Copper
s 1
f 24/32/29 23/33/30 5/34/31 6/35/31
s 2
f 33/36/32 11/37/32 1/38/33 10/39/34
s 3
f 18/40/35 21/41/36 17/42/37 10/39/34
s 4
f 31/43/38 15/44/38 3/45/39 14/46/40
s 5
f 11/37/41 12/47/41 2/48/41 1/38/41
s 6
f 28/49/42 29/50/42 21/41/42 18/40/42
s 7
f 29/50/43 9/51/44 22/52/45
s 8
f 9/53/44 27/54/46 26/55/47
s 9
f 22/52/45 9/56/44 25/57/48
s 10
f 3/45/39 7/58/49 20/59/50 14/46/40
s 11
f 1/38/33 5/34/51 18/40/35 10/39/34
s 12
f 15/44/52 16/60/52 4/61/52 3/45/52
s 13
f 27/54/46 9/62/44 24/32/29
s 14
f 24/32/29 9/63/44 23/33/30
s 15
f 5/34/51 1/38/33 2/48/53 6/35/54
s 16
f 9/64/44 29/50/43 28/49/55
s 17
f 25/57/48 9/65/44 26/55/47
s 18
f 7/58/56 25/57/56 26/55/56 20/59/56
s 19
f 31/43/57 14/46/40 13/66/58 32/67/57
s 20
f 22/52/45 25/57/48 7/58/59 8/68/59
s 21
f 7/58/49 3/45/39 4/61/60 8/68/61
s 22
f 19/69/62 27/54/62 24/32/62 6/35/62
s 23
f 23/33/30 9/70/44 28/49/55
s 24
f 5/34/63 23/33/63 28/49/63 18/40/63
s 25
f 26/55/64 27/54/64 19/69/64 20/59/64
s 26
f 13/66/58 19/69/65 6/35/54 2/48/53
s 27
f 14/46/40 20/59/50 19/69/65 13/66/58
s 28
f 17/42/37 21/41/36 8/68/61 4/61/60
s 29
f 21/41/66 29/50/66 22/52/66 8/68/66
s 30
f 16/60/67 30/71/67 17/42/37 4/61/60
s 31
f 12/47/68 32/67/68 13/66/58 2/48/53
s 36
f 30/71/69 33/36/69 10/39/34 17/42/37
s 44
f 11/37/44 33/36/44 57/72/44 56/73/44
s 45
f 49/74/70 60/75/70 61/76/70
s 46
f 12/47/44 11/37/44 56/73/44 55/77/44
s 47
f 49/74/70 58/78/70 60/75/70
s 48
f 30/71/44 16/60/44 50/79/44 51/80/44
s 49
f 49/74/70 59/81/70 58/78/70
s 50
f 32/67/44 12/47/44 55/77/44 54/82/44
s 51
f 49/74/70 65/83/70 59/81/70
s 52
f 66/84/71 67/85/72 62/86/73 61/87/74
s 53
f 68/88/75 66/84/71 61/87/74 60/89/75
s 54
f 69/90/76 70/91/77 59/92/78 65/93/79
s 55
f 71/94/80 72/95/80 64/96/80 63/97/80
s 56
f 67/85/72 71/94/81 63/97/81 62/86/73
s 57
f 73/98/82 68/88/82 60/89/82 58/99/82
s 58
f 70/91/77 73/98/83 58/99/83 59/92/78
s 59
f 72/95/84 69/90/76 65/93/79 64/96/84
s 60
f 49/74/70 61/76/70 62/100/70
s 61
f 16/60/44 15/44/44 52/101/44 50/79/44
s 62
f 33/36/44 30/71/44 51/80/44 57/72/44
s 63
f 15/44/44 31/43/44 53/102/44 52/101/44
s 64
f 49/74/70 62/100/70 63/103/70
s 65
f 49/74/70 63/103/70 64/104/70
s 66
f 49/74/70 64/104/70 65/83/70
s 67
f 31/43/44 32/67/44 54/82/44 53/102/44
s 69
f 56/73/85 57/72/86 69/90/87 72/95/85
s 70
f 51/80/88 50/79/89 73/98/89 70/91/90
s 71
f 50/79/91 52/101/91 68/88/91 73/98/91
s 72
f 54/82/92 55/77/93 71/94/93 67/85/94
s 73
f 55/77/95 56/73/95 72/95/95 71/94/95
s 74
f 57/72/86 51/80/88 70/91/90 69/90/87
s 75
f 52/101/96 53/102/97 66/84/98 68/88/96
s 76
f 53/102/97 54/82/92 67/85/94 66/84/98
usemtl RedDark
s 79
f 77/105/99 82/106/99 131/107/99 188/108/99
s 80
f 110/109/70 116/110/70 168/111/70 176/112/70
s 82
f 95/113/70 89/114/70 157/115/70 161/116/70
s 84
f 98/117/100 93/118/100 138/119/100 166/120/100
s 85
f 101/121/101 75/122/101 189/123/101 185/124/101
s 86
f 117/125/44 111/126/44 177/127/44 172/128/44
s 95
f 88/129/44 94/130/44 162/131/44 158/132/44
s 97
f 116/110/102 120/133/102 165/134/102 168/111/102
s 101
f 83/135/103 78/136/103 186/137/103 130/138/103
s 102
f 112/139/70 118/140/70 164/141/70 163/142/70
s 105
f 99/143/100 95/113/100 161/116/100 167/144/100
s 106
f 103/145/101 74/146/101 187/147/101 184/148/101
s 107
f 107/149/44 101/121/44 185/124/44 180/150/44
s 109
f 78/136/99 84/151/99 153/152/99 186/137/99
s 111
f 94/130/104 98/117/104 166/120/104 162/131/104
s 112
f 81/153/103 77/105/103 188/108/103 150/154/103
s 113
f 114/155/102 119/156/102 171/157/102 173/158/102
s 114
f 102/159/70 108/160/70 178/161/70 183/162/70
s 116
f 91/163/70 85/164/70 149/165/70 148/166/70
s 117
f 119/156/105 113/167/105 175/168/105 171/157/105
s 119
f 100/169/106 106/170/106 160/171/106 170/172/106
s 120
f 109/173/44 103/145/44 184/148/44 179/174/44
s 121
f 86/175/44 92/176/44 139/177/44 156/178/44
s 122
f 96/179/104 99/143/104 167/144/104 142/180/104
s 125
f 79/181/103 76/182/103 154/183/103 152/184/103
s 126
f 104/185/70 110/109/70 176/112/70 181/186/70
s 129
f 93/118/70 87/187/70 155/188/70 138/119/70
s 130
f 120/133/105 115/189/105 174/190/105 165/134/105
s 131
f 84/151/44 90/191/44 159/192/44 153/152/44
s 132
f 111/126/44 105/193/44 182/194/44 177/127/44
s 134
f 92/176/104 97/195/104 147/196/104 139/177/104
s 136
f 89/114/70 83/135/70 130/138/70 157/115/70
s 138
f 106/170/70 112/139/70 163/142/70 160/171/70
s 140
f 121/197/105 117/125/105 172/128/105 169/198/105
s 142
f 82/106/44 88/129/44 158/132/44 131/107/44
s 144
f 75/122/106 102/159/106 183/162/106 189/123/106
s 145
f 76/182/99 80/199/99 151/200/99 154/183/99
s 146
f 87/187/70 81/153/70 150/154/70 155/188/70
s 147
f 113/167/44 107/149/44 180/150/44 175/168/44
s 148
f 80/199/44 86/175/44 156/178/44 151/200/44
s 149
f 74/146/106 104/185/106 181/186/106 187/147/106
s 150
f 108/160/70 114/155/70 173/158/70 178/161/70
s 151
f 123/201/107 148/166/108 149/165/109 126/202/109
s 152
f 162/131/110 161/116/110 157/115/111 158/132/111
s 153
f 151/200/112 150/154/112 188/108/113 154/203/113
s 154
f 125/204/70 146/205/70 144/206/70 141/207/70 137/208/70 135/209/70 133/210/70 129/211/70 127/212/70 124/213/70
s 155
f 136/214/114 160/171/115 163/142/116 140/215/116
s 156
f 122/216/44 123/217/44 126/218/44 128/219/44 132/220/44 134/221/44 136/222/44 140/223/44 143/224/44 145/225/44
s 157
f 147/196/117 166/226/117 138/119/110 139/177/110
s 158
f 186/227/118 133/228/119 135/229/119 189/123/118
s 159
f 182/194/120 181/186/120 176/112/121 177/127/121
s 160
f 167/144/122 171/230/122 146/231/123 125/232/123
s 161
f 175/168/124 144/233/125 146/231/126 171/230/126
s 162
f 170/172/127 187/234/127 181/186/120 182/194/120
s 163
f 187/147/127 189/235/127 183/162/120 184/148/120
s 164
f 180/150/128 141/236/128 144/233/125 175/168/124
s 165
f 134/237/129 170/238/129 160/171/115 136/214/114
s 166
f 131/107/112 130/138/112 186/137/113 188/239/113
s 167
f 185/124/130 137/240/131 141/236/128 180/150/128
s 168
f 166/120/117 167/241/117 161/116/110 162/131/110
s 169
f 128/242/132 152/184/133 154/183/134 132/243/134
s 170
f 158/132/111 157/115/111 130/138/112 131/107/112
s 171
f 189/123/135 135/229/135 137/240/131 185/124/130
s 172
f 126/202/109 149/165/109 152/184/133 128/242/132
s 173
f 156/178/111 155/188/111 150/154/112 151/200/112
s 174
f 153/152/136 129/244/137 133/228/138 186/227/138
s 175
f 139/177/110 138/119/110 155/188/111 156/178/111
s 176
f 159/192/139 127/245/139 129/244/137 153/152/136
s 177
f 142/180/140 124/246/141 127/245/139 159/192/139
s 178
f 122/247/142 147/248/142 148/166/108 123/201/107
s 179
f 184/148/120 183/162/120 178/161/121 179/174/121
s 180
f 140/215/116 163/142/116 164/141/143 143/249/144
s 181
f 177/127/121 176/112/121 168/111/145 172/128/145
s 182
f 179/174/121 178/161/121 173/158/145 174/190/145
s 183
f 143/249/144 164/141/143 169/198/146 145/250/146
s 184
f 172/128/145 168/111/145 165/134/147 169/251/147
s 185
f 174/190/145 173/158/145 171/157/147 165/252/147
s 186
f 122/247/148 145/250/148 169/198/149 147/248/149
s 187
f 147/196/149 169/251/149 165/134/150 166/226/150
s 188
f 166/120/150 165/252/150 171/157/122 167/241/122
s 189
f 132/243/151 154/183/152 170/238/152 134/237/151
s 190
f 154/203/152 188/108/153 187/234/153 170/172/152
s 191
f 188/239/153 186/137/118 189/235/118 187/147/153
s 192
f 167/144/154 125/232/154 124/246/141 142/180/140
s 193
f 118/140/102 121/197/102 169/198/102 164/141/102
s 194
f 90/191/44 96/179/44 142/180/44 159/192/44
s 195
f 115/189/44 109/173/44 179/174/44 174/190/44
s 196
f 105/193/101 100/169/101 170/172/101 182/194/101
s 197
f 97/195/100 91/163/100 148/166/100 147/196/100
s 198
f 85/164/70 79/181/70 152/184/70 149/165/70
usemtl Black
s 77
f 79/181/155 80/199/155 76/182/156
s 78
f 98/117/157 94/130/158 93/118/158
s 81
f 85/164/111 86/175/111 80/199/155 79/181/155
s 83
f 74/146/159 103/145/160 104/185/160
s 96
f 97/195/157 92/176/158 91/163/158
s 98
f 89/114/111 90/191/111 84/151/155 83/135/155
s 99
f 104/185/160 103/145/160 109/173/121 110/109/121
s 100
f 102/159/160 101/121/160 107/149/121 108/160/121
s 103
f 106/170/160 105/193/160 111/126/121 112/139/121
s 104
f 75/122/159 101/121/160 102/159/160
s 108
f 100/169/159 105/193/160 106/170/160
s 110
f 83/135/155 84/151/155 78/136/156
s 115
f 81/153/155 82/106/155 77/105/156
s 118
f 87/187/111 88/129/111 82/106/155 81/153/155
s 123
f 93/118/158 94/130/158 88/129/111 87/187/111
s 124
f 95/113/158 96/179/158 90/191/111 89/114/111
s 127
f 91/163/158 92/176/158 86/175/111 85/164/111
s 128
f 99/143/157 96/179/158 95/113/158
s 133
f 112/139/121 111/126/121 117/125/161 118/140/161
s 135
f 110/109/121 109/173/121 115/189/161 116/110/161
s 137
f 108/160/121 107/149/121 113/167/161 114/155/161
s 139
f 118/140/161 117/125/161 121/197/162
s 141
f 116/110/161 115/189/161 120/133/162
s 143
f 114/155/161 113/167/161 119/156/162
