# Blender v2.80 (sub 75) OBJ File: 'MCOTMC_April2022_ContractorBuilder_Source.blend'
# www.blender.org
mtllib hammer.mtl
o hammer_Cube.129
v -0.000000 -0.361960 -0.000000
v -0.038945 -0.355204 -0.000000
v -0.000000 0.079825 -0.000000
v -0.038945 0.073070 -0.000000
v -0.031507 -0.355204 -0.027790
v -0.031507 0.073070 -0.027790
v -0.012035 -0.355204 -0.044965
v -0.012035 0.073070 -0.044965
v 0.012035 -0.355204 -0.044965
v 0.012035 0.073070 -0.044965
v 0.031507 -0.355204 -0.027790
v 0.031507 0.073070 -0.027790
v 0.038945 -0.355204 -0.000000
v 0.038945 0.073070 -0.000000
v 0.031507 -0.355204 0.027789
v 0.031507 0.073070 0.027789
v 0.012035 -0.355204 0.044965
v 0.012035 0.073070 0.044965
v -0.012035 -0.355204 0.044965
v -0.012035 0.073070 0.044965
v -0.031507 -0.355204 0.027789
v -0.031507 0.073070 0.027789
v -0.026316 0.079825 -0.000000
v -0.020066 0.079825 -0.023354
v -0.006445 0.079825 -0.035368
v 0.006445 0.079825 -0.035368
v 0.020066 0.079825 -0.023354
v 0.026316 0.079825 -0.000000
v 0.020066 0.079825 0.023353
v 0.006445 0.079825 0.035367
v -0.006445 0.079825 0.035367
v -0.020066 0.079825 0.023353
v -0.020066 -0.361960 -0.023354
v -0.026316 -0.361960 -0.000000
v -0.006445 -0.361960 -0.035368
v 0.006445 -0.361960 -0.035368
v 0.020066 -0.361960 -0.023354
v 0.026316 -0.361960 -0.000000
v 0.020066 -0.361960 0.023353
v 0.006445 -0.361960 0.035367
v -0.006445 -0.361960 0.035367
v -0.020066 -0.361960 0.023353
v -0.034069 -0.206664 -0.000000
v -0.031506 -0.141067 -0.000000
v -0.038945 -0.075471 -0.000000
v -0.031507 -0.075471 -0.027790
v -0.025489 -0.141067 -0.022482
v -0.027562 -0.206664 -0.024310
v -0.027562 -0.206664 0.024310
v -0.025489 -0.141067 0.022481
v -0.031507 -0.075471 0.027789
v -0.012035 -0.075471 -0.044965
v -0.009736 -0.141067 -0.036376
v -0.010528 -0.206664 -0.039335
v 0.012035 -0.075471 -0.044965
v 0.009736 -0.141067 -0.036376
v 0.010528 -0.206664 -0.039335
v 0.031507 -0.075471 -0.027790
v 0.025489 -0.141067 -0.022482
v 0.027562 -0.206664 -0.024310
v 0.038945 -0.075471 -0.000000
v 0.031506 -0.141067 -0.000000
v 0.034068 -0.206664 -0.000000
v 0.031507 -0.075471 0.027789
v 0.025489 -0.141067 0.022481
v 0.027562 -0.206664 0.024310
v 0.012035 -0.075471 0.044965
v 0.009736 -0.141067 0.036376
v 0.010528 -0.206664 0.039334
v -0.012035 -0.075471 0.044965
v -0.009736 -0.141067 0.036376
v -0.010528 -0.206664 0.039334
v 0.049709 -0.058373 0.155336
v 0.059877 -0.048206 0.155336
v 0.049709 -0.048206 0.165503
v 0.056899 -0.055395 0.155336
v 0.055580 -0.054076 0.161206
v 0.056899 -0.048206 0.162525
v 0.049709 -0.055395 0.162525
v 0.059877 0.048206 0.155336
v 0.049709 0.058373 0.155336
v 0.049709 0.048206 0.165503
v 0.056899 0.055395 0.155336
v 0.055580 0.054076 0.161206
v 0.049709 0.055395 0.162525
v 0.056899 0.048206 0.162525
v -0.049709 -0.058373 0.155336
v -0.049709 -0.048206 0.165503
v -0.059877 -0.048206 0.155336
v -0.049709 -0.055395 0.162525
v -0.055580 -0.054076 0.161206
v -0.056899 -0.048206 0.162525
v -0.056899 -0.055395 0.155336
v -0.049709 0.058373 0.155336
v -0.059877 0.048206 0.155336
v -0.049709 0.048206 0.165503
v -0.056899 0.055395 0.155336
v -0.055580 0.054076 0.161206
v -0.056899 0.048206 0.162525
v -0.049709 0.055395 0.162525
v 0.047837 -0.053565 -0.154371
v 0.057952 -0.041522 -0.155396
v 0.059877 -0.048206 -0.135245
v 0.049709 -0.058373 -0.135245
v 0.054785 -0.049240 -0.156159
v 0.056290 -0.053518 -0.145369
v 0.059313 -0.044864 -0.145359
v 0.056899 -0.055395 -0.135245
v 0.048773 -0.056965 -0.145059
v 0.047837 0.053565 -0.154371
v 0.049709 0.058373 -0.135245
v 0.059877 0.048206 -0.135245
v 0.057952 0.041522 -0.155396
v 0.048773 0.056965 -0.145059
v 0.056290 0.053518 -0.145369
v 0.056899 0.055395 -0.135245
v 0.059313 0.044864 -0.145359
v 0.054785 0.049240 -0.156159
v -0.049709 -0.058373 -0.135245
v -0.059877 -0.048206 -0.135245
v -0.057952 -0.041522 -0.155396
v -0.047837 -0.053565 -0.154371
v -0.056899 -0.055395 -0.135245
v -0.056290 -0.053518 -0.145369
v -0.059313 -0.044864 -0.145359
v -0.054785 -0.049240 -0.156159
v -0.048773 -0.056965 -0.145059
v -0.049709 0.058373 -0.135245
v -0.047837 0.053565 -0.154371
v -0.057952 0.041522 -0.155396
v -0.059877 0.048206 -0.135245
v -0.048773 0.056965 -0.145059
v -0.056290 0.053518 -0.145369
v -0.054785 0.049240 -0.156159
v -0.059313 0.044864 -0.145359
v -0.056899 0.055395 -0.135245
v -0.043037 0.000000 -0.232766
v -0.030322 0.004808 -0.245222
v -0.030322 -0.004808 -0.245222
v -0.038458 0.003400 -0.240849
v -0.036152 0.000000 -0.245869
v -0.029467 0.000000 -0.249657
v -0.038458 -0.003400 -0.240849
v 0.030322 0.004808 -0.245222
v 0.043037 0.000000 -0.232766
v 0.030322 -0.004808 -0.245222
v 0.038458 0.003400 -0.240849
v 0.036152 0.000000 -0.245869
v 0.038458 -0.003400 -0.240849
v 0.029467 0.000000 -0.249657
vt 0.396773 0.758740
vt 0.603227 0.758740
vt 0.603227 0.991260
vt 0.396773 0.991260
vt 0.375000 0.727022
vt 0.375000 0.522978
vt 0.375000 0.530208
vt 0.375000 0.719792
vt 0.633740 0.521226
vt 0.866260 0.521226
vt 0.866260 0.728774
vt 0.633740 0.728774
vt 0.396773 0.021226
vt 0.603227 0.021226
vt 0.603227 0.228774
vt 0.396773 0.228774
vt 0.396773 0.258740
vt 0.603227 0.258740
vt 0.603227 0.491260
vt 0.396773 0.491260
vt 0.625000 0.522978
vt 0.625000 0.727022
vt 0.625000 0.719792
vt 0.625000 0.530208
vt 0.600389 0.750000
vt 0.422558 0.750000
vt 0.600389 0.750000
vt 0.399611 0.500000
vt 0.577442 0.500000
vt 0.399611 0.500000
vt 0.133740 0.728774
vt 0.133740 0.750000
vt 0.128694 0.750000
vt 0.125000 0.728774
vt 0.396773 1.000000
vt 0.384202 1.000000
vt 0.375000 0.991260
vt 0.375000 0.021226
vt 0.375000 0.008971
vt 0.396773 0.000000
vt 0.625000 0.991260
vt 0.625000 0.996306
vt 0.603227 1.000000
vt 0.875000 0.728774
vt 0.875000 0.741029
vt 0.866260 0.750000
vt 0.603227 0.000000
vt 0.615798 0.000000
vt 0.625000 0.021226
vt 0.133740 0.521226
vt 0.125000 0.521226
vt 0.125000 0.508971
vt 0.133740 0.500000
vt 0.396773 0.250000
vt 0.384202 0.250000
vt 0.375000 0.228774
vt 0.375000 0.258740
vt 0.375000 0.253694
vt 0.866260 0.500000
vt 0.871306 0.500000
vt 0.875000 0.521226
vt 0.603227 0.250000
vt 0.615798 0.250000
vt 0.625000 0.258740
vt 0.625000 0.228774
vt 0.625000 0.241029
vt 0.375000 0.750000
vt 0.375000 0.750000
vt 0.375000 0.726819
vt 0.403929 0.750000
vt 0.385397 0.750000
vt 0.403843 0.750000
vt 0.375000 0.758740
vt 0.366260 0.728774
vt 0.375000 0.742512
vt 0.366260 0.750000
vt 0.625000 0.726819
vt 0.622410 0.748128
vt 0.625000 0.750000
vt 0.633740 0.750000
vt 0.596071 0.750000
vt 0.625000 0.758740
vt 0.366260 0.521226
vt 0.366260 0.500000
vt 0.377590 0.501872
vt 0.375000 0.523181
vt 0.403929 0.500000
vt 0.375000 0.491260
vt 0.375000 0.500000
vt 0.625000 0.523181
vt 0.625000 0.507488
vt 0.633740 0.500000
vt 0.625000 0.500000
vt 0.625000 0.500000
vt 0.596071 0.500000
vt 0.614603 0.500000
vt 0.596157 0.500000
vt 0.625000 0.491260
vt 0.401137 0.500000
vt 0.388495 0.500000
vt 0.375000 0.500000
vt 0.625000 0.530331
vt 0.625000 0.508856
vt 0.625000 0.500000
vt 0.375000 0.500000
vt 0.375000 0.530331
vt 0.625000 0.750000
vt 0.625000 0.750000
vt 0.625000 0.719669
vt 0.598863 0.750000
vt 0.611505 0.750000
vt 0.375000 0.719669
vt 0.375000 0.741144
vt 0.375000 0.750000
vt 0.100000 0.871177
vt 0.100000 0.992354
vt -0.000000 0.992354
vt -0.000000 0.871177
vt 0.800000 0.871177
vt 0.800000 0.992354
vt 0.700000 0.992354
vt 0.700000 0.871177
vt 0.600000 0.992354
vt 0.600000 0.871177
vt 0.500000 0.992354
vt 0.500000 0.871177
vt 0.400000 0.992354
vt 0.400000 0.871177
vt 0.300000 0.992354
vt 0.300000 0.871177
vt 0.200000 0.992354
vt 0.200000 0.871177
vt 0.900000 0.871177
vt 0.900000 0.992354
vt 1.000000 0.871177
vt 1.000000 0.992354
vt 1.000000 0.507646
vt 0.900000 0.507646
vt 0.908938 0.500000
vt 0.992975 0.500000
vt 0.992975 1.000000
vt 0.908938 1.000000
vt 0.800000 0.507646
vt 0.818964 0.500000
vt 0.888911 0.500000
vt 0.888911 1.000000
vt 0.818964 1.000000
vt 0.700000 0.507646
vt 0.723223 0.500000
vt 0.776777 0.500000
vt 0.776777 1.000000
vt 0.723223 1.000000
vt 0.600000 0.507646
vt 0.611088 0.500000
vt 0.681036 0.500000
vt 0.681036 1.000000
vt 0.611088 1.000000
vt 0.500000 0.507646
vt 0.507025 0.500000
vt 0.591062 0.500000
vt 0.591062 1.000000
vt 0.507025 1.000000
vt 0.400000 0.507646
vt 0.408938 0.500000
vt 0.492975 0.500000
vt 0.492975 1.000000
vt 0.408938 1.000000
vt 0.300000 0.507646
vt 0.318964 0.500000
vt 0.388911 0.500000
vt 0.388911 1.000000
vt 0.318964 1.000000
vt 0.200000 0.507646
vt 0.223223 0.500000
vt 0.276777 0.500000
vt 0.276777 1.000000
vt 0.223223 1.000000
vt 0.100000 0.507646
vt 0.111088 0.500000
vt 0.181036 0.500000
vt 0.181036 1.000000
vt 0.111088 1.000000
vt -0.000000 0.507646
vt 0.007025 0.500000
vt 0.091062 0.500000
vt 0.091062 1.000000
vt 0.007025 1.000000
vt 0.349433 0.313798
vt 0.368550 0.373655
vt 0.250000 0.412174
vt 0.388174 0.260475
vt 0.429534 0.289718
vt 0.388174 0.239525
vt 0.429534 0.210282
vt 0.349433 0.186202
vt 0.368550 0.126345
vt 0.250000 0.153895
vt 0.250000 0.087825
vt 0.150567 0.186202
vt 0.131450 0.126345
vt 0.111826 0.239525
vt 0.070466 0.210282
vt 0.111826 0.260475
vt 0.070466 0.289718
vt 0.150567 0.313798
vt 0.131450 0.373655
vt 0.250000 0.346105
vt 0.750000 0.362496
vt 0.750000 0.412174
vt 0.868550 0.373655
vt 0.854176 0.328647
vt 0.929534 0.289718
vt 0.898435 0.267730
vt 0.929534 0.210282
vt 0.898435 0.232270
vt 0.868550 0.126345
vt 0.854176 0.171353
vt 0.750000 0.087825
vt 0.750000 0.137504
vt 0.631450 0.126345
vt 0.645824 0.171353
vt 0.570466 0.210282
vt 0.601565 0.232270
vt 0.570466 0.289718
vt 0.601565 0.267730
vt 0.631450 0.373655
vt 0.645824 0.328647
vt 1.000000 0.628823
vt 0.900000 0.628823
vt 1.000000 0.750000
vt 0.900000 0.750000
vt 0.800000 0.628823
vt 0.800000 0.750000
vt 0.200000 0.628823
vt 0.100000 0.628823
vt 0.200000 0.750000
vt 0.100000 0.750000
vt 0.300000 0.628823
vt 0.300000 0.750000
vt 0.400000 0.628823
vt 0.400000 0.750000
vt 0.500000 0.628823
vt 0.500000 0.750000
vt 0.600000 0.628823
vt 0.600000 0.750000
vt 0.700000 0.628823
vt 0.700000 0.750000
vt -0.000000 0.628823
vt -0.000000 0.750000
vn 0.9775 -0.2039 -0.0548
vn 0.9775 0.2039 -0.0548
vn 0.9673 0.1794 0.1794
vn 0.9673 -0.1794 0.1794
vn 0.2030 -0.8841 -0.4210
vn -0.2030 -0.8841 -0.4210
vn -0.2049 -0.7574 -0.6200
vn 0.2049 -0.7574 -0.6200
vn -0.2020 0.9760 -0.0818
vn -0.1794 0.9673 0.1794
vn 0.1794 0.9673 0.1794
vn 0.2020 0.9760 -0.0818
vn 0.1794 -0.1794 0.9673
vn 0.1794 0.1794 0.9673
vn -0.1794 0.1794 0.9673
vn -0.1794 -0.1794 0.9673
vn -0.9673 -0.1794 0.1794
vn -0.9673 0.1794 0.1794
vn -0.9775 0.2039 -0.0548
vn -0.9775 -0.2039 -0.0548
vn -0.2030 0.8841 -0.4210
vn 0.2030 0.8841 -0.4210
vn 0.2049 0.7574 -0.6200
vn -0.2049 0.7574 -0.6200
vn 0.9549 0.1778 -0.2376
vn 0.9549 -0.1778 -0.2376
vn 0.9358 -0.0000 -0.3526
vn -0.9549 -0.1778 -0.2376
vn -0.9549 0.1778 -0.2376
vn -0.9358 0.0000 -0.3526
vn 0.1794 -0.9673 0.1794
vn 0.3600 -0.9194 0.1585
vn 0.3251 -0.8881 0.3251
vn 0.1585 -0.9194 0.3600
vn 0.6965 -0.1726 0.6965
vn 0.8881 -0.3251 0.3251
vn 0.9194 -0.3600 0.1585
vn 0.1585 -0.3600 0.9194
vn 0.3251 -0.3251 0.8881
vn 0.9194 0.3600 0.1585
vn 0.8881 0.3251 0.3251
vn 0.6965 0.1726 0.6965
vn 0.1726 0.6965 0.6965
vn 0.3251 0.8881 0.3251
vn 0.3600 0.9194 0.1585
vn 0.3251 0.3251 0.8881
vn -0.1794 -0.9673 0.1794
vn -0.1585 -0.9194 0.3600
vn -0.3251 -0.8881 0.3251
vn -0.3600 -0.9194 0.1585
vn -0.3600 -0.1585 0.9194
vn -0.3251 -0.3251 0.8881
vn -0.1585 -0.3600 0.9194
vn -0.9194 -0.3600 0.1585
vn -0.8881 -0.3251 0.3251
vn -0.9194 -0.1585 0.3600
vn -0.3600 0.9194 0.1585
vn -0.3251 0.8881 0.3251
vn -0.1726 0.6965 0.6965
vn -0.9194 0.1585 0.3600
vn -0.8881 0.3251 0.3251
vn -0.9194 0.3600 0.1585
vn -0.3251 0.3251 0.8881
vn -0.3600 0.1585 0.9194
vn 0.6840 -0.6140 -0.3940
vn 0.7032 -0.6643 -0.2533
vn 0.1997 -0.9447 -0.2603
vn 0.9738 -0.1724 -0.1481
vn 0.9271 -0.3683 -0.0687
vn 0.2020 -0.9760 -0.0818
vn 0.3883 -0.9171 -0.0903
vn 0.1997 0.9447 -0.2603
vn 0.7032 0.6643 -0.2533
vn 0.6840 0.6140 -0.3940
vn 0.3883 0.9171 -0.0903
vn 0.9738 0.1724 -0.1481
vn 0.9271 0.3683 -0.0687
vn -0.2020 -0.9760 -0.0818
vn -0.3883 -0.9171 -0.0903
vn -0.7032 -0.6643 -0.2533
vn -0.1997 -0.9447 -0.2603
vn -0.9738 -0.1724 -0.1481
vn -0.9271 -0.3683 -0.0687
vn -0.6840 -0.6140 -0.3940
vn -0.1997 0.9447 -0.2603
vn -0.7032 0.6643 -0.2533
vn -0.3883 0.9171 -0.0903
vn -0.6840 0.6140 -0.3940
vn -0.9738 0.1724 -0.1481
vn -0.9271 0.3683 -0.0687
vn -0.7121 0.4476 -0.5409
vn -0.8852 0.0000 -0.4651
vn -0.7121 -0.4476 -0.5409
vn -0.1725 0.6656 -0.7261
vn -0.4267 0.6075 -0.6700
vn -0.4267 -0.6075 -0.6700
vn -0.1725 -0.6656 -0.7261
vn 0.7121 0.4476 -0.5409
vn 0.4267 0.6075 -0.6700
vn 0.1725 0.6656 -0.7261
vn 0.7121 -0.4476 -0.5409
vn 0.8852 0.0000 -0.4651
vn 0.1725 -0.6656 -0.7261
vn 0.4267 -0.6075 -0.6700
vn -0.8476 -0.0594 0.5273
vn -0.8500 0.0000 0.5267
vn -1.0000 0.0000 0.0000
vn -0.9984 -0.0559 0.0000
vn -0.3515 -0.0660 -0.9339
vn -0.3536 0.0000 -0.9354
vn 0.3536 0.0000 -0.9354
vn 0.3515 -0.0660 -0.9339
vn 0.8500 0.0000 -0.5267
vn 0.8476 -0.0594 -0.5273
vn 1.0000 0.0000 0.0000
vn 0.9984 -0.0559 -0.0000
vn 0.8500 0.0000 0.5267
vn 0.8476 -0.0594 0.5273
vn 0.3536 0.0000 0.9354
vn 0.3515 -0.0660 0.9339
vn -0.3536 0.0000 0.9354
vn -0.3515 -0.0660 0.9339
vn -0.8476 -0.0594 -0.5273
vn -0.8500 0.0000 -0.5267
vn -0.4717 -0.8818 -0.0000
vn -0.4201 -0.8734 -0.2465
vn -0.2465 -0.9548 -0.1664
vn -0.2804 -0.9599 -0.0000
vn -0.4201 0.8734 -0.2465
vn -0.4717 0.8818 -0.0000
vn -0.2804 0.9599 -0.0000
vn -0.2465 0.9548 -0.1664
vn -0.1972 -0.8521 -0.4849
vn -0.1031 -0.9437 -0.3144
vn -0.1972 0.8521 -0.4849
vn -0.1031 0.9437 -0.3144
vn 0.1972 -0.8521 -0.4849
vn 0.1031 -0.9437 -0.3144
vn 0.1972 0.8521 -0.4849
vn 0.1031 0.9437 -0.3144
vn 0.4201 -0.8734 -0.2465
vn 0.2465 -0.9548 -0.1664
vn 0.4201 0.8734 -0.2465
vn 0.2465 0.9548 -0.1664
vn 0.4717 -0.8818 -0.0000
vn 0.2804 -0.9599 -0.0000
vn 0.4717 0.8818 -0.0000
vn 0.2804 0.9599 0.0000
vn 0.4201 -0.8734 0.2465
vn 0.2465 -0.9548 0.1664
vn 0.4201 0.8734 0.2465
vn 0.2465 0.9548 0.1664
vn 0.1972 -0.8521 0.4849
vn 0.1031 -0.9437 0.3144
vn 0.1972 0.8521 0.4849
vn 0.1031 0.9437 0.3144
vn -0.1972 -0.8521 0.4849
vn -0.1031 -0.9437 0.3144
vn -0.1972 0.8521 0.4849
vn -0.1031 0.9437 0.3144
vn -0.4201 -0.8734 0.2465
vn -0.2465 -0.9548 0.1664
vn -0.4201 0.8734 0.2465
vn -0.2465 0.9548 0.1664
vn 0.0000 1.0000 -0.0000
vn 0.0000 -1.0000 -0.0000
vn -0.9995 0.0328 0.0000
vn -0.9994 0.0359 0.0000
vn -0.8494 0.0382 -0.5264
vn -0.8489 0.0349 -0.5273
vn -0.9993 -0.0374 0.0000
vn -0.8507 -0.0398 -0.5241
vn -0.3532 0.0427 -0.9346
vn -0.3525 0.0390 -0.9350
vn -0.3552 -0.0447 -0.9337
vn -0.3525 0.0390 0.9350
vn -0.3532 0.0427 0.9346
vn -0.8494 0.0382 0.5264
vn -0.8489 0.0349 0.5273
vn -0.3552 -0.0447 0.9337
vn -0.8507 -0.0398 0.5241
vn 0.3525 0.0390 0.9350
vn 0.3532 0.0427 0.9346
vn 0.3552 -0.0447 0.9337
vn 0.8489 0.0349 0.5273
vn 0.8494 0.0382 0.5264
vn 0.8507 -0.0398 0.5241
vn 0.9995 0.0328 -0.0000
vn 0.9994 0.0359 -0.0000
vn 0.9993 -0.0374 -0.0000
vn 0.8489 0.0349 -0.5273
vn 0.8494 0.0382 -0.5264
vn 0.8507 -0.0398 -0.5241
vn 0.3525 0.0390 -0.9350
vn 0.3532 0.0427 -0.9346
vn 0.3552 -0.0447 -0.9337
usemtl Metal
s 1
f 103/1/1 112/2/2 80/3/3 74/4/4
s 2
f 101/5/5 122/6/6 139/7/7 146/8/8
s 3
f 128/9/9 94/10/10 81/11/11 111/12/12
s 4
f 75/13/13 82/14/14 96/15/15 88/16/16
s 5
f 89/17/17 95/18/18 131/19/19 120/20/20
s 6
f 129/21/21 110/22/22 144/23/23 138/24/24
s 7
f 113/25/25 102/26/26 145/27/27
s 8
f 121/28/28 130/29/29 137/30/30
s 89
f 73/31/31 76/32/32 77/33/33 79/34/34
s 90
f 74/4/4 78/35/35 77/36/36 76/37/37
s 91
f 75/13/13 79/38/38 77/39/39 78/40/35
s 92
f 80/3/3 83/41/40 84/42/41 86/43/42
s 93
f 81/11/11 85/44/43 84/45/44 83/46/45
s 94
f 82/14/14 86/47/42 84/48/46 85/49/43
s 95
f 87/50/47 90/51/48 91/52/49 93/53/50
s 96
f 88/16/16 92/54/51 91/55/52 90/56/53
s 97
f 89/17/17 93/57/54 91/58/55 92/54/56
s 98
f 94/10/10 97/59/57 98/60/58 100/61/59
s 99
f 95/18/18 99/62/60 98/63/61 97/64/62
s 100
f 96/15/15 100/65/59 98/66/63 99/62/64
s 101
f 101/5/5 105/67/65 106/68/66 109/69/67
s 102
f 102/26/26 107/70/68 106/71/66 105/72/65
s 103
f 103/1/1 108/73/69 106/68/66 107/70/68
s 104
f 104/74/70 109/69/67 106/75/66 108/76/71
s 105
f 110/22/22 114/77/72 115/78/73 118/79/74
s 106
f 111/12/12 116/80/75 115/78/73 114/77/72
s 107
f 112/2/2 117/81/76 115/78/73 116/82/77
s 108
f 113/25/25 118/79/74 115/78/73 117/81/76
s 109
f 119/83/78 123/84/79 124/85/80 127/86/81
s 110
f 120/20/20 125/87/82 124/85/80 123/88/83
s 111
f 121/28/28 126/89/84 124/85/80 125/87/82
s 112
f 122/6/6 127/86/81 124/85/80 126/89/84
s 113
f 128/9/9 132/90/85 133/91/86 136/92/87
s 114
f 129/21/21 134/93/88 133/94/86 132/90/85
s 115
f 130/29/29 135/95/89 133/96/86 134/97/88
s 116
f 131/19/19 136/98/90 133/94/86 135/95/89
s 117
f 137/30/30 140/99/91 141/100/92 143/101/93
s 118
f 138/24/24 142/102/94 141/103/95 140/104/91
s 119
f 139/7/7 143/101/93 141/105/96 142/106/97
s 120
f 144/23/23 147/107/98 148/108/99 150/109/100
s 121
f 145/27/27 149/110/101 148/111/102 147/107/98
s 122
f 146/8/8 150/112/103 148/113/104 149/114/101
s 123
f 87/50/47 73/31/31 79/34/34 90/51/48
s 124
f 90/56/53 79/38/38 75/13/13 88/16/16
s 125
f 74/4/4 80/3/3 86/43/42 78/35/35
s 126
f 78/40/35 86/47/42 82/14/14 75/13/13
s 127
f 81/11/11 94/10/10 100/61/59 85/44/43
s 128
f 85/49/43 100/65/59 96/15/15 82/14/14
s 129
f 95/18/18 89/17/17 92/54/56 99/62/60
s 130
f 99/62/64 92/54/51 88/16/16 96/15/15
s 131
f 119/83/78 87/50/47 93/53/50 123/84/79
s 132
f 123/88/83 93/57/54 89/17/17 120/20/20
s 133
f 94/10/10 128/9/9 136/92/87 97/59/57
s 134
f 97/64/62 136/98/90 131/19/19 95/18/18
s 135
f 130/29/29 121/28/28 125/87/82 135/95/89
s 136
f 135/95/89 125/87/82 120/20/20 131/19/19
s 137
f 104/74/70 119/83/78 127/86/81 109/69/67
s 138
f 109/69/67 127/86/81 122/6/6 101/5/5
s 139
f 128/9/9 111/12/12 114/77/72 132/90/85
s 140
f 132/90/85 114/77/72 110/22/22 129/21/21
s 141
f 112/2/2 103/1/1 107/70/68 117/81/76
s 142
f 117/81/76 107/70/68 102/26/26 113/25/25
s 143
f 73/31/31 104/74/70 108/76/71 76/32/32
s 144
f 76/37/37 108/73/69 103/1/1 74/4/4
s 145
f 111/12/12 81/11/11 83/46/45 116/80/75
s 146
f 116/82/77 83/41/40 80/3/3 112/2/2
s 147
f 129/21/21 138/24/24 140/104/91 134/93/88
s 148
f 134/97/88 140/99/91 137/30/30 130/29/29
s 149
f 144/23/23 110/22/22 118/79/74 147/107/98
s 150
f 147/107/98 118/79/74 113/25/25 145/27/27
s 151
f 101/5/5 146/8/8 149/114/101 105/67/65
s 152
f 105/72/65 149/110/101 145/27/27 102/26/26
s 153
f 146/8/8 139/7/7 142/106/97 150/112/103
s 154
f 150/109/100 142/102/94 138/24/24 144/23/23
s 155
f 139/7/7 122/6/6 126/89/84 143/101/93
s 156
f 143/101/93 126/89/84 121/28/28 137/30/30
s 157
f 87/50/47 119/83/78 104/74/70 73/31/31
usemtl Brown
s 9
f 51/115/105 22/116/106 4/117/107 45/118/108
s 10
f 52/119/109 8/120/110 10/121/111 55/122/112
s 11
f 55/122/112 10/121/111 12/123/113 58/124/114
s 12
f 58/124/114 12/123/113 14/125/115 61/126/116
s 13
f 61/126/116 14/125/115 16/127/117 64/128/118
s 14
f 64/128/118 16/127/117 18/129/119 67/130/120
s 15
f 67/130/120 18/129/119 20/131/121 70/132/122
s 16
f 70/132/122 20/131/121 22/116/106 51/115/105
s 17
f 46/133/123 6/134/124 8/120/110 52/119/109
s 18
f 45/135/108 4/136/107 6/134/124 46/133/123
s 19
f 2/137/125 5/138/126 33/139/127 34/140/128
s 20
f 6/134/129 4/136/130 23/141/131 24/142/132
s 21
f 5/138/126 7/143/133 35/144/134 33/145/127
s 22
f 8/120/135 6/134/129 24/146/132 25/147/136
s 23
f 7/143/133 9/148/137 36/149/138 35/150/134
s 24
f 10/121/139 8/120/135 25/151/136 26/152/140
s 25
f 9/148/137 11/153/141 37/154/142 36/155/138
s 26
f 12/123/143 10/121/139 26/156/140 27/157/144
s 27
f 11/153/141 13/158/145 38/159/146 37/160/142
s 28
f 14/125/147 12/123/143 27/161/144 28/162/148
s 29
f 13/158/145 15/163/149 39/164/150 38/165/146
s 30
f 16/127/151 14/125/147 28/166/148 29/167/152
s 31
f 15/163/149 17/168/153 40/169/154 39/170/150
s 32
f 18/129/155 16/127/151 29/171/152 30/172/156
s 33
f 17/168/153 19/173/157 41/174/158 40/175/154
s 34
f 20/131/159 18/129/155 30/176/156 31/177/160
s 35
f 19/173/157 21/178/161 42/179/162 41/180/158
s 36
f 22/116/163 20/131/159 31/181/160 32/182/164
s 37
f 21/178/161 2/183/125 34/184/128 42/185/162
s 38
f 4/117/130 22/116/163 32/186/164 23/187/131
s 39
f 3/188/165 24/189/132 23/190/131
s 40
f 3/191/165 25/192/136 24/189/132
s 41
f 3/193/165 26/194/140 25/192/136
s 42
f 3/195/165 27/196/144 26/194/140
s 43
f 3/197/165 28/198/148 27/196/144
s 44
f 3/199/165 29/200/152 28/198/148
s 45
f 3/201/165 30/202/156 29/200/152
s 46
f 3/203/165 31/204/160 30/202/156
s 47
f 3/205/165 32/206/164 31/204/160
s 48
f 3/207/165 23/190/131 32/206/164
s 49
f 1/208/166 34/209/128 33/210/127
s 50
f 1/211/166 33/210/127 35/212/134
s 51
f 1/213/166 35/212/134 36/214/138
s 52
f 1/215/166 36/214/138 37/216/142
s 53
f 1/217/166 37/216/142 38/218/146
s 54
f 1/219/166 38/218/146 39/220/150
s 55
f 1/221/166 39/220/150 40/222/154
s 56
f 1/223/166 40/222/154 41/224/158
s 57
f 1/225/166 41/224/158 42/226/162
s 58
f 1/227/166 42/226/162 34/209/128
s 59
f 2/137/167 43/228/168 48/229/169 5/138/170
s 60
f 43/228/168 44/230/171 47/231/172 48/229/169
s 61
f 44/230/171 45/135/108 46/133/123 47/231/172
s 62
f 5/138/170 48/229/169 54/232/173 7/143/174
s 63
f 48/229/169 47/231/172 53/233/175 54/232/173
s 64
f 47/231/172 46/133/123 52/119/109 53/233/175
s 65
f 19/173/176 72/234/177 49/235/178 21/178/179
s 66
f 72/234/177 71/236/180 50/237/181 49/235/178
s 67
f 71/236/180 70/132/122 51/115/105 50/237/181
s 68
f 17/168/182 69/238/183 72/234/177 19/173/176
s 69
f 69/238/183 68/239/184 71/236/180 72/234/177
s 70
f 68/239/184 67/130/120 70/132/122 71/236/180
s 71
f 15/163/185 66/240/186 69/238/183 17/168/182
s 72
f 66/240/186 65/241/187 68/239/184 69/238/183
s 73
f 65/241/187 64/128/118 67/130/120 68/239/184
s 74
f 13/158/188 63/242/189 66/240/186 15/163/185
s 75
f 63/242/189 62/243/190 65/241/187 66/240/186
s 76
f 62/243/190 61/126/116 64/128/118 65/241/187
s 77
f 11/153/191 60/244/192 63/242/189 13/158/188
s 78
f 60/244/192 59/245/193 62/243/190 63/242/189
s 79
f 59/245/193 58/124/114 61/126/116 62/243/190
s 80
f 9/148/194 57/246/195 60/244/192 11/153/191
s 81
f 57/246/195 56/247/196 59/245/193 60/244/192
s 82
f 56/247/196 55/122/112 58/124/114 59/245/193
s 83
f 7/143/174 54/232/173 57/246/195 9/148/194
s 84
f 54/232/173 53/233/175 56/247/196 57/246/195
s 85
f 53/233/175 52/119/109 55/122/112 56/247/196
s 86
f 21/178/179 49/235/178 43/248/168 2/183/167
s 87
f 49/235/178 50/237/181 44/249/171 43/248/168
s 88
f 50/237/181 51/115/105 45/118/108 44/249/171
