# Blender v2.80 (sub 75) OBJ File: 'MCOTMC_April2022_ContractorBuilder_Source.blend'
# www.blender.org
mtllib lumber_stack.mtl
o lumber_stack_Cube.262
v -0.100367 -0.049258 1.200000
v -0.099627 0.050739 1.200000
v -0.100367 -0.049258 -1.200000
v -0.099627 0.050739 -1.200000
v 0.099627 -0.050739 1.200000
v 0.100367 0.049258 1.200000
v 0.099627 -0.050739 -1.200000
v 0.100367 0.049258 -1.200000
v -0.301886 -0.149764 1.200000
v -0.301886 -0.049764 1.200000
v -0.301886 -0.149764 -1.200000
v -0.301886 -0.049764 -1.200000
v -0.101886 -0.149764 1.200000
v -0.101886 -0.049764 1.200000
v -0.101886 -0.149764 -1.200000
v -0.101886 -0.049764 -1.200000
v -0.301179 -0.048114 1.225736
v -0.301179 0.051886 1.225736
v -0.301179 -0.048114 -1.174264
v -0.301179 0.051886 -1.174264
v -0.101179 -0.048114 1.225736
v -0.101179 0.051886 1.225736
v -0.101179 -0.048114 -1.174264
v -0.101179 0.051886 -1.174264
v -0.302444 0.053353 1.200000
v -0.302444 0.153353 1.200000
v -0.302444 0.053353 -1.200000
v -0.302444 0.153353 -1.200000
v -0.102444 0.053353 1.200000
v -0.102444 0.153353 1.200000
v -0.102444 0.053353 -1.200000
v -0.102444 0.153353 -1.200000
v -0.099764 -0.151414 1.225736
v -0.099764 -0.051414 1.225736
v -0.099764 -0.151414 -1.174264
v -0.099764 -0.051414 -1.174264
v 0.100236 -0.151415 1.225736
v 0.100236 -0.051414 1.225736
v 0.100236 -0.151415 -1.174264
v 0.100236 -0.051414 -1.174264
v -0.099854 0.051595 1.170721
v -0.100145 0.151595 1.170721
v -0.099854 0.051595 -1.229280
v -0.100145 0.151595 -1.229280
v 0.100145 0.052177 1.170721
v 0.099854 0.152177 1.170721
v 0.100145 0.052177 -1.229280
v 0.099854 0.152177 -1.229280
v 0.102022 -0.151564 1.200000
v 0.102781 -0.051567 1.200000
v 0.102022 -0.151564 -1.200000
v 0.102781 -0.051567 -1.200000
v 0.302017 -0.153082 1.200000
v 0.302776 -0.053085 1.200000
v 0.302017 -0.153082 -1.200000
v 0.302776 -0.053085 -1.200000
v 0.102559 -0.049691 1.180182
v 0.101277 0.050301 1.180182
v 0.102559 -0.049691 -1.219819
v 0.101277 0.050301 -1.219819
v 0.302543 -0.047127 1.180182
v 0.301261 0.052864 1.180182
v 0.302543 -0.047127 -1.219819
v 0.301261 0.052864 -1.219819
v 0.103077 0.052636 1.225736
v 0.100882 0.152612 1.225736
v 0.103077 0.052636 -1.174264
v 0.100882 0.152612 -1.174264
v 0.303029 0.057026 1.225736
v 0.300834 0.157002 1.225736
v 0.303029 0.057026 -1.174264
v 0.300834 0.157002 -1.174264
v -0.228430 0.165644 -0.737298
v -0.228430 0.165644 -0.662702
v -0.228430 0.154679 -0.737298
v -0.228430 0.154679 -0.662702
v -0.001589 0.165644 -0.737298
v -0.007072 0.154679 -0.737298
v -0.001589 0.165644 -0.662702
v -0.007072 0.154679 -0.662702
v -0.006165 0.185424 -0.727585
v -0.002497 0.175123 -0.728404
v -0.006165 0.179515 -0.653224
v -0.002497 0.169213 -0.654043
v -0.195730 0.165644 -0.666894
v -0.195730 0.154679 -0.666894
v -0.195730 0.165644 -0.733105
v -0.195730 0.154679 -0.733105
v -0.299486 -0.165644 -0.662702
v -0.313131 -0.151999 -0.662702
v -0.313131 0.151999 -0.662702
v -0.299486 0.165644 -0.662702
v -0.313131 -0.151999 -0.737298
v -0.299486 -0.165644 -0.737298
v -0.299486 0.165644 -0.737298
v -0.313131 0.151999 -0.737298
v 0.313131 -0.151999 -0.662702
v 0.299486 -0.165644 -0.662702
v 0.299486 0.165644 -0.662702
v 0.313131 0.151999 -0.662702
v 0.299486 -0.165644 -0.737298
v 0.313131 -0.151999 -0.737298
v 0.313131 0.151999 -0.737298
v 0.299486 0.165644 -0.737298
v -0.302166 -0.141033 -0.737298
v -0.288520 -0.154679 -0.737298
v -0.288520 0.154679 -0.737298
v -0.302166 0.141033 -0.737298
v 0.302166 0.141033 -0.737298
v 0.288520 0.154679 -0.737298
v 0.288520 -0.154679 -0.737298
v 0.302166 -0.141033 -0.737298
v 0.302166 -0.141033 -0.662702
v 0.288520 -0.154679 -0.662702
v 0.288520 0.154679 -0.662702
v 0.302166 0.141033 -0.662702
v -0.302166 0.141033 -0.662702
v -0.288520 0.154679 -0.662702
v -0.288520 -0.154679 -0.662702
v -0.302166 -0.141033 -0.662702
v -0.140550 0.165644 0.662702
v -0.140550 0.165644 0.737298
v -0.140550 0.154679 0.662702
v -0.140550 0.154679 0.737298
v 0.086291 0.165644 0.662702
v 0.080808 0.154679 0.662702
v 0.086291 0.165644 0.737298
v 0.080808 0.154679 0.737298
v 0.081715 0.177864 0.651905
v 0.085383 0.167608 0.653175
v 0.081715 0.187029 0.725936
v 0.085383 0.176773 0.727206
v -0.107850 0.165644 0.733105
v -0.107850 0.154679 0.733105
v -0.107850 0.165644 0.666894
v -0.107850 0.154679 0.666894
v -0.299486 -0.165644 0.737298
v -0.313131 -0.151999 0.737298
v -0.313131 0.151999 0.737298
v -0.299486 0.165644 0.737298
v -0.313131 -0.151999 0.662702
v -0.299486 -0.165644 0.662702
v -0.299486 0.165644 0.662702
v -0.313131 0.151999 0.662702
v 0.313131 -0.151999 0.737298
v 0.299486 -0.165644 0.737298
v 0.299486 0.165644 0.737298
v 0.313131 0.151999 0.737298
v 0.299486 -0.165644 0.662702
v 0.313131 -0.151999 0.662702
v 0.313131 0.151999 0.662702
v 0.299486 0.165644 0.662702
v -0.302166 -0.141033 0.662702
v -0.288520 -0.154679 0.662702
v -0.288520 0.154679 0.662702
v -0.302166 0.141033 0.662702
v 0.302166 0.141033 0.662702
v 0.288520 0.154679 0.662702
v 0.288520 -0.154679 0.662702
v 0.302166 -0.141033 0.662702
v 0.302166 -0.141033 0.737298
v 0.288520 -0.154679 0.737298
v 0.288520 0.154679 0.737298
v 0.302166 0.141033 0.737298
v -0.302166 0.141033 0.737298
v -0.288520 0.154679 0.737298
v -0.288520 -0.154679 0.737298
v -0.302166 -0.141033 0.737298
vt 0.375000 0.000000
vt 0.625000 0.000000
vt 0.625000 0.250000
vt 0.375000 0.250000
vt 0.625000 0.500000
vt 0.375000 0.500000
vt 0.625000 0.750000
vt 0.375000 0.750000
vt 0.625000 1.000000
vt 0.375000 1.000000
vt 0.125000 0.500000
vt 0.125000 0.750000
vt 0.875000 0.500000
vt 0.875000 0.750000
vt 0.375000 0.000000
vt 0.625000 0.000000
vt 0.625000 0.250000
vt 0.375000 0.250000
vt 0.625000 0.500000
vt 0.375000 0.500000
vt 0.625000 0.750000
vt 0.375000 0.750000
vt 0.625000 1.000000
vt 0.375000 1.000000
vt 0.125000 0.500000
vt 0.125000 0.750000
vt 0.875000 0.500000
vt 0.875000 0.750000
vt 0.375000 0.000000
vt 0.625000 0.000000
vt 0.625000 0.250000
vt 0.375000 0.250000
vt 0.625000 0.500000
vt 0.375000 0.500000
vt 0.625000 0.750000
vt 0.375000 0.750000
vt 0.625000 1.000000
vt 0.375000 1.000000
vt 0.125000 0.500000
vt 0.125000 0.750000
vt 0.875000 0.500000
vt 0.875000 0.750000
vt 0.375000 0.000000
vt 0.625000 0.000000
vt 0.625000 0.250000
vt 0.375000 0.250000
vt 0.625000 0.500000
vt 0.375000 0.500000
vt 0.625000 0.750000
vt 0.375000 0.750000
vt 0.625000 1.000000
vt 0.375000 1.000000
vt 0.125000 0.500000
vt 0.125000 0.750000
vt 0.875000 0.500000
vt 0.875000 0.750000
vt 0.375000 0.000000
vt 0.625000 0.000000
vt 0.625000 0.250000
vt 0.375000 0.250000
vt 0.625000 0.500000
vt 0.375000 0.500000
vt 0.625000 0.750000
vt 0.375000 0.750000
vt 0.625000 1.000000
vt 0.375000 1.000000
vt 0.125000 0.500000
vt 0.125000 0.750000
vt 0.875000 0.500000
vt 0.875000 0.750000
vt 0.375000 0.000000
vt 0.625000 0.000000
vt 0.625000 0.250000
vt 0.375000 0.250000
vt 0.625000 0.500000
vt 0.375000 0.500000
vt 0.625000 0.750000
vt 0.375000 0.750000
vt 0.625000 1.000000
vt 0.375000 1.000000
vt 0.125000 0.500000
vt 0.125000 0.750000
vt 0.875000 0.500000
vt 0.875000 0.750000
vt 0.375000 0.000000
vt 0.625000 0.000000
vt 0.625000 0.250000
vt 0.375000 0.250000
vt 0.625000 0.500000
vt 0.375000 0.500000
vt 0.625000 0.750000
vt 0.375000 0.750000
vt 0.625000 1.000000
vt 0.375000 1.000000
vt 0.125000 0.500000
vt 0.125000 0.750000
vt 0.875000 0.500000
vt 0.875000 0.750000
vt 0.375000 0.000000
vt 0.625000 0.000000
vt 0.625000 0.250000
vt 0.375000 0.250000
vt 0.625000 0.500000
vt 0.375000 0.500000
vt 0.625000 0.750000
vt 0.375000 0.750000
vt 0.625000 1.000000
vt 0.375000 1.000000
vt 0.125000 0.500000
vt 0.125000 0.750000
vt 0.875000 0.500000
vt 0.875000 0.750000
vt 0.375000 0.000000
vt 0.625000 0.000000
vt 0.625000 0.250000
vt 0.375000 0.250000
vt 0.625000 0.500000
vt 0.375000 0.500000
vt 0.625000 0.750000
vt 0.375000 0.750000
vt 0.625000 1.000000
vt 0.375000 1.000000
vt 0.125000 0.500000
vt 0.125000 0.750000
vt 0.875000 0.500000
vt 0.875000 0.750000
vt 0.375000 0.994553
vt 0.375000 0.755447
vt 0.383275 0.759825
vt 0.383275 0.990175
vt 0.385297 0.750000
vt 0.614702 0.750000
vt 0.606427 0.754378
vt 0.393573 0.754378
vt 0.616725 0.930107
vt 0.616725 0.990091
vt 0.616725 0.259909
vt 0.616725 0.319893
vt 0.385297 0.000000
vt 0.614702 0.000000
vt 0.614703 0.250000
vt 0.385298 0.250000
vt 0.625000 0.932106
vt 0.625000 0.994632
vt 0.375000 0.494553
vt 0.375000 0.255447
vt 0.383275 0.259825
vt 0.383275 0.490175
vt 0.606427 0.995623
vt 0.393573 0.995623
vt 0.393573 0.254378
vt 0.606427 0.254378
vt 0.625000 0.408947
vt 0.625000 0.494523
vt 0.616725 0.490206
vt 0.616725 0.407758
vt 0.625000 0.255368
vt 0.625000 0.317894
vt 0.630477 0.500000
vt 0.716053 0.500000
vt 0.716053 0.750000
vt 0.630477 0.750000
vt 0.807106 0.500000
vt 0.869632 0.500000
vt 0.869632 0.750000
vt 0.807106 0.750000
vt 0.614703 1.000000
vt 0.385298 1.000000
vt 0.616725 0.759794
vt 0.616725 0.842242
vt 0.385297 0.500000
vt 0.614702 0.500000
vt 0.625000 0.755477
vt 0.625000 0.841053
vt 0.393573 0.495623
vt 0.606427 0.495622
vt 0.625000 0.344316
vt 0.616725 0.345391
vt 0.625000 0.841053
vt 0.616725 0.842242
vt 0.616725 0.407758
vt 0.625000 0.408947
vt 0.616725 0.904609
vt 0.625000 0.905684
vt 0.780684 0.500000
vt 0.716053 0.500000
vt 0.716053 0.750000
vt 0.780684 0.750000
vt 0.130447 0.500000
vt 0.130447 0.750000
vt 0.125000 0.750000
vt 0.125000 0.500000
vt 0.625000 0.000000
vt 0.625000 0.250000
vt 0.369553 0.750000
vt 0.369553 0.500000
vt 0.375000 0.994553
vt 0.375000 0.755447
vt 0.383275 0.759825
vt 0.383275 0.990175
vt 0.385297 0.750000
vt 0.614702 0.750000
vt 0.606427 0.754378
vt 0.393573 0.754378
vt 0.616725 0.930107
vt 0.616725 0.990091
vt 0.616725 0.259909
vt 0.616725 0.319893
vt 0.385297 0.000000
vt 0.614702 0.000000
vt 0.614703 0.250000
vt 0.385298 0.250000
vt 0.625000 0.932106
vt 0.625000 0.994632
vt 0.375000 0.494553
vt 0.375000 0.255447
vt 0.383275 0.259825
vt 0.383275 0.490175
vt 0.606427 0.995623
vt 0.393573 0.995623
vt 0.393573 0.254378
vt 0.606427 0.254378
vt 0.625000 0.408947
vt 0.625000 0.494523
vt 0.616725 0.490206
vt 0.616725 0.407758
vt 0.625000 0.255368
vt 0.625000 0.317894
vt 0.630477 0.500000
vt 0.716053 0.500000
vt 0.716053 0.750000
vt 0.630477 0.750000
vt 0.807106 0.500000
vt 0.869632 0.500000
vt 0.869632 0.750000
vt 0.807106 0.750000
vt 0.614703 1.000000
vt 0.385298 1.000000
vt 0.616725 0.759794
vt 0.616725 0.842242
vt 0.385297 0.500000
vt 0.614702 0.500000
vt 0.625000 0.755477
vt 0.625000 0.841053
vt 0.393573 0.495623
vt 0.606427 0.495622
vt 0.625000 0.344316
vt 0.616725 0.345391
vt 0.625000 0.841053
vt 0.616725 0.842242
vt 0.616725 0.407758
vt 0.625000 0.408947
vt 0.616725 0.904609
vt 0.625000 0.905684
vt 0.780684 0.500000
vt 0.716053 0.500000
vt 0.716053 0.750000
vt 0.780684 0.750000
vt 0.130447 0.500000
vt 0.130447 0.750000
vt 0.125000 0.750000
vt 0.125000 0.500000
vt 0.625000 0.000000
vt 0.625000 0.250000
vt 0.369553 0.750000
vt 0.369553 0.500000
vn -1.0000 0.0074 0.0000
vn 0.0000 0.0000 -1.0000
vn 1.0000 -0.0074 0.0000
vn 0.0000 0.0000 1.0000
vn -0.0074 -1.0000 0.0000
vn 0.0074 1.0000 0.0000
vn -1.0000 0.0000 0.0000
vn 1.0000 -0.0000 0.0000
vn -0.0000 -1.0000 0.0000
vn 0.0000 1.0000 0.0000
vn -1.0000 -0.0029 0.0000
vn 1.0000 0.0029 0.0000
vn 0.0029 -1.0000 0.0000
vn -0.0029 1.0000 0.0000
vn -1.0000 0.0076 0.0000
vn 1.0000 -0.0076 0.0000
vn -0.0076 -1.0000 0.0000
vn 0.0076 1.0000 0.0000
vn -0.9999 -0.0128 0.0000
vn 0.9999 0.0128 0.0000
vn 0.0128 -0.9999 0.0000
vn -0.0128 0.9999 0.0000
vn -0.9998 -0.0220 -0.0000
vn 0.9998 0.0220 0.0000
vn 0.0220 -0.9998 0.0000
vn -0.0220 0.9998 0.0000
vn 0.0398 -0.9990 -0.0200
vn 0.0389 -0.9991 -0.0195
vn -0.9239 -0.3827 0.0000
vn -0.0191 -0.0229 0.9996
vn -0.0184 -0.0220 0.9996
vn 0.9239 -0.3827 0.0000
vn 0.9239 0.3827 0.0000
vn -0.0077 0.0019 -1.0000
vn -0.0142 0.0035 -0.9999
vn 0.0192 0.0231 -0.9995
vn 0.0182 0.0218 -0.9996
vn -0.0381 0.9991 0.0195
vn -0.3827 0.9239 0.0000
vn -0.0391 0.9990 0.0200
vn -0.3827 -0.9239 0.0000
vn -0.0077 0.0019 1.0000
vn -0.0142 0.0035 0.9999
vn -0.9239 0.3827 0.0000
vn -0.0219 0.0055 -0.9997
vn -0.0376 -0.0449 0.9983
vn 0.0374 0.0449 -0.9983
vn -0.0771 0.9962 0.0395
vn -0.0219 0.0055 0.9997
vn 0.0786 -0.9961 -0.0395
vn 0.9424 0.3334 0.0265
vn -0.7071 -0.7071 0.0000
vn -0.7071 0.7071 0.0000
vn 0.3827 -0.9239 0.0000
vn 0.7071 -0.7071 0.0000
vn 0.7071 0.7071 0.0000
vn 0.0394 -0.9988 0.0303
vn 0.0405 -0.9987 0.0311
vn 0.0212 0.0344 0.9992
vn 0.0200 0.0323 0.9993
vn -0.0211 -0.0340 -0.9992
vn -0.0204 -0.0328 -0.9993
vn -0.0398 0.9987 -0.0312
vn -0.0385 0.9988 -0.0302
vn 0.0412 0.0668 0.9969
vn -0.0415 -0.0668 -0.9969
vn -0.0783 0.9950 -0.0614
vn 0.0798 -0.9949 0.0614
vn 0.9424 0.3320 -0.0411
usemtl Beige
s 1
f 1/1/1 2/2/1 4/3/1 3/4/1
s 2
f 3/4/2 4/3/2 8/5/2 7/6/2
s 3
f 7/6/3 8/5/3 6/7/3 5/8/3
s 4
f 5/8/4 6/7/4 2/9/4 1/10/4
s 5
f 3/11/5 7/6/5 5/8/5 1/12/5
s 6
f 8/5/6 4/13/6 2/14/6 6/7/6
s 7
f 9/15/7 10/16/7 12/17/7 11/18/7
s 8
f 11/18/2 12/17/2 16/19/2 15/20/2
s 9
f 15/20/8 16/19/8 14/21/8 13/22/8
s 10
f 13/22/4 14/21/4 10/23/4 9/24/4
s 11
f 11/25/9 15/20/9 13/22/9 9/26/9
s 12
f 16/19/10 12/27/10 10/28/10 14/21/10
s 13
f 17/29/7 18/30/7 20/31/7 19/32/7
s 14
f 19/32/2 20/31/2 24/33/2 23/34/2
s 15
f 23/34/8 24/33/8 22/35/8 21/36/8
s 16
f 21/36/4 22/35/4 18/37/4 17/38/4
s 17
f 19/39/9 23/34/9 21/36/9 17/40/9
s 18
f 24/33/10 20/41/10 18/42/10 22/35/10
s 19
f 25/43/7 26/44/7 28/45/7 27/46/7
s 20
f 27/46/2 28/45/2 32/47/2 31/48/2
s 21
f 31/48/8 32/47/8 30/49/8 29/50/8
s 22
f 29/50/4 30/49/4 26/51/4 25/52/4
s 23
f 27/53/9 31/48/9 29/50/9 25/54/9
s 24
f 32/47/10 28/55/10 26/56/10 30/49/10
s 25
f 33/57/7 34/58/7 36/59/7 35/60/7
s 26
f 35/60/2 36/59/2 40/61/2 39/62/2
s 27
f 39/62/8 40/61/8 38/63/8 37/64/8
s 28
f 37/64/4 38/63/4 34/65/4 33/66/4
s 29
f 35/67/9 39/62/9 37/64/9 33/68/9
s 30
f 40/61/10 36/69/10 34/70/10 38/63/10
s 31
f 41/71/11 42/72/11 44/73/11 43/74/11
s 32
f 43/74/2 44/73/2 48/75/2 47/76/2
s 33
f 47/76/12 48/75/12 46/77/12 45/78/12
s 34
f 45/78/4 46/77/4 42/79/4 41/80/4
s 35
f 43/81/13 47/76/13 45/78/13 41/82/13
s 36
f 48/75/14 44/83/14 42/84/14 46/77/14
s 37
f 49/85/15 50/86/15 52/87/15 51/88/15
s 38
f 51/88/2 52/87/2 56/89/2 55/90/2
s 39
f 55/90/16 56/89/16 54/91/16 53/92/16
s 40
f 53/92/4 54/91/4 50/93/4 49/94/4
s 41
f 51/95/17 55/90/17 53/92/17 49/96/17
s 42
f 56/89/18 52/97/18 50/98/18 54/91/18
s 43
f 57/99/19 58/100/19 60/101/19 59/102/19
s 44
f 59/102/2 60/101/2 64/103/2 63/104/2
s 45
f 63/104/20 64/103/20 62/105/20 61/106/20
s 46
f 61/106/4 62/105/4 58/107/4 57/108/4
s 47
f 59/109/21 63/104/21 61/106/21 57/110/21
s 48
f 64/103/22 60/111/22 58/112/22 62/105/22
s 49
f 65/113/23 66/114/23 68/115/23 67/116/23
s 50
f 67/116/2 68/115/2 72/117/2 71/118/2
s 51
f 71/118/24 72/117/24 70/119/24 69/120/24
s 52
f 69/120/4 70/119/4 66/121/4 65/122/4
s 53
f 67/123/25 71/118/25 69/120/25 65/124/25
s 54
f 72/117/26 68/125/26 66/126/26 70/119/26
usemtl Orange
s 55
f 89/127/4 98/128/4 114/129/4 119/130/4
s 56
f 97/131/4 100/132/4 116/133/4 113/134/4
s 57
f 76/135/27 118/136/9 107/137/9 75/138/28
s 58
f 90/139/29 91/140/7 96/141/7 93/142/29
s 59
f 74/143/30 92/144/4 118/136/4 76/135/31
s 60
f 101/145/2 94/146/2 106/147/2 111/148/2
s 61
f 117/149/32 120/150/33 105/151/33 108/152/32
s 62
f 77/153/34 104/154/2 110/155/2 78/156/35
s 63
f 95/157/2 73/158/36 75/138/37 107/137/2
s 64
f 104/159/10 77/160/10 79/161/10 99/162/10
s 65
f 93/142/2 96/141/2 108/152/2 105/151/2
s 66
f 73/163/38 95/164/39 92/165/39 74/166/40
s 67
f 91/167/4 90/168/4 120/150/4 117/149/4
s 68
f 115/169/41 80/170/9 78/156/9 110/155/41
s 69
f 119/130/10 114/129/10 111/148/10 106/147/10
s 70
f 102/171/8 103/172/33 100/132/33 97/131/8
s 71
f 99/173/4 79/174/42 80/170/43 115/169/4
s 72
f 103/172/2 102/171/2 112/175/2 109/176/2
s 73
f 113/134/44 116/133/7 109/176/7 112/175/44
s 74
f 87/177/45 77/153/34 78/156/35 88/178/45
s 75
f 83/179/46 74/143/30 76/135/31 84/180/46
s 76
f 82/181/47 75/138/37 73/158/36 81/182/47
s 77
f 88/178/7 86/183/7 85/184/7 87/185/7
s 78
f 81/186/48 73/163/38 74/166/40 83/187/48
s 79
f 77/160/10 87/185/10 85/188/10 79/161/10
s 80
f 79/174/42 85/184/49 86/183/49 80/170/43
s 81
f 80/170/9 86/183/9 88/178/9 78/156/9
s 82
f 84/180/50 76/135/27 75/138/28 82/181/50
s 83
f 81/182/51 83/179/51 84/180/51 82/181/51
s 84
f 94/189/52 89/190/52 90/191/29 93/192/29
s 85
f 92/193/39 95/194/39 96/141/53 91/140/53
s 86
f 98/195/54 101/196/54 102/171/55 97/131/55
s 87
f 104/159/56 99/162/56 100/132/33 103/172/33
s 88
f 106/147/2 94/146/2 93/142/2 105/151/2
s 89
f 95/157/2 107/137/2 108/152/2 96/141/2
s 90
f 103/172/2 109/176/2 110/155/2 104/154/2
s 91
f 101/145/2 111/148/2 112/175/2 102/171/2
s 92
f 114/129/4 98/128/4 97/131/4 113/134/4
s 93
f 99/173/4 115/169/4 116/133/4 100/132/4
s 94
f 91/167/4 117/149/4 118/136/4 92/144/4
s 95
f 89/127/4 119/130/4 120/150/4 90/168/4
s 96
f 105/151/33 120/150/33 119/130/56 106/147/56
s 97
f 113/134/44 112/175/44 111/148/53 114/129/53
s 98
f 115/169/41 110/155/41 109/176/52 116/133/52
s 99
f 117/149/32 108/152/32 107/137/55 118/136/55
s 100
f 94/189/9 101/196/54 98/195/54 89/190/9
s 101
f 137/197/4 146/198/4 162/199/4 167/200/4
s 102
f 145/201/4 148/202/4 164/203/4 161/204/4
s 103
f 124/205/57 166/206/9 155/207/9 123/208/58
s 104
f 138/209/29 139/210/7 144/211/7 141/212/29
s 105
f 122/213/59 140/214/4 166/206/4 124/205/60
s 106
f 149/215/2 142/216/2 154/217/2 159/218/2
s 107
f 165/219/32 168/220/33 153/221/33 156/222/32
s 108
f 125/223/34 152/224/2 158/225/2 126/226/35
s 109
f 143/227/2 121/228/61 123/208/62 155/207/2
s 110
f 152/229/10 125/230/10 127/231/10 147/232/10
s 111
f 141/212/2 144/211/2 156/222/2 153/221/2
s 112
f 121/233/63 143/234/39 140/235/39 122/236/64
s 113
f 139/237/4 138/238/4 168/220/4 165/219/4
s 114
f 163/239/41 128/240/9 126/226/9 158/225/41
s 115
f 167/200/10 162/199/10 159/218/10 154/217/10
s 116
f 150/241/8 151/242/33 148/202/33 145/201/8
s 117
f 147/243/4 127/244/42 128/240/43 163/239/4
s 118
f 151/242/2 150/241/2 160/245/2 157/246/2
s 119
f 161/204/44 164/203/7 157/246/7 160/245/44
s 120
f 135/247/45 125/223/34 126/226/35 136/248/45
s 121
f 131/249/65 122/213/59 124/205/60 132/250/65
s 122
f 130/251/66 123/208/62 121/228/61 129/252/66
s 123
f 136/248/7 134/253/7 133/254/7 135/255/7
s 124
f 129/256/67 121/233/63 122/236/64 131/257/67
s 125
f 125/230/10 135/255/10 133/258/10 127/231/10
s 126
f 127/244/42 133/254/49 134/253/49 128/240/43
s 127
f 128/240/9 134/253/9 136/248/9 126/226/9
s 128
f 132/250/68 124/205/57 123/208/58 130/251/68
s 129
f 129/252/69 131/249/69 132/250/69 130/251/69
s 130
f 142/259/52 137/260/52 138/261/29 141/262/29
s 131
f 140/263/39 143/264/39 144/211/53 139/210/53
s 132
f 146/265/54 149/266/54 150/241/55 145/201/55
s 133
f 152/229/56 147/232/56 148/202/33 151/242/33
s 134
f 154/217/2 142/216/2 141/212/2 153/221/2
s 135
f 143/227/2 155/207/2 156/222/2 144/211/2
s 136
f 151/242/2 157/246/2 158/225/2 152/224/2
s 137
f 149/215/2 159/218/2 160/245/2 150/241/2
s 138
f 162/199/4 146/198/4 145/201/4 161/204/4
s 139
f 147/243/4 163/239/4 164/203/4 148/202/4
s 140
f 139/237/4 165/219/4 166/206/4 140/214/4
s 141
f 137/197/4 167/200/4 168/220/4 138/238/4
s 142
f 153/221/33 168/220/33 167/200/56 154/217/56
s 143
f 161/204/44 160/245/44 159/218/53 162/199/53
s 144
f 163/239/41 158/225/41 157/246/52 164/203/52
s 145
f 165/219/32 156/222/32 155/207/55 166/206/55
s 146
f 142/259/9 149/266/54 146/265/54 137/260/9
