# Blender v2.80 (sub 75) OBJ File: 'MCOTMC_April2022_ContractorBuilder_Source.blend'
# www.blender.org
mtllib nail.mtl
o nail_Cylinder.008
v 0.000000 0.173860 -0.023781
v -0.000000 0.202069 -0.000000
v 0.013978 0.173860 -0.019240
v 0.022617 0.173860 -0.007349
v 0.022617 0.173860 0.007349
v 0.013978 0.173860 0.019240
v -0.000000 0.173860 0.023781
v -0.013978 0.173860 0.019239
v -0.022617 0.173860 0.007349
v -0.022617 0.173860 -0.007349
v -0.013978 0.173860 -0.019240
v 0.000000 0.173860 -0.056792
v 0.033382 0.173860 -0.045946
v 0.054013 0.173860 -0.017550
v 0.054013 0.173860 0.017550
v 0.033382 0.173860 0.045946
v -0.000000 0.173860 0.056792
v -0.033382 0.173860 0.045946
v -0.054013 0.173860 0.017550
v -0.054013 0.173860 -0.017550
v -0.033382 0.173860 -0.045946
v -0.000000 0.020550 -0.023781
v 0.013978 0.020550 -0.019240
v 0.022617 0.020550 -0.007349
v 0.022617 0.020550 0.007349
v 0.013978 0.020550 0.019240
v -0.000000 0.020550 0.023781
v -0.013978 0.020550 0.019239
v -0.022617 0.020550 0.007349
v -0.022617 0.020550 -0.007349
v -0.013978 0.020550 -0.019240
v -0.000000 -0.018444 -0.000000
v 0.033382 0.202069 -0.045946
v 0.000000 0.202069 -0.056792
v 0.054013 0.202069 -0.017550
v 0.054013 0.202069 0.017550
v 0.033382 0.202069 0.045946
v -0.000000 0.202069 0.056792
v -0.033382 0.202069 0.045946
v -0.054013 0.202069 0.017550
v -0.054013 0.202069 -0.017550
v -0.033382 0.202069 -0.045946
vt 1.000000 0.500000
vt 1.000000 1.000000
vt 0.900000 1.000000
vt 0.900000 0.500000
vt 0.800000 1.000000
vt 0.800000 0.500000
vt 0.700000 1.000000
vt 0.700000 0.500000
vt 0.600000 1.000000
vt 0.600000 0.500000
vt 0.500000 1.000000
vt 0.500000 0.500000
vt 0.400000 1.000000
vt 0.400000 0.500000
vt 0.300000 1.000000
vt 0.300000 0.500000
vt 0.200000 1.000000
vt 0.200000 0.500000
vt 0.100000 1.000000
vt 0.100000 0.500000
vt -0.000000 1.000000
vt -0.000000 0.500000
vt 0.809071 0.168695
vt 0.750000 0.149502
vt 0.750000 0.149502
vt 0.809071 0.168695
vt 0.809071 0.331305
vt 0.750000 0.350498
vt 0.750000 0.490000
vt 0.891068 0.444164
vt 0.845579 0.281056
vt 0.978254 0.324164
vt 0.845579 0.218944
vt 0.978254 0.175836
vt 0.891068 0.055836
vt 0.750000 0.010000
vt 0.690929 0.168695
vt 0.608932 0.055836
vt 0.654421 0.218944
vt 0.521746 0.175836
vt 0.654421 0.281056
vt 0.521746 0.324164
vt 0.690929 0.331305
vt 0.608932 0.444164
vt 0.809071 0.331305
vt 0.845579 0.281056
vt 0.809071 0.331305
vt 0.690929 0.331305
vt 0.654421 0.281056
vt 0.690929 0.168695
vt 0.845579 0.218944
vt 0.750000 0.350498
vt 0.654421 0.218944
vt 0.654421 0.281056
vt 0.750000 0.149502
vt 0.845579 0.281056
vt 0.690929 0.331305
vt 0.690929 0.168695
vt 0.845579 0.218944
vt 0.750000 0.350498
vt 0.654421 0.218944
vt 0.809071 0.168695
vt 0.386295 0.437594
vt 0.391068 0.444164
vt 0.250000 0.490000
vt 0.470530 0.321654
vt 0.478254 0.324164
vt 0.470530 0.178346
vt 0.478254 0.175836
vt 0.386295 0.062406
vt 0.391068 0.055836
vt 0.250000 0.018121
vt 0.250000 0.010000
vt 0.113705 0.062406
vt 0.108932 0.055836
vt 0.029470 0.178346
vt 0.021746 0.175836
vt 0.029470 0.321654
vt 0.021746 0.324164
vt 0.113705 0.437594
vt 0.108932 0.444164
vt 0.250000 0.481879
vn 0.0000 0.0000 -1.0000
vn 0.5878 0.0000 -0.8090
vn 0.9511 0.0000 -0.3090
vn 0.9511 0.0000 0.3090
vn 0.5878 0.0000 0.8090
vn 0.0000 0.0000 1.0000
vn -0.5878 0.0000 0.8090
vn -0.9511 0.0000 0.3090
vn -0.9511 0.0000 -0.3090
vn -0.5878 0.0000 -0.8090
vn 0.0000 -1.0000 0.0000
vn 0.5018 -0.5207 -0.6907
vn 0.8120 -0.5207 -0.2638
vn -0.8120 -0.5207 -0.2638
vn -0.5018 -0.5207 -0.6907
vn -0.0000 -0.5207 0.8538
vn -0.5018 -0.5207 0.6907
vn 0.8120 -0.5207 0.2638
vn 0.0000 -0.5207 -0.8538
vn -0.8120 -0.5207 0.2638
vn 0.5018 -0.5207 0.6907
vn 0.0000 1.0000 0.0000
usemtl Metal
s 1
f 12/1/1 34/2/1 33/3/2 13/4/2
s 2
f 13/4/2 33/3/2 35/5/3 14/6/3
s 3
f 14/6/3 35/5/3 36/7/4 15/8/4
s 4
f 15/8/4 36/7/4 37/9/5 16/10/5
s 5
f 16/10/5 37/9/5 38/11/6 17/12/6
s 6
f 17/12/6 38/11/6 39/13/7 18/14/7
s 7
f 18/14/7 39/13/7 40/15/8 19/16/8
s 8
f 19/16/8 40/15/8 41/17/9 20/18/9
s 9
f 20/18/9 41/17/9 42/19/10 21/20/10
s 10
f 21/20/10 42/19/10 34/21/1 12/22/1
s 11
f 6/23/5 7/24/6 27/25/6 26/26/5
s 12
f 3/27/11 1/28/11 12/29/11 13/30/11
s 13
f 4/31/11 3/27/11 13/30/11 14/32/11
s 14
f 5/33/11 4/31/11 14/32/11 15/34/11
s 15
f 6/23/11 5/33/11 15/34/11 16/35/11
s 16
f 7/24/11 6/23/11 16/35/11 17/36/11
s 17
f 8/37/11 7/24/11 17/36/11 18/38/11
s 18
f 9/39/11 8/37/11 18/38/11 19/40/11
s 19
f 10/41/11 9/39/11 19/40/11 20/42/11
s 20
f 11/43/11 10/41/11 20/42/11 21/44/11
s 21
f 1/28/11 11/43/11 21/44/11 12/29/11
s 22
f 23/45/12 24/46/13 32/47/11
s 23
f 3/27/2 4/31/3 24/46/3 23/45/2
s 24
f 10/41/9 11/43/10 31/48/10 30/49/9
s 25
f 7/24/6 8/37/7 28/50/7 27/25/6
s 26
f 4/31/3 5/33/4 25/51/4 24/46/3
s 27
f 11/43/10 1/28/1 22/52/1 31/48/10
s 28
f 8/37/7 9/39/8 29/53/8 28/50/7
s 29
f 5/33/4 6/23/5 26/26/5 25/51/4
s 30
f 1/28/1 3/27/2 23/45/2 22/52/1
s 31
f 9/39/8 10/41/9 30/49/9 29/53/8
s 32
f 30/49/14 31/48/15 32/54/11
s 33
f 27/25/16 28/50/17 32/55/11
s 34
f 24/46/13 25/51/18 32/56/11
s 35
f 31/48/15 22/52/19 32/57/11
s 36
f 28/50/17 29/53/20 32/58/11
s 37
f 25/51/18 26/26/21 32/59/11
s 38
f 22/52/19 23/45/12 32/60/11
s 39
f 29/53/20 30/49/14 32/61/11
s 40
f 26/26/21 27/25/16 32/62/11
s 41
f 2/63/22 33/64/22 34/65/22
s 42
f 2/66/22 35/67/22 33/64/22
s 43
f 2/68/22 36/69/22 35/67/22
s 44
f 2/70/22 37/71/22 36/69/22
s 45
f 2/72/22 38/73/22 37/71/22
s 46
f 2/74/22 39/75/22 38/73/22
s 47
f 2/76/22 40/77/22 39/75/22
s 48
f 2/78/22 41/79/22 40/77/22
s 49
f 2/80/22 42/81/22 41/79/22
s 50
f 2/82/22 34/65/22 42/81/22
