# Blender v2.80 (sub 75) OBJ File: 'MCOTMC_August2022_Painter_Source.blend'
# www.blender.org
mtllib easel.mtl
o easel_Cube.185
v 0.476453 0.000000 0.399247
v 0.057214 1.585773 -0.192432
v 0.476453 0.000000 0.294509
v 0.057214 1.550151 -0.288500
v 0.675424 0.000000 0.382206
v 0.256184 1.631730 -0.209473
v 0.675424 0.000000 0.277468
v 0.256184 1.596108 -0.305541
v -0.476453 0.000000 0.399247
v -0.057214 1.585773 -0.192432
v -0.476453 0.000000 0.294509
v -0.057214 1.550151 -0.288500
v -0.675424 0.000000 0.382206
v -0.256184 1.631730 -0.209473
v -0.675424 0.000000 0.277468
v -0.256184 1.596108 -0.305541
v -0.351091 0.431604 0.126254
v -0.138900 1.239240 -0.173215
v -0.138900 1.277225 -0.057495
v -0.403097 0.233661 0.199650
v 0.138900 1.239240 -0.173215
v -0.403097 0.275687 0.317032
v 0.138900 1.277225 -0.057495
v -0.178376 1.088988 -0.117502
v 0.403097 0.233661 0.199650
v 0.351091 0.431604 0.126254
v -0.178376 1.126973 -0.001783
v 0.351091 0.473630 0.243635
v 0.178376 1.088988 -0.117502
v 0.403097 0.275687 0.317032
v 0.666983 0.370836 0.232745
v -0.666983 0.406458 0.328813
v 0.666983 0.406458 0.328813
v -0.666983 0.370836 0.232745
v -0.102460 0.000000 -0.624485
v -0.102460 1.119045 -0.114615
v -0.102460 0.000000 -0.746284
v -0.102460 1.227768 -0.155868
v 0.102459 0.000000 -0.624485
v 0.102459 1.119045 -0.114615
v 0.102459 0.000000 -0.746284
v 0.102459 1.227768 -0.155868
v 0.666983 0.168128 0.307909
v 0.666983 0.203750 0.403977
v -0.666983 0.168128 0.307909
v 0.093858 1.447165 -0.140715
v 0.093858 1.414657 -0.236783
v 0.292829 1.456597 -0.253824
v 0.278032 1.546697 -0.178639
v 0.231376 1.476151 -0.152493
v 0.307626 1.431513 -0.136872
v 0.292829 1.468904 -0.217453
v 0.122098 1.126973 -0.001783
v 0.178376 1.109421 -0.055254
v 0.164914 1.178209 -0.020781
v -0.666983 0.176744 0.331145
v -0.589305 0.203750 0.403977
v -0.666983 0.276582 0.376971
v -0.248907 0.841357 -0.017959
v -0.248907 0.860691 0.078109
v -0.433573 0.941310 0.040879
v -0.462183 0.829958 0.081256
v -0.388275 0.878162 0.066172
v -0.462463 0.810774 -0.014417
v -0.433293 0.921826 -0.055584
v -0.388275 0.858828 -0.029895
v 0.259418 0.406458 0.328813
v 0.259418 0.370836 0.232745
v 0.333851 0.168128 0.307909
v 0.184985 0.168128 0.307909
v 0.259418 0.236118 0.282698
v 0.208718 0.203750 0.403977
v 0.357584 0.203750 0.403977
v 0.275238 0.271333 0.378917
v -0.293596 0.473630 0.243635
v -0.351091 0.454250 0.189505
v -0.364843 0.421287 0.263044
v -0.690689 0.386961 0.480692
v -0.690689 0.478060 0.445644
v 0.690683 0.478060 0.445644
v -0.690689 0.381591 0.194898
v -0.690689 0.290492 0.229946
v 0.690683 0.290492 0.229946
v 0.690683 0.381591 0.194898
v 0.690683 0.439739 0.460387
v 0.634134 0.386961 0.480692
v 0.690683 0.366656 0.427914
v -0.347541 0.290492 0.229946
v -0.347541 0.381591 0.194898
v -0.425957 0.478060 0.445644
v -0.269125 0.478060 0.445644
v -0.347541 0.450190 0.373204
v -0.283172 0.386961 0.480692
v -0.440004 0.386961 0.480692
v -0.357536 0.359129 0.408351
vt 0.440235 0.000000
vt 0.418744 0.000000
vt 0.418744 0.000000
vt 0.198752 0.750000
vt 0.185294 0.677874
vt 0.187103 0.500000
vt 0.364766 0.750000
vt 0.375000 0.500000
vt 0.375000 0.697379
vt 0.375000 0.926248
vt 0.375000 0.760234
vt 0.625000 0.750000
vt 0.625000 0.923706
vt 0.519837 0.750000
vt 0.375000 0.312103
vt 0.625000 0.312103
vt 0.625000 0.500000
vt 0.625000 0.000000
vt 0.625000 0.250000
vt 0.375000 0.250000
vt 0.375000 0.000000
vt 0.170369 0.750000
vt 0.827089 0.750000
vt 0.812897 0.677775
vt 0.812897 0.500000
vt 0.798706 0.750000
vt 0.625000 0.937897
vt 0.375000 0.940439
vt 0.625000 0.952089
vt 0.375000 0.954631
vt 0.375000 1.000000
vt 0.625000 1.000000
vt 0.875000 0.500000
vt 0.125000 0.500000
vt 0.875000 0.750000
vt 0.125000 0.750000
vt 0.125000 0.500000
vt 0.375000 0.500000
vt 0.375000 0.750000
vt 0.125000 0.750000
vt 0.625000 0.500000
vt 0.875000 0.500000
vt 0.875000 0.750000
vt 0.625000 0.750000
vt 0.125000 0.500000
vt 0.125000 0.750000
vt 0.375000 0.750000
vt 0.375000 0.500000
vt 0.625000 0.500000
vt 0.625000 0.750000
vt 0.875000 0.750000
vt 0.875000 0.500000
vt 0.576289 0.250000
vt 0.576289 0.250000
vt 0.552749 0.250000
vt 0.552749 0.250000
vt 0.576289 0.000000
vt 0.576289 0.000000
vt 0.552749 0.000000
vt 0.449756 0.000000
vt 0.418744 0.000000
vt 0.418744 0.250000
vt 0.449756 0.250000
vt 0.560776 0.000000
vt 0.418744 0.250000
vt 0.449756 0.250000
vt 0.418744 0.000000
vt 0.449756 0.000000
vt 0.441555 0.000000
vt 0.449756 0.115286
vt 0.552749 0.115519
vt 0.552749 0.000000
vt 0.426465 0.000000
vt 0.418744 0.250000
vt 0.418744 0.189533
vt 0.603148 0.000000
vt 0.603148 0.250000
vt 0.375000 0.250000
vt 0.375000 0.000000
vt 0.594324 0.750000
vt 0.603148 0.827213
vt 0.603148 1.000000
vt 0.625000 0.250000
vt 0.603148 0.500000
vt 0.603148 0.594647
vt 0.510689 0.250000
vt 0.510689 0.000000
vt 0.375000 0.000000
vt 0.375000 0.250000
vt 0.519387 0.500000
vt 0.625000 0.250000
vt 0.501992 0.500000
vt 0.510689 0.425110
vt 0.502159 0.750000
vt 0.440235 0.000000
vt 0.440235 0.000000
vt 0.440235 0.250000
vt 0.440235 0.250000
vt 0.375000 0.000000
vt 0.625000 0.000000
vt 0.625000 0.250000
vt 0.375000 0.250000
vt 0.625000 0.500000
vt 0.375000 0.500000
vt 0.625000 0.750000
vt 0.375000 0.750000
vt 0.625000 1.000000
vt 0.375000 1.000000
vt 0.125000 0.500000
vt 0.125000 0.750000
vt 0.875000 0.500000
vt 0.875000 0.750000
vt 0.418744 0.000000
vt 0.418744 0.250000
vt 0.611972 0.750000
vt 0.625000 0.000000
vt 0.375000 1.000000
vt 0.625000 1.000000
vt 0.519220 0.750000
vt 0.510689 1.000000
vt 0.625000 1.000000
vt 0.625000 0.000000
vt 0.375000 1.000000
vt 0.510689 0.824890
vt 0.510689 0.750000
vt 0.510689 0.500000
vt 0.425909 0.000000
vt 0.440235 0.250000
vt 0.418744 0.250000
vt 0.418744 0.250000
vt 0.418744 0.000000
vt 0.418744 0.250000
vt 0.418744 0.000000
vt 0.425952 0.250000
vn -0.0000 0.3477 0.9376
vn -0.0000 -0.9333 0.3591
vn 0.0000 0.3591 0.9333
vn 0.0000 -0.3591 -0.9333
vn -1.0000 -0.0000 0.0000
vn 0.5773 -0.3315 0.7462
vn 1.0000 0.0000 0.0000
vn 0.0000 0.9333 -0.3591
vn -0.7097 0.3329 0.6209
vn 0.6916 0.1784 0.6999
vn 0.0000 -1.0000 0.0000
vn -0.2392 0.9104 -0.3376
vn 0.2392 0.9104 -0.3376
vn 0.0000 -0.3477 -0.9376
vn 0.0000 0.9501 -0.3119
vn -0.9709 0.2274 -0.0746
vn 0.9710 0.2252 -0.0806
vn 0.0000 -0.9415 0.3371
vn -0.0000 0.9415 -0.3371
vn -0.0000 -0.9501 0.3119
vn -0.9697 -0.2367 0.0600
vn -0.9698 -0.2364 0.0608
vn -0.9689 -0.2443 0.0395
vn 0.0362 0.3524 0.9351
vn 0.0082 0.3427 0.9394
vn 0.0203 0.3508 0.9362
vn -0.0220 -0.3547 -0.9347
vn -0.0023 -0.3526 -0.9358
vn -0.0225 -0.3547 -0.9347
vn 0.9714 0.2286 -0.0647
vn 0.9720 0.2224 -0.0753
vn 0.9707 0.2369 -0.0414
vn 0.9693 -0.2412 0.0476
vn 0.9691 -0.2428 0.0434
vn 0.9680 -0.2499 0.0241
vn 0.0204 -0.3558 -0.9343
vn 0.0159 -0.3559 -0.9344
vn 0.0350 -0.3560 -0.9338
vn 0.0528 -0.3562 -0.9329
vn 0.0354 -0.3555 -0.9340
vn -0.9695 0.2439 -0.0220
vn 0.0000 0.9376 -0.3477
vn 0.0000 0.4334 -0.9012
vn 0.0000 -0.4146 0.9100
vn 0.0000 0.3548 0.9350
vn 0.6988 -0.2085 0.6843
vn -0.0423 -0.3567 -0.9333
vn 0.9715 0.2231 -0.0804
vn 0.9720 0.2201 -0.0816
vn 0.9715 0.2234 -0.0797
vn -0.9701 -0.2288 0.0811
vn 0.4311 0.8461 0.3134
vn 0.0433 0.3549 0.9339
vn 0.9704 0.2384 -0.0378
vn 0.0036 0.3443 0.9388
vn 0.0030 0.3479 0.9375
vn 0.0017 0.3413 0.9400
vn 0.6254 -0.2483 0.7397
vn 0.9709 0.2274 -0.0746
vn -0.5774 -0.3406 0.7421
vn -0.0000 -0.9376 0.3477
vn -0.9714 0.2279 -0.0666
vn -0.0363 0.3526 0.9351
vn -0.0173 0.3493 0.9369
vn -0.0217 0.3492 0.9368
vn 0.9699 -0.2341 0.0669
vn 0.0569 -0.3563 -0.9326
vn -0.0581 0.3580 0.9319
vn -0.0540 0.3563 0.9328
vn -0.0365 0.3489 0.9364
vn -0.5611 0.8117 -0.1622
vn -0.8286 -0.5490 0.1095
vn 0.7092 -0.6963 0.1106
vn -0.6724 -0.6390 0.3737
vn -0.5229 0.8101 0.2653
vn -0.9710 0.2252 -0.0806
usemtl Brown
s 1
f 32/1/1 57/2/1 72/3/1
s off
f 93/4/2 95/5/2 88/6/2
f 86/7/2 83/8/2 87/9/2
f 93/10/3 86/11/3 80/12/3 91/13/3
f 86/11/3 85/14/3 80/12/3
f 88/15/4 89/16/4 84/17/4 83/8/4
f 79/18/5 81/19/5 82/20/5 78/21/5
f 85/14/6 86/11/6 87/9/6
f 87/9/7 83/8/7 84/17/7 80/12/7
f 85/14/7 87/9/7 80/12/7
f 94/22/2 88/6/2 95/5/2
f 82/20/4 81/19/4 89/16/4 88/15/4
f 90/23/8 92/24/8 89/25/8
f 91/26/8 89/25/8 92/24/8
f 93/10/9 91/13/9 92/27/9 95/28/9
f 95/28/10 92/27/10 90/29/10 94/30/10
f 78/31/3 94/30/3 90/29/3 79/32/3
f 84/17/8 89/25/8 91/26/8
f 90/23/8 89/25/8 81/33/8
f 93/4/2 88/6/2 83/8/2
f 82/34/2 88/6/2 94/22/2
f 79/35/8 90/23/8 81/33/8
f 78/36/2 82/34/2 94/22/2
f 86/7/2 93/4/2 83/8/2
f 80/12/8 84/17/8 91/26/8
s 2
f 3/37/11 7/38/11 5/39/11 1/40/11
s 3
f 8/41/12 4/42/12 2/43/12 6/44/12
s 4
f 11/45/11 9/46/11 13/47/11 15/48/11
s 5
f 16/49/13 14/50/13 10/51/13 12/52/13
s 6
f 18/53/14 21/54/14 29/55/14 24/56/14
s 7
f 19/57/15 23/58/15 21/54/15 18/53/15
s 8
f 19/57/16 18/53/16 24/56/16 27/59/16
s 9
f 28/60/17 30/61/17 25/62/17 26/63/17
s 10
f 19/57/1 55/64/1 23/58/1
s 11
f 25/62/14 20/65/14 17/66/14 26/63/14
s 12
f 30/61/18 22/67/18 20/65/18 25/62/18
s 13
f 28/60/1 75/68/1 30/61/1
s 14
f 77/69/1 22/67/1 30/61/1
s 15
f 17/66/19 76/70/19 75/68/19
s 16
f 24/56/20 29/55/20 54/71/20 53/72/20
s 17
f 58/73/5 45/74/5 56/75/5
s 18
f 46/76/21 47/77/22 3/78/23 1/79/23
s 19
f 51/80/24 50/81/25 46/82/26
s 20
f 47/77/27 4/83/28 8/41/28 48/84/29
s 21
f 48/84/30 52/85/31 51/80/32
s 22
f 59/86/33 60/87/34 9/88/35 11/89/35
s 23
f 65/90/36 16/49/37 12/91/37 59/86/38
s 24
f 64/92/39 66/93/40 59/86/38
s 25
f 62/94/41 64/92/41 15/48/41 13/47/41
s 26
f 67/95/42 33/96/42 31/97/42 68/98/42
s 27
f 35/99/5 36/100/5 38/101/5 37/102/5
s 28
f 37/102/43 38/101/43 42/103/43 41/104/43
s 29
f 41/104/7 42/103/7 40/105/7 39/106/7
s 30
f 39/106/44 40/105/44 36/107/44 35/108/44
s 31
f 37/109/11 41/104/11 39/106/11 35/110/11
s 32
f 42/103/45 38/111/45 36/112/45 40/105/45
s 33
f 32/1/1 58/73/1 57/2/1
s 34
f 31/97/7 33/96/7 44/113/7 43/114/7
s 35
f 49/115/46 50/81/46 52/85/46
s 36
f 3/78/47 47/77/27 48/84/29 7/38/47
s 37
f 8/41/48 6/44/49 49/115/50
s 38
f 2/116/51 4/83/51 47/77/22 46/76/21
s 39
f 50/81/52 51/80/52 52/85/52
s 40
f 5/39/53 51/80/24 46/82/26 1/117/53
s 41
f 7/38/54 48/84/30 51/80/32 5/39/54
s 42
f 52/85/31 48/84/30 49/115/50
s 43
f 50/81/25 49/115/55 46/82/26
s 44
f 2/118/56 46/82/26 49/115/55
s 45
f 48/84/30 8/41/48 49/115/50
s 46
f 6/44/57 2/118/56 49/115/55
s 47
f 53/72/58 54/71/58 55/64/58
s 48
f 23/58/59 55/64/59 54/71/59 29/55/59
s 49
f 56/75/60 57/2/60 58/73/60
s 50
f 57/2/61 56/75/61 45/74/61
s 51
f 14/50/62 16/49/62 65/90/62 61/119/62
s 52
f 60/120/63 10/121/64 14/50/64 61/119/65
s 53
f 12/91/66 10/122/66 60/87/34 59/86/33
s 54
f 15/48/67 64/92/39 59/86/38 11/89/67
s 55
f 66/93/40 65/90/36 59/86/38
s 56
f 9/123/68 60/120/63 62/94/69 13/47/68
s 57
f 63/124/70 60/120/63 61/119/65
s 58
f 64/92/71 62/94/71 63/125/71 66/126/71
s 59
f 66/126/72 63/125/72 61/119/72 65/90/72
s 60
f 60/120/63 63/124/70 62/94/69
s 61
f 33/96/1 67/95/1 74/127/1
s 62
f 34/128/5 45/74/5 58/73/5
s 63
f 32/1/5 34/128/5 58/73/5
s 64
f 31/97/14 43/114/14 69/129/14
s 65
f 72/3/61 57/2/61 45/74/61 70/130/61
s 66
f 32/1/42 67/95/42 68/98/42 34/128/42
s 67
f 44/113/61 73/131/61 69/129/61 43/114/61
s 68
f 73/131/1 33/96/1 74/127/1
s 69
f 44/113/1 33/96/1 73/131/1
s 70
f 74/127/1 32/1/1 72/3/1
s 71
f 67/95/1 32/1/1 74/127/1
s 72
f 72/3/73 70/130/73 71/132/73 74/133/73
s 73
f 74/133/74 71/132/74 69/129/74 73/131/74
s 74
f 34/128/14 68/98/14 71/134/14
s 75
f 45/74/14 34/128/14 70/130/14
s 76
f 70/130/14 34/128/14 71/134/14
s 77
f 68/98/14 31/97/14 71/134/14
s 78
f 71/134/14 31/97/14 69/129/14
s 79
f 75/68/75 76/70/75 77/69/75
s 80
f 20/65/76 22/67/76 77/69/76
s 81
f 75/68/1 77/69/1 30/61/1
s 82
f 26/63/19 17/66/19 75/68/19 28/60/19
s 83
f 17/66/76 20/65/76 76/70/76
s 84
f 76/70/76 20/65/76 77/69/76
s 85
f 53/72/1 55/64/1 19/57/1
s 86
f 27/59/1 53/72/1 19/57/1
s 87
f 21/54/59 23/58/59 29/55/59
s 88
f 27/59/20 24/56/20 53/72/20
