{
    "asset" : {
        "generator" : "Khronos glTF Blender I/O v0.9.36",
        "version" : "2.0"
    },
    "scene" : 0,
    "scenes" : [
        {
            "extras" : {
                "blenderkitUI" : {
                    "assetbar_on" : 0,
                    "turn_off" : 0
                },
                "uuid" : "7c88c033-5d4b-44db-a51f-5301c3a42e42"
            },
            "name" : "Scene",
            "nodes" : [
                3
            ]
        }
    ],
    "nodes" : [
        {
            "extras" : {},
            "mesh" : 0,
            "name" : "character_mouse_armLeft",
            "translation" : [
                0.20404434204101562,
                0.6335563659667969,
                0
            ]
        },
        {
            "extras" : {},
            "mesh" : 1,
            "name" : "character_mouse_armRight",
            "translation" : [
                -0.20404434204101562,
                0.6335563659667969,
                0
            ]
        },
        {
            "extras" : {},
            "mesh" : 2,
            "name" : "character_mouse_head",
            "translation" : [
                0,
                0.7045392990112305,
                0
            ]
        },
        {
            "children" : [
                0,
                1,
                2
            ],
            "extras" : {},
            "mesh" : 3,
            "name" : "character_mouse_body"
        }
    ],
    "materials" : [
        {
            "name" : "Grey",
            "pbrMetallicRoughness" : {
                "baseColorFactor" : [
                    0.2989034354686737,
                    0.35577940940856934,
                    0.3843640387058258,
                    1
                ],
                "metallicFactor" : 0,
                "roughnessFactor" : 0.5
            }
        },
        {
            "name" : "Black",
            "pbrMetallicRoughness" : {
                "baseColorFactor" : [
                    0.019794002175331116,
                    0.03207586705684662,
                    0.037408243864774704,
                    1
                ],
                "metallicFactor" : 0,
                "roughnessFactor" : 0.5
            }
        },
        {
            "name" : "White",
            "pbrMetallicRoughness" : {
                "baseColorFactor" : [
                    0.799102783203125,
                    0.799102783203125,
                    0.799102783203125,
                    1
                ],
                "metallicFactor" : 0,
                "roughnessFactor" : 0.4000000059604645
            }
        },
        {
            "name" : "Pink",
            "pbrMetallicRoughness" : {
                "baseColorFactor" : [
                    0.9215821027755737,
                    0.2422810196876526,
                    0.19806939363479614,
                    1
                ],
                "metallicFactor" : 0,
                "roughnessFactor" : 0.5
            }
        }
    ],
    "meshes" : [
        {
            "name" : "Cube.8500",
            "primitives" : [
                {
                    "attributes" : {
                        "POSITION" : 0,
                        "NORMAL" : 1,
                        "TEXCOORD_0" : 2
                    },
                    "indices" : 3,
                    "material" : 0
                }
            ]
        },
        {
            "name" : "Cube.8501",
            "primitives" : [
                {
                    "attributes" : {
                        "POSITION" : 4,
                        "NORMAL" : 5,
                        "TEXCOORD_0" : 6
                    },
                    "indices" : 7,
                    "material" : 0
                }
            ]
        },
        {
            "name" : "Cube.8499",
            "primitives" : [
                {
                    "attributes" : {
                        "POSITION" : 8,
                        "NORMAL" : 9,
                        "TEXCOORD_0" : 10
                    },
                    "indices" : 11,
                    "material" : 1
                },
                {
                    "attributes" : {
                        "POSITION" : 12,
                        "NORMAL" : 13,
                        "TEXCOORD_0" : 14
                    },
                    "indices" : 15,
                    "material" : 0
                },
                {
                    "attributes" : {
                        "POSITION" : 16,
                        "NORMAL" : 17,
                        "TEXCOORD_0" : 18
                    },
                    "indices" : 19,
                    "material" : 2
                },
                {
                    "attributes" : {
                        "POSITION" : 20,
                        "NORMAL" : 21,
                        "TEXCOORD_0" : 22
                    },
                    "indices" : 23,
                    "material" : 3
                }
            ]
        },
        {
            "name" : "Cube.8502",
            "primitives" : [
                {
                    "attributes" : {
                        "POSITION" : 24,
                        "NORMAL" : 25,
                        "TEXCOORD_0" : 26
                    },
                    "indices" : 27,
                    "material" : 0
                },
                {
                    "attributes" : {
                        "POSITION" : 28,
                        "NORMAL" : 29,
                        "TEXCOORD_0" : 30
                    },
                    "indices" : 31,
                    "material" : 2
                }
            ]
        }
    ],
    "accessors" : [
        {
            "bufferView" : 0,
            "componentType" : 5126,
            "count" : 209,
            "max" : [
                0.26490139961242676,
                0.09418356418609619,
                0.09058663994073868
            ],
            "min" : [
                -0.11533478647470474,
                -0.47665560245513916,
                -0.0905865803360939
            ],
            "type" : "VEC3"
        },
        {
            "bufferView" : 1,
            "componentType" : 5126,
            "count" : 209,
            "type" : "VEC3"
        },
        {
            "bufferView" : 2,
            "componentType" : 5126,
            "count" : 209,
            "type" : "VEC2"
        },
        {
            "bufferView" : 3,
            "componentType" : 5123,
            "count" : 978,
            "type" : "SCALAR"
        },
        {
            "bufferView" : 4,
            "componentType" : 5126,
            "count" : 226,
            "max" : [
                0.11533510684967041,
                0.09418362379074097,
                0.09058663249015808
            ],
            "min" : [
                -0.26490116119384766,
                -0.4766555428504944,
                -0.0905865952372551
            ],
            "type" : "VEC3"
        },
        {
            "bufferView" : 5,
            "componentType" : 5126,
            "count" : 226,
            "type" : "VEC3"
        },
        {
            "bufferView" : 6,
            "componentType" : 5126,
            "count" : 226,
            "type" : "VEC2"
        },
        {
            "bufferView" : 7,
            "componentType" : 5123,
            "count" : 978,
            "type" : "SCALAR"
        },
        {
            "bufferView" : 8,
            "componentType" : 5126,
            "count" : 190,
            "max" : [
                0.2739993929862976,
                0.4786364436149597,
                0.5966649055480957
            ],
            "min" : [
                -0.2739993929862976,
                0.22476407885551453,
                0.39643552899360657
            ],
            "type" : "VEC3"
        },
        {
            "bufferView" : 9,
            "componentType" : 5126,
            "count" : 190,
            "type" : "VEC3"
        },
        {
            "bufferView" : 10,
            "componentType" : 5126,
            "count" : 190,
            "type" : "VEC2"
        },
        {
            "bufferView" : 11,
            "componentType" : 5123,
            "count" : 684,
            "type" : "SCALAR"
        },
        {
            "bufferView" : 12,
            "componentType" : 5126,
            "count" : 945,
            "max" : [
                0.7395132780075073,
                1.0493743419647217,
                0.5011746287345886
            ],
            "min" : [
                -0.7395132780075073,
                0,
                -0.49999961256980896
            ],
            "type" : "VEC3"
        },
        {
            "bufferView" : 13,
            "componentType" : 5126,
            "count" : 945,
            "type" : "VEC3"
        },
        {
            "bufferView" : 14,
            "componentType" : 5126,
            "count" : 945,
            "type" : "VEC2"
        },
        {
            "bufferView" : 15,
            "componentType" : 5123,
            "count" : 3324,
            "type" : "SCALAR"
        },
        {
            "bufferView" : 16,
            "componentType" : 5126,
            "count" : 341,
            "max" : [
                0.30500373244285583,
                0.5998891592025757,
                0.5573133230209351
            ],
            "min" : [
                -0.30499595403671265,
                0.06968799233436584,
                0.236118346452713
            ],
            "type" : "VEC3"
        },
        {
            "bufferView" : 17,
            "componentType" : 5126,
            "count" : 341,
            "type" : "VEC3"
        },
        {
            "bufferView" : 18,
            "componentType" : 5126,
            "count" : 341,
            "type" : "VEC2"
        },
        {
            "bufferView" : 19,
            "componentType" : 5123,
            "count" : 1074,
            "type" : "SCALAR"
        },
        {
            "bufferView" : 20,
            "componentType" : 5126,
            "count" : 320,
            "max" : [
                0.7179437875747681,
                0.9947527647018433,
                0.06681573390960693
            ],
            "min" : [
                -0.7179437875747681,
                0.49151909351348877,
                -0.18029043078422546
            ],
            "type" : "VEC3"
        },
        {
            "bufferView" : 21,
            "componentType" : 5126,
            "count" : 320,
            "type" : "VEC3"
        },
        {
            "bufferView" : 22,
            "componentType" : 5126,
            "count" : 320,
            "type" : "VEC2"
        },
        {
            "bufferView" : 23,
            "componentType" : 5123,
            "count" : 576,
            "type" : "SCALAR"
        },
        {
            "bufferView" : 24,
            "componentType" : 5126,
            "count" : 453,
            "max" : [
                0.33807387948036194,
                0.7255613207817078,
                0.30310869216918945
            ],
            "min" : [
                -0.33807387948036194,
                -2.2351741790771484e-08,
                -0.45584580302238464
            ],
            "type" : "VEC3"
        },
        {
            "bufferView" : 25,
            "componentType" : 5126,
            "count" : 453,
            "type" : "VEC3"
        },
        {
            "bufferView" : 26,
            "componentType" : 5126,
            "count" : 453,
            "type" : "VEC2"
        },
        {
            "bufferView" : 27,
            "componentType" : 5123,
            "count" : 1878,
            "type" : "SCALAR"
        },
        {
            "bufferView" : 28,
            "componentType" : 5126,
            "count" : 38,
            "max" : [
                0.1749998927116394,
                0.7255613207817078,
                0.3499997556209564
            ],
            "min" : [
                -0.1749998927116394,
                0.07248727977275848,
                0.07845018804073334
            ],
            "type" : "VEC3"
        },
        {
            "bufferView" : 29,
            "componentType" : 5126,
            "count" : 38,
            "type" : "VEC3"
        },
        {
            "bufferView" : 30,
            "componentType" : 5126,
            "count" : 38,
            "type" : "VEC2"
        },
        {
            "bufferView" : 31,
            "componentType" : 5123,
            "count" : 162,
            "type" : "SCALAR"
        }
    ],
    "bufferViews" : [
        {
            "buffer" : 0,
            "byteLength" : 2508,
            "byteOffset" : 0
        },
        {
            "buffer" : 0,
            "byteLength" : 2508,
            "byteOffset" : 2508
        },
        {
            "buffer" : 0,
            "byteLength" : 1672,
            "byteOffset" : 5016
        },
        {
            "buffer" : 0,
            "byteLength" : 1956,
            "byteOffset" : 6688
        },
        {
            "buffer" : 0,
            "byteLength" : 2712,
            "byteOffset" : 8644
        },
        {
            "buffer" : 0,
            "byteLength" : 2712,
            "byteOffset" : 11356
        },
        {
            "buffer" : 0,
            "byteLength" : 1808,
            "byteOffset" : 14068
        },
        {
            "buffer" : 0,
            "byteLength" : 1956,
            "byteOffset" : 15876
        },
        {
            "buffer" : 0,
            "byteLength" : 2280,
            "byteOffset" : 17832
        },
        {
            "buffer" : 0,
            "byteLength" : 2280,
            "byteOffset" : 20112
        },
        {
            "buffer" : 0,
            "byteLength" : 1520,
            "byteOffset" : 22392
        },
        {
            "buffer" : 0,
            "byteLength" : 1368,
            "byteOffset" : 23912
        },
        {
            "buffer" : 0,
            "byteLength" : 11340,
            "byteOffset" : 25280
        },
        {
            "buffer" : 0,
            "byteLength" : 11340,
            "byteOffset" : 36620
        },
        {
            "buffer" : 0,
            "byteLength" : 7560,
            "byteOffset" : 47960
        },
        {
            "buffer" : 0,
            "byteLength" : 6648,
            "byteOffset" : 55520
        },
        {
            "buffer" : 0,
            "byteLength" : 4092,
            "byteOffset" : 62168
        },
        {
            "buffer" : 0,
            "byteLength" : 4092,
            "byteOffset" : 66260
        },
        {
            "buffer" : 0,
            "byteLength" : 2728,
            "byteOffset" : 70352
        },
        {
            "buffer" : 0,
            "byteLength" : 2148,
            "byteOffset" : 73080
        },
        {
            "buffer" : 0,
            "byteLength" : 3840,
            "byteOffset" : 75228
        },
        {
            "buffer" : 0,
            "byteLength" : 3840,
            "byteOffset" : 79068
        },
        {
            "buffer" : 0,
            "byteLength" : 2560,
            "byteOffset" : 82908
        },
        {
            "buffer" : 0,
            "byteLength" : 1152,
            "byteOffset" : 85468
        },
        {
            "buffer" : 0,
            "byteLength" : 5436,
            "byteOffset" : 86620
        },
        {
            "buffer" : 0,
            "byteLength" : 5436,
            "byteOffset" : 92056
        },
        {
            "buffer" : 0,
            "byteLength" : 3624,
            "byteOffset" : 97492
        },
        {
            "buffer" : 0,
            "byteLength" : 3756,
            "byteOffset" : 101116
        },
        {
            "buffer" : 0,
            "byteLength" : 456,
            "byteOffset" : 104872
        },
        {
            "buffer" : 0,
            "byteLength" : 456,
            "byteOffset" : 105328
        },
        {
            "buffer" : 0,
            "byteLength" : 304,
            "byteOffset" : 105784
        },
        {
            "buffer" : 0,
            "byteLength" : 324,
            "byteOffset" : 106088
        }
    ],
    "buffers" : [
        {
            "byteLength" : 106412,
            "uri" : "data:application/octet-stream;base64,"
        }
    ]
}
