{
    "asset" : {
        "generator" : "Khronos glTF Blender I/O v0.9.36",
        "version" : "2.0"
    },
    "scene" : 0,
    "scenes" : [
        {
            "extras" : {
                "blenderkitUI" : {
                    "assetbar_on" : 0,
                    "turn_off" : 0
                },
                "FBXBundleSettings" : {
                    "path" : "//Artist Export\\assets\\",
                    "mode_bundle" : 1,
                    "mode_pivot" : 4,
                    "recent" : "{\"selection\": [\"brush\", \"brush_Paint\", \"easel\", \"painting\", \"painting_with_texture\", \"palette\", \"pencil\", \"pencil_blue\", \"pencil_red\"], \"bundles\": [\"brush\", \"brush_Paint\", \"easel\", \"painting\", \"painting_with_texture\", \"palette\", \"pencil\", \"pencil_blue\", \"pencil_red\"]}",
                    "target_platform" : 3
                },
                "uuid" : "0954b430-da01-4a4c-a85a-25eae8138549"
            },
            "name" : "Scene",
            "nodes" : [
                2
            ]
        }
    ],
    "nodes" : [
        {
            "mesh" : 0,
            "name" : "easel_paintbrush",
            "rotation" : [
                0,
                0,
                -0.6879532933235168,
                0.725754976272583
            ],
            "translation" : [
                0.31444549560546875,
                0.5046253204345703,
                0.3846205174922943
            ]
        },
        {
            "mesh" : 1,
            "name" : "easel_painting_textured",
            "rotation" : [
                -0.17809899151325226,
                0,
                0,
                0.9840126037597656
            ],
            "translation" : [
                0,
                1.1242561340332031,
                0.023388244211673737
            ]
        },
        {
            "children" : [
                0,
                1
            ],
            "mesh" : 2,
            "name" : "easel_with_painting"
        }
    ],
    "materials" : [
        {
            "name" : "Beige",
            "pbrMetallicRoughness" : {
                "baseColorFactor" : [
                    0.7029160857200623,
                    0.4253237545490265,
                    0.20689357817173004,
                    1
                ],
                "metallicFactor" : 0,
                "roughnessFactor" : 0.5
            }
        },
        {
            "name" : "Metal",
            "pbrMetallicRoughness" : {
                "baseColorFactor" : [
                    0.40126433968544006,
                    0.47849249839782715,
                    0.5173344612121582,
                    1
                ],
                "metallicFactor" : 0.20000000298023224,
                "roughnessFactor" : 0.30000001192092896
            }
        },
        {
            "name" : "Black",
            "pbrMetallicRoughness" : {
                "baseColorFactor" : [
                    0.019794002175331116,
                    0.03207586705684662,
                    0.037408243864774704,
                    1
                ],
                "metallicFactor" : 0,
                "roughnessFactor" : 0.5
            }
        },
        {
            "name" : "ForestGreen",
            "pbrMetallicRoughness" : {
                "baseColorFactor" : [
                    0.13043218851089478,
                    0.38436266779899597,
                    0.05356369912624359,
                    1
                ],
                "metallicFactor" : 0,
                "roughnessFactor" : 0.4000000059604645
            }
        },
        {
            "name" : "White",
            "pbrMetallicRoughness" : {
                "baseColorFactor" : [
                    0.799102783203125,
                    0.799102783203125,
                    0.799102783203125,
                    1
                ],
                "metallicFactor" : 0,
                "roughnessFactor" : 0.4000000059604645
            }
        },
        {
            "alphaMode" : "BLEND",
            "doubleSided" : true,
            "name" : "place_texture_here",
            "pbrMetallicRoughness" : {
                "baseColorTexture" : {
                    "index" : 0,
                    "texCoord" : 0
                },
                "metallicFactor" : 0,
                "roughnessFactor" : 0.5
            }
        },
        {
            "name" : "Brown",
            "pbrMetallicRoughness" : {
                "baseColorFactor" : [
                    0.5778115391731262,
                    0.23347531259059906,
                    0.11534765362739563,
                    1
                ],
                "metallicFactor" : 0,
                "roughnessFactor" : 0.5
            }
        }
    ],
    "meshes" : [
        {
            "name" : "Cylinder.105",
            "primitives" : [
                {
                    "attributes" : {
                        "POSITION" : 0,
                        "NORMAL" : 1,
                        "TEXCOORD_0" : 2
                    },
                    "indices" : 3,
                    "material" : 0
                },
                {
                    "attributes" : {
                        "POSITION" : 4,
                        "NORMAL" : 5,
                        "TEXCOORD_0" : 6
                    },
                    "indices" : 7,
                    "material" : 1
                },
                {
                    "attributes" : {
                        "POSITION" : 8,
                        "NORMAL" : 9,
                        "TEXCOORD_0" : 10
                    },
                    "indices" : 11,
                    "material" : 2
                },
                {
                    "attributes" : {
                        "POSITION" : 12,
                        "NORMAL" : 13,
                        "TEXCOORD_0" : 14
                    },
                    "indices" : 15,
                    "material" : 3
                }
            ]
        },
        {
            "name" : "Cube.188",
            "primitives" : [
                {
                    "attributes" : {
                        "POSITION" : 16,
                        "NORMAL" : 17,
                        "TEXCOORD_0" : 18
                    },
                    "indices" : 19,
                    "material" : 0
                },
                {
                    "attributes" : {
                        "POSITION" : 20,
                        "NORMAL" : 21,
                        "TEXCOORD_0" : 22
                    },
                    "indices" : 23,
                    "material" : 4
                },
                {
                    "attributes" : {
                        "POSITION" : 24,
                        "NORMAL" : 25,
                        "TEXCOORD_0" : 26
                    },
                    "indices" : 27,
                    "material" : 5
                }
            ]
        },
        {
            "name" : "Cube.178",
            "primitives" : [
                {
                    "attributes" : {
                        "POSITION" : 28,
                        "NORMAL" : 29,
                        "TEXCOORD_0" : 30
                    },
                    "indices" : 31,
                    "material" : 6
                }
            ]
        }
    ],
    "textures" : [
        {
            "source" : 0
        }
    ],
    "images" : [
        {
            "bufferView" : 28,
            "mimeType" : "image/png",
            "name" : "painting"
        }
    ],
    "accessors" : [
        {
            "bufferView" : 0,
            "componentType" : 5126,
            "count" : 159,
            "max" : [
                0.053223010152578354,
                0.10425914824008942,
                0.05322318151593208
            ],
            "min" : [
                -0.053222741931676865,
                -0.29020926356315613,
                -0.05322258546948433
            ],
            "type" : "VEC3"
        },
        {
            "bufferView" : 1,
            "componentType" : 5126,
            "count" : 159,
            "type" : "VEC3"
        },
        {
            "bufferView" : 2,
            "componentType" : 5126,
            "count" : 159,
            "type" : "VEC2"
        },
        {
            "bufferView" : 3,
            "componentType" : 5123,
            "count" : 468,
            "type" : "SCALAR"
        },
        {
            "bufferView" : 4,
            "componentType" : 5126,
            "count" : 178,
            "max" : [
                0.05456439405679703,
                0.19002026319503784,
                0.054564591497182846
            ],
            "min" : [
                -0.05456419661641121,
                0.10425914824008942,
                -0.054564010351896286
            ],
            "type" : "VEC3"
        },
        {
            "bufferView" : 5,
            "componentType" : 5126,
            "count" : 178,
            "type" : "VEC3"
        },
        {
            "bufferView" : 6,
            "componentType" : 5126,
            "count" : 178,
            "type" : "VEC2"
        },
        {
            "bufferView" : 7,
            "componentType" : 5123,
            "count" : 396,
            "type" : "SCALAR"
        },
        {
            "bufferView" : 8,
            "componentType" : 5126,
            "count" : 126,
            "max" : [
                0.06157948821783066,
                0.2855236232280731,
                0.05456125736236572
            ],
            "min" : [
                -0.06056194379925728,
                0.18240271508693695,
                -0.06487301737070084
            ],
            "type" : "VEC3"
        },
        {
            "bufferView" : 9,
            "componentType" : 5126,
            "count" : 126,
            "type" : "VEC3"
        },
        {
            "bufferView" : 10,
            "componentType" : 5126,
            "count" : 126,
            "type" : "VEC2"
        },
        {
            "bufferView" : 11,
            "componentType" : 5123,
            "count" : 246,
            "type" : "SCALAR"
        },
        {
            "bufferView" : 12,
            "componentType" : 5126,
            "count" : 221,
            "max" : [
                0.06685752421617508,
                0.3983488976955414,
                0.07115662842988968
            ],
            "min" : [
                -0.0678185448050499,
                0.2145613431930542,
                -0.06265433132648468
            ],
            "type" : "VEC3"
        },
        {
            "bufferView" : 13,
            "componentType" : 5126,
            "count" : 221,
            "type" : "VEC3"
        },
        {
            "bufferView" : 14,
            "componentType" : 5126,
            "count" : 221,
            "type" : "VEC2"
        },
        {
            "bufferView" : 15,
            "componentType" : 5123,
            "count" : 432,
            "type" : "SCALAR"
        },
        {
            "bufferView" : 16,
            "componentType" : 5126,
            "count" : 64,
            "max" : [
                0.5634351372718811,
                0.7509571313858032,
                0.04066810384392738
            ],
            "min" : [
                -0.5634360909461975,
                -0.7509573698043823,
                -0.04066810384392738
            ],
            "type" : "VEC3"
        },
        {
            "bufferView" : 17,
            "componentType" : 5126,
            "count" : 64,
            "type" : "VEC3"
        },
        {
            "bufferView" : 18,
            "componentType" : 5126,
            "count" : 64,
            "type" : "VEC2"
        },
        {
            "bufferView" : 19,
            "componentType" : 5123,
            "count" : 96,
            "type" : "SCALAR"
        },
        {
            "bufferView" : 20,
            "componentType" : 5126,
            "count" : 74,
            "max" : [
                0.5955365300178528,
                0.7832952737808228,
                0.07710745930671692
            ],
            "min" : [
                -0.5955374836921692,
                -0.7832954525947571,
                -0.007731379009783268
            ],
            "type" : "VEC3"
        },
        {
            "bufferView" : 21,
            "componentType" : 5126,
            "count" : 74,
            "type" : "VEC3"
        },
        {
            "bufferView" : 22,
            "componentType" : 5126,
            "count" : 74,
            "type" : "VEC2"
        },
        {
            "bufferView" : 23,
            "componentType" : 5123,
            "count" : 270,
            "type" : "SCALAR"
        },
        {
            "bufferView" : 24,
            "componentType" : 5126,
            "count" : 4,
            "max" : [
                0.5636640787124634,
                0.7514228820800781,
                0.08212152123451233
            ],
            "min" : [
                -0.5636650919914246,
                -0.7514230608940125,
                0.08212152123451233
            ],
            "type" : "VEC3"
        },
        {
            "bufferView" : 25,
            "componentType" : 5126,
            "count" : 4,
            "type" : "VEC3"
        },
        {
            "bufferView" : 26,
            "componentType" : 5126,
            "count" : 4,
            "type" : "VEC2"
        },
        {
            "bufferView" : 27,
            "componentType" : 5123,
            "count" : 6,
            "type" : "SCALAR"
        },
        {
            "bufferView" : 29,
            "componentType" : 5126,
            "count" : 307,
            "max" : [
                0.6906829476356506,
                1.6317297220230103,
                0.4806920289993286
            ],
            "min" : [
                -0.6906893849372864,
                0,
                -0.7462838888168335
            ],
            "type" : "VEC3"
        },
        {
            "bufferView" : 30,
            "componentType" : 5126,
            "count" : 307,
            "type" : "VEC3"
        },
        {
            "bufferView" : 31,
            "componentType" : 5126,
            "count" : 307,
            "type" : "VEC2"
        },
        {
            "bufferView" : 32,
            "componentType" : 5123,
            "count" : 486,
            "type" : "SCALAR"
        }
    ],
    "bufferViews" : [
        {
            "buffer" : 0,
            "byteLength" : 1908,
            "byteOffset" : 0
        },
        {
            "buffer" : 0,
            "byteLength" : 1908,
            "byteOffset" : 1908
        },
        {
            "buffer" : 0,
            "byteLength" : 1272,
            "byteOffset" : 3816
        },
        {
            "buffer" : 0,
            "byteLength" : 936,
            "byteOffset" : 5088
        },
        {
            "buffer" : 0,
            "byteLength" : 2136,
            "byteOffset" : 6024
        },
        {
            "buffer" : 0,
            "byteLength" : 2136,
            "byteOffset" : 8160
        },
        {
            "buffer" : 0,
            "byteLength" : 1424,
            "byteOffset" : 10296
        },
        {
            "buffer" : 0,
            "byteLength" : 792,
            "byteOffset" : 11720
        },
        {
            "buffer" : 0,
            "byteLength" : 1512,
            "byteOffset" : 12512
        },
        {
            "buffer" : 0,
            "byteLength" : 1512,
            "byteOffset" : 14024
        },
        {
            "buffer" : 0,
            "byteLength" : 1008,
            "byteOffset" : 15536
        },
        {
            "buffer" : 0,
            "byteLength" : 492,
            "byteOffset" : 16544
        },
        {
            "buffer" : 0,
            "byteLength" : 2652,
            "byteOffset" : 17036
        },
        {
            "buffer" : 0,
            "byteLength" : 2652,
            "byteOffset" : 19688
        },
        {
            "buffer" : 0,
            "byteLength" : 1768,
            "byteOffset" : 22340
        },
        {
            "buffer" : 0,
            "byteLength" : 864,
            "byteOffset" : 24108
        },
        {
            "buffer" : 0,
            "byteLength" : 768,
            "byteOffset" : 24972
        },
        {
            "buffer" : 0,
            "byteLength" : 768,
            "byteOffset" : 25740
        },
        {
            "buffer" : 0,
            "byteLength" : 512,
            "byteOffset" : 26508
        },
        {
            "buffer" : 0,
            "byteLength" : 192,
            "byteOffset" : 27020
        },
        {
            "buffer" : 0,
            "byteLength" : 888,
            "byteOffset" : 27212
        },
        {
            "buffer" : 0,
            "byteLength" : 888,
            "byteOffset" : 28100
        },
        {
            "buffer" : 0,
            "byteLength" : 592,
            "byteOffset" : 28988
        },
        {
            "buffer" : 0,
            "byteLength" : 540,
            "byteOffset" : 29580
        },
        {
            "buffer" : 0,
            "byteLength" : 48,
            "byteOffset" : 30120
        },
        {
            "buffer" : 0,
            "byteLength" : 48,
            "byteOffset" : 30168
        },
        {
            "buffer" : 0,
            "byteLength" : 32,
            "byteOffset" : 30216
        },
        {
            "buffer" : 0,
            "byteLength" : 12,
            "byteOffset" : 30248
        },
        {
            "buffer" : 0,
            "byteLength" : 94263,
            "byteOffset" : 30260
        },
        {
            "buffer" : 0,
            "byteLength" : 3684,
            "byteOffset" : 124524
        },
        {
            "buffer" : 0,
            "byteLength" : 3684,
            "byteOffset" : 128208
        },
        {
            "buffer" : 0,
            "byteLength" : 2456,
            "byteOffset" : 131892
        },
        {
            "buffer" : 0,
            "byteLength" : 972,
            "byteOffset" : 134348
        }
    ],
    "buffers" : [
        {
            "byteLength" : 135320,
            "uri" : "data:application/octet-stream;base64,"
        }
    ]
}
