{
    "asset" : {
        "generator" : "Khronos glTF Blender I/O v0.9.36",
        "version" : "2.0"
    },
    "scene" : 0,
    "scenes" : [
        {
            "extras" : {
                "blenderkitUI" : {
                    "assetbar_on" : 0,
                    "turn_off" : 0
                },
                "FBXBundleSettings" : {
                    "path" : "//Artist Export\\assets\\",
                    "mode_bundle" : 1,
                    "mode_pivot" : 4,
                    "recent" : "{\"selection\": [\"brush\", \"brush_Paint\", \"easel\", \"painting\", \"painting_with_texture\", \"palette\", \"pencil\", \"pencil_blue\", \"pencil_red\"], \"bundles\": [\"brush\", \"brush_Paint\", \"easel\", \"painting\", \"painting_with_texture\", \"palette\", \"pencil\", \"pencil_blue\", \"pencil_red\"]}",
                    "target_platform" : 3
                },
                "uuid" : "0954b430-da01-4a4c-a85a-25eae8138549"
            },
            "name" : "Scene",
            "nodes" : [
                1
            ]
        }
    ],
    "nodes" : [
        {
            "mesh" : 0,
            "name" : "stool_fruitbowl",
            "translation" : [
                -0.00113677978515625,
                0.4497494697570801,
                0
            ]
        },
        {
            "children" : [
                0
            ],
            "mesh" : 1,
            "name" : "stool_with_fruitbowl"
        }
    ],
    "materials" : [
        {
            "name" : "White",
            "pbrMetallicRoughness" : {
                "baseColorFactor" : [
                    0.799102783203125,
                    0.799102783203125,
                    0.799102783203125,
                    1
                ],
                "metallicFactor" : 0,
                "roughnessFactor" : 0.4000000059604645
            }
        },
        {
            "doubleSided" : true,
            "name" : "PurpleDark",
            "pbrMetallicRoughness" : {
                "baseColorFactor" : [
                    0.06480327248573303,
                    0.05780543386936188,
                    0.16513223946094513,
                    1
                ],
                "metallicFactor" : 0,
                "roughnessFactor" : 0.4000000059604645
            }
        },
        {
            "doubleSided" : true,
            "name" : "WoodDark",
            "pbrMetallicRoughness" : {
                "baseColorFactor" : [
                    0.15292620658874512,
                    0.08865558356046677,
                    0.07227186858654022,
                    1
                ],
                "metallicFactor" : 0,
                "roughnessFactor" : 0.4000000059604645
            }
        },
        {
            "name" : "Yellow",
            "pbrMetallicRoughness" : {
                "baseColorFactor" : [
                    1,
                    0.5052202939987183,
                    0.017695415765047073,
                    1
                ],
                "metallicFactor" : 0,
                "roughnessFactor" : 0.4000000059604645
            }
        },
        {
            "doubleSided" : true,
            "name" : "Red",
            "pbrMetallicRoughness" : {
                "baseColorFactor" : [
                    1,
                    0.02505292184650898,
                    0.11802464723587036,
                    1
                ],
                "metallicFactor" : 0,
                "roughnessFactor" : 0.5
            }
        },
        {
            "doubleSided" : true,
            "name" : "GreenLight",
            "pbrMetallicRoughness" : {
                "baseColorFactor" : [
                    0.42695045471191406,
                    0.7029160857200623,
                    0.20689110457897186,
                    1
                ],
                "metallicFactor" : 0,
                "roughnessFactor" : 0.5
            }
        },
        {
            "name" : "Brown",
            "pbrMetallicRoughness" : {
                "baseColorFactor" : [
                    0.5778115391731262,
                    0.23347531259059906,
                    0.11534765362739563,
                    1
                ],
                "metallicFactor" : 0,
                "roughnessFactor" : 0.5
            }
        }
    ],
    "meshes" : [
        {
            "name" : "Sphere.020",
            "primitives" : [
                {
                    "attributes" : {
                        "POSITION" : 0,
                        "NORMAL" : 1,
                        "TEXCOORD_0" : 2
                    },
                    "indices" : 3,
                    "material" : 0
                },
                {
                    "attributes" : {
                        "POSITION" : 4,
                        "NORMAL" : 5,
                        "TEXCOORD_0" : 6
                    },
                    "indices" : 7,
                    "material" : 1
                },
                {
                    "attributes" : {
                        "POSITION" : 8,
                        "NORMAL" : 9,
                        "TEXCOORD_0" : 10
                    },
                    "indices" : 11,
                    "material" : 2
                },
                {
                    "attributes" : {
                        "POSITION" : 12,
                        "NORMAL" : 13,
                        "TEXCOORD_0" : 14
                    },
                    "indices" : 15,
                    "material" : 3
                },
                {
                    "attributes" : {
                        "POSITION" : 16,
                        "NORMAL" : 17,
                        "TEXCOORD_0" : 18
                    },
                    "indices" : 19,
                    "material" : 4
                },
                {
                    "attributes" : {
                        "POSITION" : 20,
                        "NORMAL" : 21,
                        "TEXCOORD_0" : 22
                    },
                    "indices" : 23,
                    "material" : 5
                }
            ]
        },
        {
            "name" : "Cube.182",
            "primitives" : [
                {
                    "attributes" : {
                        "POSITION" : 24,
                        "NORMAL" : 25,
                        "TEXCOORD_0" : 26
                    },
                    "indices" : 27,
                    "material" : 6
                }
            ]
        }
    ],
    "accessors" : [
        {
            "bufferView" : 0,
            "componentType" : 5126,
            "count" : 426,
            "max" : [
                0.3719812035560608,
                0.2950505018234253,
                0.37198516726493835
            ],
            "min" : [
                -0.3719906806945801,
                8.181449828725817e-08,
                -0.37198662757873535
            ],
            "type" : "VEC3"
        },
        {
            "bufferView" : 1,
            "componentType" : 5126,
            "count" : 426,
            "type" : "VEC3"
        },
        {
            "bufferView" : 2,
            "componentType" : 5126,
            "count" : 426,
            "type" : "VEC2"
        },
        {
            "bufferView" : 3,
            "componentType" : 5123,
            "count" : 1872,
            "type" : "SCALAR"
        },
        {
            "bufferView" : 4,
            "componentType" : 5126,
            "count" : 1386,
            "max" : [
                0.21105919778347015,
                0.589138388633728,
                0.16645655035972595
            ],
            "min" : [
                -0.08136391639709473,
                0.297435462474823,
                -0.2280866503715515
            ],
            "type" : "VEC3"
        },
        {
            "bufferView" : 5,
            "componentType" : 5126,
            "count" : 1386,
            "type" : "VEC3"
        },
        {
            "bufferView" : 6,
            "componentType" : 5126,
            "count" : 1386,
            "type" : "VEC2"
        },
        {
            "bufferView" : 7,
            "componentType" : 5123,
            "count" : 5280,
            "type" : "SCALAR"
        },
        {
            "bufferView" : 8,
            "componentType" : 5126,
            "count" : 411,
            "max" : [
                0.2327011227607727,
                0.6179574728012085,
                0.23077410459518433
            ],
            "min" : [
                -0.1963375210762024,
                0.36567366123199463,
                -0.27195799350738525
            ],
            "type" : "VEC3"
        },
        {
            "bufferView" : 9,
            "componentType" : 5126,
            "count" : 411,
            "type" : "VEC3"
        },
        {
            "bufferView" : 10,
            "componentType" : 5126,
            "count" : 411,
            "type" : "VEC2"
        },
        {
            "bufferView" : 11,
            "componentType" : 5123,
            "count" : 954,
            "type" : "SCALAR"
        },
        {
            "bufferView" : 12,
            "componentType" : 5126,
            "count" : 639,
            "max" : [
                0.2637837529182434,
                0.4757526218891144,
                0.017842337489128113
            ],
            "min" : [
                -0.21507859230041504,
                0.08509954810142517,
                -0.32773131132125854
            ],
            "type" : "VEC3"
        },
        {
            "bufferView" : 13,
            "componentType" : 5126,
            "count" : 639,
            "type" : "VEC3"
        },
        {
            "bufferView" : 14,
            "componentType" : 5126,
            "count" : 639,
            "type" : "VEC2"
        },
        {
            "bufferView" : 15,
            "componentType" : 5123,
            "count" : 1656,
            "type" : "SCALAR"
        },
        {
            "bufferView" : 16,
            "componentType" : 5126,
            "count" : 191,
            "max" : [
                0.0140311811119318,
                0.42949268221855164,
                0.23648560047149658
            ],
            "min" : [
                -0.30064278841018677,
                0.145657479763031,
                -0.07650245726108551
            ],
            "type" : "VEC3"
        },
        {
            "bufferView" : 17,
            "componentType" : 5126,
            "count" : 191,
            "type" : "VEC3"
        },
        {
            "bufferView" : 18,
            "componentType" : 5126,
            "count" : 191,
            "type" : "VEC2"
        },
        {
            "bufferView" : 19,
            "componentType" : 5123,
            "count" : 720,
            "type" : "SCALAR"
        },
        {
            "bufferView" : 20,
            "componentType" : 5126,
            "count" : 186,
            "max" : [
                0.2641744315624237,
                0.48109427094459534,
                0.2871893346309662
            ],
            "min" : [
                -0.075260229408741,
                0.03808329999446869,
                -0.0458989217877388
            ],
            "type" : "VEC3"
        },
        {
            "bufferView" : 21,
            "componentType" : 5126,
            "count" : 186,
            "type" : "VEC3"
        },
        {
            "bufferView" : 22,
            "componentType" : 5126,
            "count" : 186,
            "type" : "VEC2"
        },
        {
            "bufferView" : 23,
            "componentType" : 5123,
            "count" : 768,
            "type" : "SCALAR"
        },
        {
            "bufferView" : 24,
            "componentType" : 5126,
            "count" : 526,
            "max" : [
                0.3717648386955261,
                0.4497494399547577,
                0.3409896790981293
            ],
            "min" : [
                -0.37369102239608765,
                0,
                -0.34098970890045166
            ],
            "type" : "VEC3"
        },
        {
            "bufferView" : 25,
            "componentType" : 5126,
            "count" : 526,
            "type" : "VEC3"
        },
        {
            "bufferView" : 26,
            "componentType" : 5126,
            "count" : 526,
            "type" : "VEC2"
        },
        {
            "bufferView" : 27,
            "componentType" : 5123,
            "count" : 1332,
            "type" : "SCALAR"
        }
    ],
    "bufferViews" : [
        {
            "buffer" : 0,
            "byteLength" : 5112,
            "byteOffset" : 0
        },
        {
            "buffer" : 0,
            "byteLength" : 5112,
            "byteOffset" : 5112
        },
        {
            "buffer" : 0,
            "byteLength" : 3408,
            "byteOffset" : 10224
        },
        {
            "buffer" : 0,
            "byteLength" : 3744,
            "byteOffset" : 13632
        },
        {
            "buffer" : 0,
            "byteLength" : 16632,
            "byteOffset" : 17376
        },
        {
            "buffer" : 0,
            "byteLength" : 16632,
            "byteOffset" : 34008
        },
        {
            "buffer" : 0,
            "byteLength" : 11088,
            "byteOffset" : 50640
        },
        {
            "buffer" : 0,
            "byteLength" : 10560,
            "byteOffset" : 61728
        },
        {
            "buffer" : 0,
            "byteLength" : 4932,
            "byteOffset" : 72288
        },
        {
            "buffer" : 0,
            "byteLength" : 4932,
            "byteOffset" : 77220
        },
        {
            "buffer" : 0,
            "byteLength" : 3288,
            "byteOffset" : 82152
        },
        {
            "buffer" : 0,
            "byteLength" : 1908,
            "byteOffset" : 85440
        },
        {
            "buffer" : 0,
            "byteLength" : 7668,
            "byteOffset" : 87348
        },
        {
            "buffer" : 0,
            "byteLength" : 7668,
            "byteOffset" : 95016
        },
        {
            "buffer" : 0,
            "byteLength" : 5112,
            "byteOffset" : 102684
        },
        {
            "buffer" : 0,
            "byteLength" : 3312,
            "byteOffset" : 107796
        },
        {
            "buffer" : 0,
            "byteLength" : 2292,
            "byteOffset" : 111108
        },
        {
            "buffer" : 0,
            "byteLength" : 2292,
            "byteOffset" : 113400
        },
        {
            "buffer" : 0,
            "byteLength" : 1528,
            "byteOffset" : 115692
        },
        {
            "buffer" : 0,
            "byteLength" : 1440,
            "byteOffset" : 117220
        },
        {
            "buffer" : 0,
            "byteLength" : 2232,
            "byteOffset" : 118660
        },
        {
            "buffer" : 0,
            "byteLength" : 2232,
            "byteOffset" : 120892
        },
        {
            "buffer" : 0,
            "byteLength" : 1488,
            "byteOffset" : 123124
        },
        {
            "buffer" : 0,
            "byteLength" : 1536,
            "byteOffset" : 124612
        },
        {
            "buffer" : 0,
            "byteLength" : 6312,
            "byteOffset" : 126148
        },
        {
            "buffer" : 0,
            "byteLength" : 6312,
            "byteOffset" : 132460
        },
        {
            "buffer" : 0,
            "byteLength" : 4208,
            "byteOffset" : 138772
        },
        {
            "buffer" : 0,
            "byteLength" : 2664,
            "byteOffset" : 142980
        }
    ],
    "buffers" : [
        {
            "byteLength" : 145644,
            "uri" : "data:application/octet-stream;base64,"
        }
    ]
}
